<?xml version="1.0" encoding="UTF-8"?>
<svg width="12px" height="12px" viewBox="0 0 12 12" version="1.1" xmlns="http://www.w3.org/2000/svg" xmlns:xlink="http://www.w3.org/1999/xlink">
    <!-- Generator: Sketch 49 (51002) - http://www.bohemiancoding.com/sketch -->
    <title>search - FontAwesome</title>
    <desc>Created with Sketch.</desc>
    <defs></defs>
    <g id="Page-1" stroke="none" stroke-width="1" fill="none" fill-rule="evenodd">
        <g id="taiko_code-box-and-note-styling" transform="translate(-47.000000, -115.000000)" fill="#999999">
            <g id="SEARCH-BOX" transform="translate(36.000000, 101.000000)">
                <path d="M18.7142949,19.2857087 C18.7142949,17.6316888 17.3683112,16.2857051 15.7142913,16.2857051 C14.0602715,16.2857051 12.7142878,17.6316888 12.7142878,19.2857087 C12.7142878,20.9397285 14.0602715,22.2857122 15.7142913,22.2857122 C17.3683112,22.2857122 18.7142949,20.9397285 18.7142949,19.2857087 Z M22.1428704,24.8571439 C22.1428704,25.3258944 21.7544771,25.7142878 21.2857265,25.7142878 C21.0580477,25.7142878 20.8370653,25.6205376 20.6830473,25.4598232 L18.3861695,23.1696419 C17.6026864,23.7120532 16.6651853,24 15.7142913,24 C13.1093775,24 11,21.8906225 11,19.2857087 C11,16.6807948 13.1093775,14.5714173 15.7142913,14.5714173 C18.3192052,14.5714173 20.4285827,16.6807948 20.4285827,19.2857087 C20.4285827,20.2366027 20.1406359,21.1741038 19.5982245,21.9575869 L21.8951023,24.2544646 C22.0491203,24.4084826 22.1428704,24.629465 22.1428704,24.8571439 Z" id="search---FontAwesome"></path>
            </g>
        </g>
    </g>
</svg>