<svg id="Layer_1" data-name="Layer 1" xmlns="http://www.w3.org/2000/svg" viewBox="0 0 17 17"><defs><style>.cls-1{fill:#999;}</style></defs><title>hashlink</title><g id="Page-1"><g id="taiko_code-box-and-note-styling" data-name="taiko code-box-and-note-styling"><path id="hash-link-copy" class="cls-1" d="M1.93,12.05a1,1,0,0,1,.28-.68L4.3,9.28A1,1,0,0,1,5,9a1,1,0,0,1,.72.32c-.33.33-.72.61-.72,1.12a1,1,0,0,0,1,1c.51,0,.79-.39,1.13-.72a1,1,0,0,1,.05,1.42L5.05,14.18a1,1,0,0,1-.68.27,1,1,0,0,1-.68-.26L2.21,12.73A1,1,0,0,1,1.93,12.05ZM9,5a1,1,0,0,1,.28-.68l2.07-2.08A1,1,0,0,1,12,1.93a1,1,0,0,1,.68.27l1.48,1.47a1,1,0,0,1,0,1.36L12.09,7.11a1,1,0,0,1-.68.27.94.94,0,0,1-.72-.31c.33-.33.72-.61.72-1.12a1,1,0,0,0-1-1c-.51,0-.79.39-1.12.72A1,1,0,0,1,9,5ZM0,12.05a2.87,2.87,0,0,0,.85,2l1.48,1.47a2.9,2.9,0,0,0,4.09,0l2.07-2.08a2.87,2.87,0,0,0,.83-2,2.94,2.94,0,0,0-.88-2.1l.88-.88a2.91,2.91,0,0,0,4.14,0l2.09-2.09a2.89,2.89,0,0,0,0-4.09L14.06.83A2.9,2.9,0,0,0,10,.85L7.91,2.93a2.87,2.87,0,0,0-.83,2A2.94,2.94,0,0,0,8,7.07L7.07,8a2.91,2.91,0,0,0-4.14,0L.84,10A2.86,2.86,0,0,0,0,12.05Z"/></g></g></svg>