<?xml version="1.0" encoding="UTF-8"?>
<svg width="80px" height="20px" viewBox="0 0 80 20" version="1.1" xmlns="http://www.w3.org/2000/svg" xmlns:xlink="http://www.w3.org/1999/xlink">
    <!-- Generator: Sketch 51.3 (57544) - http://www.bohemiancoding.com/sketch -->
    <title>GAUGE LOGO</title>
    <desc>Created with Sketch.</desc>
    <defs></defs>
    <g id="Page-1" stroke="none" stroke-width="1" fill="none" fill-rule="evenodd">
        <g id="Desktop-HD-Copy-2" transform="translate(-110.000000, -762.000000)" fill="#000000">
            <g id="Group" transform="translate(36.000000, 762.000000)">
                <g id="GAUGE-LOGO" transform="translate(74.000000, 0.000000)">
                    <g id="product_ui_logo_Gauge">
                        <g id="Group" transform="translate(21.189974, 4.118404)" fill-rule="nonzero">
                            <path d="M10.514236,12.1599432 C10.2496477,12.8285921 9.87166438,13.4025651 9.38028606,13.8818622 C8.88890774,14.3611592 8.3030336,14.7339458 7.6163639,14.9943046 C6.9296942,15.2546635 6.17372756,15.3907602 5.34846398,15.3907602 C4.06332069,15.3907602 2.96086934,15.0889806 2.04740965,14.4913386 C1.13394996,13.8936967 0.53547637,13.0771165 0.25198888,12.035681 L2.11670659,12.035681 C2.29939853,12.4143848 2.52618852,12.7220817 2.80967601,12.9528543 C3.08686378,13.183627 3.38925044,13.3552271 3.70423654,13.4735721 C4.01922264,13.591917 4.32160929,13.6688413 4.61769623,13.710262 C4.91378316,13.7516827 5.1531726,13.7694345 5.3547637,13.7694345 C6.0414334,13.7694345 6.62100782,13.6570068 7.10608642,13.4262341 C7.59116501,13.1954615 7.98174778,12.8995991 8.27783471,12.538647 C8.58022137,12.1776949 8.79441191,11.7694049 8.92670608,11.3078596 C9.05900024,10.8463143 9.12829718,10.3906863 9.12829718,9.92914096 L9.12829718,8.86403645 C8.73771442,9.36108522 8.22113721,9.78712703 7.58486529,10.1362446 C6.94859337,10.4853622 6.23672478,10.6569624 5.45555925,10.6569624 C4.67439372,10.6569624 3.94992569,10.5208657 3.29475461,10.2427551 C2.63958352,9.96464445 2.06630882,9.58594062 1.58752994,9.10072634 C1.10245135,8.61551206 0.72446803,8.04745632 0.453579984,7.40839362 C0.182691938,6.76341366 0.044098054,6.07701297 0.044098054,5.33735706 C0.044098054,4.59770115 0.182691938,3.91130046 0.453579984,3.26040326 C0.72446803,2.60950606 1.10245135,2.04736756 1.58752994,1.56807053 C2.07260854,1.0887735 2.63958352,0.710069676 3.29475461,0.426041805 C3.94992569,0.142013935 4.67439372,2.84217094e-14 5.45555925,2.84217094e-14 C6.25562395,2.84217094e-14 6.98009198,0.183434666 7.63526307,0.550303999 C8.29043415,0.917173331 8.8196108,1.36096688 9.19759412,1.87576739 L9.19759412,0.260358881 L10.9174182,0.260358881 L10.9174182,9.93505821 C10.9174182,10.7457211 10.7851241,11.4912942 10.514236,12.1599432 Z M8.83850997,3.88171423 C8.64321859,3.42016894 8.37863026,3.01779612 8.03844527,2.66867853 C7.70456001,2.31956094 7.31397724,2.04736756 6.8729967,1.8520984 C6.43201616,1.65682924 5.95953701,1.55623604 5.45555925,1.55623604 C4.95158149,1.55623604 4.47910234,1.65682924 4.03182208,1.8520984 C3.58454182,2.04736756 3.20025878,2.31956094 2.87897295,2.66867853 C2.55768713,3.01779612 2.29939853,3.42016894 2.11040687,3.88171423 C1.92141521,4.34325952 1.82691938,4.83439104 1.82691938,5.36102605 C1.82691938,5.87582657 1.92141521,6.36104084 2.11040687,6.81666889 C2.29939853,7.27821417 2.55138741,7.67466974 2.87897295,8.01787009 C3.20025878,8.36107043 3.58454182,8.62734656 4.03182208,8.82853297 C4.47910234,9.02380213 4.95788121,9.12439533 5.45555925,9.12439533 C5.95953701,9.12439533 6.43201616,9.02380213 6.8729967,8.82853297 C7.31397724,8.63326381 7.70456001,8.36107043 8.03844527,8.01787009 C8.37233054,7.67466974 8.63691886,7.27821417 8.83850997,6.81666889 C9.03380135,6.3551236 9.1345969,5.86990932 9.1345969,5.36102605 C9.1345969,4.83439104 9.03380135,4.34325952 8.83850997,3.88171423 Z" id="Shape"></path>
                            <path d="M21.3182593,10.4025207 L21.3182593,8.76936049 C20.9402759,9.2959955 20.4236987,9.73978905 19.7685276,10.1066584 C19.1133566,10.4735277 18.3825888,10.6569624 17.5888238,10.6569624 C16.8076583,10.6569624 16.0831903,10.5208657 15.4280192,10.2427551 C14.7728481,9.96464445 14.1995734,9.58594062 13.7207945,9.10072634 C13.2357159,8.61551206 12.8577326,8.04745632 12.5868446,7.40839362 C12.3159565,6.76341366 12.1773626,6.07701297 12.1773626,5.33735706 C12.1773626,4.59770115 12.3159565,3.91130046 12.5868446,3.26040326 C12.8577326,2.60950606 13.2357159,2.04736756 13.7207945,1.56807053 C14.2058731,1.0887735 14.7728481,0.710069676 15.4280192,0.426041805 C16.0831903,0.142013935 16.8076583,2.84217094e-14 17.5888238,2.84217094e-14 C18.3888885,2.84217094e-14 19.1133566,0.183434666 19.7685276,0.550303999 C20.4236987,0.917173331 20.9402759,1.36096688 21.3182593,1.86985015 L21.3182593,0.254441634 L23.0380834,0.254441634 L23.0380834,10.4025207 L21.3182593,10.4025207 Z M20.9654748,3.90538322 C20.7701834,3.44383793 20.5055951,3.04738236 20.1654101,2.70418201 C19.8315249,2.36098167 19.4409421,2.09470554 18.9999616,1.89351913 C18.558981,1.69233273 18.0865019,1.59765677 17.5825241,1.59765677 C17.0785463,1.59765677 16.6060672,1.69824997 16.1587869,1.89351913 C15.7115067,2.0887883 15.3272236,2.36098167 15.0059378,2.70418201 C14.684652,3.04738236 14.4263634,3.44383793 14.2373717,3.90538322 C14.0483801,4.3669285 13.9538842,4.85214278 13.9538842,5.36102605 C13.9538842,5.86990932 14.0483801,6.3551236 14.2373717,6.79891714 C14.4263634,7.24271069 14.6783523,7.63916626 15.0059378,7.97053211 C15.3272236,8.3078152 15.7115067,8.57409133 16.1587869,8.76936049 C16.6060672,8.96462965 17.0848461,9.06522286 17.5825241,9.06522286 C18.0865019,9.06522286 18.558981,8.96462965 18.9999616,8.76936049 C19.4409421,8.57409133 19.8315249,8.3078152 20.1654101,7.97053211 C20.4992954,7.63324901 20.7638837,7.24271069 20.9654748,6.79891714 C21.1607662,6.3551236 21.2615618,5.86990932 21.2615618,5.36102605 C21.2615618,4.85214278 21.1607662,4.36101126 20.9654748,3.90538322 Z" id="Shape"></path>
                            <path d="M32.1033833,10.4025207 L32.1033833,9.30191275 C31.7379994,9.72203731 31.2907192,10.0534032 30.7615425,10.2841758 C30.2323659,10.5208657 29.6275926,10.6392106 28.959822,10.6392106 C28.304651,10.6392106 27.7124771,10.5327002 27.1958999,10.3255965 C26.6793227,10.1184929 26.2383421,9.82263051 25.8855577,9.43800944 C25.5264735,9.05930561 25.2618852,8.60959482 25.0791933,8.08887705 C24.8965013,7.56815929 24.8083052,6.9941863 24.8083052,6.36695809 L24.8083052,0.260358881 L26.5722274,0.260358881 L26.5722274,6.44979955 C26.5722274,7.26637968 26.7990174,7.91727688 27.2525974,8.40249116 C27.7061774,8.88770544 28.3676482,9.13031258 29.2370098,9.13031258 C29.6275926,9.13031258 29.9929764,9.06522286 30.3394612,8.93504342 C30.6796461,8.80486398 30.9820328,8.62142931 31.2340217,8.38473942 C31.4860106,8.14804953 31.6876017,7.8699389 31.8324953,7.5444903 C31.9773889,7.22495895 32.0529855,6.86992411 32.0529855,6.49122028 L32.0529855,0.260358881 L33.8358069,0.260358881 L33.8358069,10.408438 L32.1033833,10.408438 L32.1033833,10.4025207 Z" id="Shape"></path>
                            <path d="M45.7170826,12.1599432 C45.4524942,12.8285921 45.0745109,13.4025651 44.5831326,13.8818622 C44.0917543,14.3611592 43.5058801,14.7339458 42.8192104,14.9943046 C42.1325407,15.2546635 41.3765741,15.3907602 40.5513105,15.3907602 C39.2661672,15.3907602 38.1637159,15.0889806 37.2502562,14.4913386 C36.3367965,13.8936967 35.7383229,13.0771165 35.4548354,12.035681 L37.3195531,12.035681 C37.5022451,12.4143848 37.7290351,12.7220817 38.0125226,12.9528543 C38.2897103,13.183627 38.592097,13.3552271 38.9070831,13.4735721 C39.2220692,13.591917 39.5244558,13.6688413 39.8205428,13.710262 C40.1166297,13.7516827 40.3560191,13.7694345 40.5576102,13.7694345 C41.2442799,13.7694345 41.8238544,13.6570068 42.308933,13.4262341 C42.7940116,13.1954615 43.1845943,12.8995991 43.4806813,12.538647 C43.7830679,12.1776949 43.9972585,11.7694049 44.1295526,11.3078596 C44.2618468,10.8463143 44.3311437,10.3906863 44.3311437,9.92914096 L44.3311437,8.86403645 C43.940561,9.36108522 43.4239838,9.78712703 42.7877118,10.1362446 C42.1514399,10.4853622 41.4395713,10.6569624 40.6584058,10.6569624 C39.8772403,10.6569624 39.1527722,10.5208657 38.4976011,10.2427551 C37.8424301,9.96464445 37.2691554,9.58594062 36.7903765,9.10072634 C36.3052979,8.61551206 35.9273146,8.04745632 35.6564265,7.40839362 C35.3855385,6.76341366 35.2469446,6.07701297 35.2469446,5.33735706 C35.2469446,4.59770115 35.3855385,3.91130046 35.6564265,3.26040326 C35.9273146,2.60950606 36.3052979,2.04736756 36.7903765,1.56807053 C37.2754551,1.0887735 37.8424301,0.710069676 38.4976011,0.426041805 C39.1527722,0.142013935 39.8772403,2.84217094e-14 40.6584058,2.84217094e-14 C41.4584705,2.84217094e-14 42.1829385,0.183434666 42.8381096,0.550303999 C43.4932807,0.917173331 44.0098579,1.36096688 44.3878412,1.86985015 L44.3878412,0.254441634 L46.1076653,0.254441634 L46.1076653,9.92914096 C46.113965,10.7457211 45.9816709,11.4912942 45.7170826,12.1599432 Z M44.0413565,3.88171423 C43.8460651,3.42016894 43.5814768,3.01779612 43.2412918,2.66867853 C42.9074065,2.31956094 42.5168238,2.04736756 42.0758432,1.8520984 C41.6348627,1.65682924 41.1623836,1.55623604 40.6584058,1.55623604 C40.154428,1.55623604 39.6819489,1.65682924 39.2346686,1.8520984 C38.7873884,2.04736756 38.4031053,2.31956094 38.0818195,2.66867853 C37.7605337,3.01779612 37.5022451,3.42016894 37.3132534,3.88171423 C37.1242618,4.34325952 37.0297659,4.83439104 37.0297659,5.36102605 C37.0297659,5.87582657 37.1242618,6.36104084 37.3132534,6.81666889 C37.5022451,7.27821417 37.754234,7.67466974 38.0818195,8.01787009 C38.4031053,8.36107043 38.7873884,8.62734656 39.2346686,8.82853297 C39.6819489,9.02380213 40.1607278,9.12439533 40.6584058,9.12439533 C41.1623836,9.12439533 41.6348627,9.02380213 42.0758432,8.82853297 C42.5168238,8.63326381 42.9074065,8.36107043 43.2412918,8.01787009 C43.5751771,7.67466974 43.8397654,7.27821417 44.0413565,6.81666889 C44.2366479,6.3551236 44.3374434,5.86990932 44.3374434,5.36102605 C44.3311437,4.83439104 44.2366479,4.34325952 44.0413565,3.88171423 Z" id="Shape"></path>
                            <path d="M56.1242233,9.76345804 C55.2422622,10.3492655 54.1713095,10.6392106 52.9176648,10.6392106 C52.1364993,10.6392106 51.4057315,10.503114 50.737961,10.2250033 C50.0638907,9.94689271 49.4843163,9.57410613 48.9866383,9.10072634 C48.4889602,8.62734656 48.0983775,8.07112531 47.81489,7.42614536 C47.5251028,6.7811654 47.3865089,6.08884747 47.3865089,5.33735706 C47.3865089,4.6036184 47.5314025,3.91130046 47.81489,3.26040326 C48.0983775,2.60950606 48.4889602,2.04736756 48.9803386,1.56807053 C49.4717169,1.0887735 50.0449916,0.710069676 50.7001627,0.426041805 C51.3553338,0.142013935 52.0609026,0 52.8168693,0 C53.5161384,0 54.1965084,0.130179441 54.8516795,0.396455569 C55.5068505,0.662731697 56.0927247,1.04143552 56.6030022,1.5384843 C57.1132797,2.03553307 57.5164619,2.63909229 57.8188485,3.34916197 C58.1212352,4.05923165 58.2724285,4.86397728 58.2724285,5.77523336 L49.1882294,5.77523336 C49.2449269,6.30186837 49.3898205,6.76933091 49.6166105,7.18353822 C49.8434005,7.59774553 50.1331877,7.94686312 50.4796724,8.23680824 C50.8198574,8.52675335 51.2041404,8.7456915 51.6199221,8.89953993 C52.0420034,9.05338836 52.4703845,9.12439533 52.9176648,9.12439533 C53.6862309,9.12439533 54.341402,8.95871241 54.8768783,8.63326381 C55.4123547,8.3078152 55.8344361,7.84626992 56.1242233,7.25454519 L58.0141399,7.25454519 C57.6298569,8.34331869 57.0061844,9.17765056 56.1242233,9.76345804 Z M55.7777386,3.15389281 C55.5446489,2.81069247 55.2800606,2.52074735 54.9713742,2.27814021 C54.6626878,2.03553307 54.3225028,1.84618116 53.9508192,1.71600172 C53.5791356,1.58582228 53.2011523,1.52073256 52.8105695,1.52073256 C52.4325862,1.52073256 52.0609026,1.58582228 51.689219,1.71008447 C51.3175354,1.83434666 50.9773504,2.01778133 50.6623643,2.25447122 C50.3473782,2.49116111 50.0701905,2.78110623 49.8245013,3.12430657 C49.5788121,3.46750692 49.4024199,3.85212799 49.2890249,4.28408704 L56.2943158,4.28408704 C56.1809208,3.86987973 56.0045286,3.49709315 55.7777386,3.15389281 Z" id="Shape"></path>
                        </g>
                        <g id="Group" fill-rule="nonzero">
                            <path d="M16.1534518,16.9288085 L1.82642706,16.9288085 C0.834215819,16.9288085 0.0379189008,16.1717808 0.0379189008,15.2418885 L0.0379189008,9.32872722 C0.0379189008,8.39287408 0.840535635,7.64180722 1.82642706,7.64180722 C2.81231848,7.64180722 3.61493521,8.39883493 3.61493521,9.32872722 L3.61493521,13.5549685 L11.8306971,13.5549685 L0.556143879,2.9148547 C-0.145355787,2.25320057 -0.145355787,1.18620877 0.556143879,0.52455463 C1.25764354,-0.137099506 2.38889075,-0.137099506 3.09039042,0.52455463 L17.4237349,14.043758 C17.9356401,14.5265867 18.0873157,15.2538102 17.8092438,15.8856601 C17.5311718,16.51751 16.8802307,16.9288085 16.1534518,16.9288085 Z" id="Shape"></path>
                            <path d="M16.1534518,8.4822868 C15.6921051,8.4822868 15.2370783,8.31538305 14.8894884,7.98753641 L9.51764411,2.92081555 C8.81614445,2.25916142 8.81614445,1.19216961 9.51764411,0.530515478 C10.2191438,-0.131138657 11.350391,-0.131138657 12.0518907,0.530515478 L17.4237349,5.59723633 C18.1252346,6.25889047 18.1252346,7.32588227 17.4237349,7.98753641 C17.0698252,8.31538305 16.6147984,8.4822868 16.1534518,8.4822868 Z" id="Shape"></path>
                        </g>
                    </g>
                </g>
            </g>
        </g>
    </g>
</svg>