<svg id="Layer_1" data-name="Layer 1" xmlns="http://www.w3.org/2000/svg" viewBox="0 0 28 28"><defs><style>.cls-1{fill:#fff;}</style></defs><title>github</title><g id="Page-1"><g id="taiko_code-box-and-note-styling" data-name="taiko code-box-and-note-styling"><g id="GITHUB"><path id="_" data-name="" class="cls-1" d="M13.71.86a13.72,13.72,0,0,1,4.34,26.73c-.7.13-.95-.3-.95-.66s0-1.93,0-3.77a3.23,3.23,0,0,0-.93-2.54c3.05-.34,6.27-1.5,6.27-6.77a5.31,5.31,0,0,0-1.41-3.68,5,5,0,0,0-.14-3.64c-1.14-.36-3.77,1.41-3.77,1.41a12.89,12.89,0,0,0-6.86,0S7.66,6.18,6.52,6.54a5,5,0,0,0-.14,3.64A5.31,5.31,0,0,0,5,13.86c0,5.25,3.2,6.43,6.25,6.77a3,3,0,0,0-.88,1.84,2.89,2.89,0,0,1-4-1.14,2.88,2.88,0,0,0-2.11-1.41c-1.34,0-.09.84-.09.84.89.41,1.52,2,1.52,2,.8,2.45,4.63,1.63,4.63,1.63,0,1.14,0,2.21,0,2.55s-.25.79-.95.66A13.72,13.72,0,0,1,13.71.86ZM5.2,20.55a.16.16,0,0,1-.23,0c-.11-.05-.16-.14-.12-.21s.13-.07.23,0S5.23,20.48,5.2,20.55Zm.55.61c-.07.07-.2,0-.29-.05s-.11-.23,0-.29.2,0,.29.05S5.82,21.11,5.75,21.16Zm.54.8c-.07.05-.21,0-.3-.12s-.09-.27,0-.32a.22.22,0,0,1,.3.11A.25.25,0,0,1,6.29,22Zm.75.75c-.07.09-.23.07-.36-.05s-.16-.27-.07-.34.23-.07.36.05S7.11,22.64,7,22.71Zm1,.45a.26.26,0,0,1-.34.11c-.16,0-.27-.16-.23-.27a.28.28,0,0,1,.34-.12C8,22.93,8.09,23.05,8.05,23.16Zm1.13.09c0,.11-.12.2-.29.2s-.3-.07-.3-.2.13-.2.29-.2S9.18,23.12,9.18,23.25Zm1-.18c0,.11-.09.21-.25.25s-.3,0-.32-.14.09-.23.25-.27S10.2,23,10.21,23.07Z"/></g></g></g></svg>