<?xml version="1.0" encoding="utf-8"?>
<!-- Generator: Adobe Illustrator 24.0.3, SVG Export Plug-In . SVG Version: 6.00 Build 0)  -->
<svg version="1.1" id="Layer_1" xmlns="http://www.w3.org/2000/svg" xmlns:xlink="http://www.w3.org/1999/xlink" x="0px" y="0px"
	 viewBox="0 0 28 28" style="enable-background:new 0 0 28 28;" xml:space="preserve">
<style type="text/css">
	.st0{fill:#2BD3EF;}
</style>
<title>github</title>
<g id="Page-1">
	<g id="taiko_code-box-and-note-styling">
		<g id="GITHUB">
			<path id="_" class="st0" d="M13.7,0.9c7.6,0,13.7,6.2,13.7,13.7c0,5.9-3.8,11.1-9.4,13c-0.7,0.1-1-0.3-1-0.7s0-1.9,0-3.8
				c0.1-0.9-0.3-1.9-0.9-2.5c3-0.3,6.3-1.5,6.3-6.8c0-1.4-0.5-2.7-1.4-3.7c0.4-1.2,0.4-2.5-0.1-3.6c-1.1-0.4-3.8,1.4-3.8,1.4
				c-2.2-0.6-4.6-0.6-6.9,0c0,0-2.6-1.8-3.7-1.4C6,7.7,6,9,6.4,10.2c-0.9,1-1.4,2.3-1.4,3.7c0,5.3,3.2,6.4,6.2,6.8
				c-0.5,0.5-0.8,1.1-0.9,1.8c-1.4,0.8-3.1,0.3-3.9-1c0,0,0-0.1-0.1-0.1c-0.4-0.8-1.2-1.3-2.1-1.4c-1.3,0-0.1,0.8-0.1,0.8
				c0.9,0.4,1.5,2,1.5,2c0.8,2.5,4.6,1.6,4.6,1.6c0,1.1,0,2.2,0,2.5s-0.2,0.8-0.9,0.7C2.2,25.2-1.7,17.4,0.7,10.3
				C2.5,4.6,7.8,0.9,13.7,0.9z M5.2,20.5c-0.1,0.1-0.2,0.1-0.2,0c0,0,0,0,0,0c-0.1,0-0.2-0.1-0.1-0.2s0.1-0.1,0.2,0
				S5.2,20.5,5.2,20.5z M5.8,21.2c-0.1,0.1-0.2,0-0.3,0s-0.1-0.2,0-0.3s0.2,0,0.3,0S5.8,21.1,5.8,21.2z M6.3,22
				c-0.1,0-0.2,0-0.3-0.1s-0.1-0.3,0-0.3c0.1-0.1,0.2,0,0.3,0.1c0,0,0,0,0,0C6.4,21.7,6.4,21.9,6.3,22C6.3,22,6.3,22,6.3,22L6.3,22z
				 M7,22.7c-0.1,0.1-0.2,0.1-0.4,0s-0.2-0.3-0.1-0.3s0.2-0.1,0.4,0S7.1,22.6,7,22.7L7,22.7z M8,23.2c-0.1,0.1-0.2,0.2-0.3,0.1
				c-0.2,0-0.3-0.2-0.2-0.3c0.1-0.1,0.2-0.2,0.3-0.1C8,22.9,8.1,23,8,23.2L8,23.2z M9.2,23.2c0,0.1-0.1,0.2-0.3,0.2
				s-0.3-0.1-0.3-0.2S8.7,23,8.9,23S9.2,23.1,9.2,23.2L9.2,23.2z M10.2,23.1c0,0.1-0.1,0.2-0.2,0.2s-0.3,0-0.3-0.1s0.1-0.2,0.2-0.3
				S10.2,23,10.2,23.1L10.2,23.1z"/>
		</g>
	</g>
</g>
</svg>
