<?xml version="1.0" encoding="utf-8"?>
<!-- Generator: Adobe Illustrator 24.0.1, SVG Export Plug-In . SVG Version: 6.00 Build 0)  -->
<svg version="1.1" id="Layer_1" xmlns="http://www.w3.org/2000/svg" xmlns:xlink="http://www.w3.org/1999/xlink" x="0px" y="0px"
	 viewBox="0 0 150 40" style="enable-background:new 0 0 150 40;" xml:space="preserve">
<style type="text/css">
	.st0{fill:#FFFFFF;}
</style>
<g>
	<path class="st0" d="M24.4,9.2h-8.2v27.9H9.4V9.2H1.2V2.9h23.2L24.4,9.2z"/>
	<path class="st0" d="M35.7,29.2l-2.9,8h-7.2L38.4,2.9h8.1l12.8,34.2H52l-2.8-8H35.7z M42.4,10.2l-4.5,12.6h9L42.4,10.2z"/>
	<path class="st0" d="M72.3,37.1h-6.8V2.9h6.8V37.1z"/>
	<path class="st0" d="M109.8,37.1h-8.1l-9.7-14.7L89,25.5v11.6h-6.8V2.9H89v13.3l12.4-13.3h8.7L96.6,17.4L109.8,37.1z"/>
	<path class="st0" d="M148.8,20c0,9.7-8.2,17.9-18,17.9c-10,0-18.1-8-18.1-18c0-0.1,0-0.1,0-0.2c0-9.5,8.3-17.7,18.1-17.7
		C140.6,2.1,148.8,10.2,148.8,20z M119.6,20.2c0,6.2,5.1,11.3,11.1,11.3c6.1,0,11.1-5.2,11.1-11.5c0-6.5-5-11.5-11.2-11.5
		C124.5,8.5,119.6,13.7,119.6,20.2z"/>
</g>
</svg>
