<?xml version="1.0" standalone="no"?>
<!DOCTYPE svg PUBLIC "-//W3C//DTD SVG 1.1//EN" "http://www.w3.org/Graphics/SVG/1.1/DTD/svg11.dtd" >
<svg>
<metadata>
Created by FontForge 20090622 at Wed May 30 10:05:40 2018
 By deploy user
Copyright 2010, 2012 Adobe Systems Incorporated (http://www.adobe.com/), with Reserved Font Name &#226;&#128;&#152;Source&#226;&#128;&#153;.
</metadata>
<defs>
<font id="SourceCodePro-Bold" horiz-adv-x="600" >
  <font-face 
    font-family="Source Code Pro"
    font-weight="700"
    font-stretch="normal"
    units-per-em="1000"
    panose-1="2 11 7 9 3 4 3 2 2 4"
    ascent="750"
    descent="-250"
    x-height="496"
    cap-height="652"
    bbox="-208 -400 808 1060"
    underline-thickness="50"
    underline-position="-50"
    unicode-range="U+0020-U+1F916"
  />
<missing-glyph 
d="M35 0v660h530v-660h-530zM218 91h164l-39 77l-41 98h-4l-41 -98zM134 155l94 185l-94 186v-371zM298 414h4l42 95l32 59h-152l31 -59zM372 340l94 -185v371z" />
    <glyph glyph-name=".notdef" 
d="M35 0v660h530v-660h-530zM218 91h164l-39 77l-41 98h-4l-41 -98zM134 155l94 185l-94 186v-371zM298 414h4l42 95l32 59h-152l31 -59zM372 340l94 -185v371z" />
    <glyph glyph-name=".null" horiz-adv-x="0" 
 />
    <glyph glyph-name="nonmarkingreturn" 
 />
    <glyph glyph-name="space" unicode=" " 
 />
    <glyph glyph-name="exclam" unicode="!" 
d="M252 255l-20 282l-5 133h146l-5 -133l-20 -282h-96zM300 -12q-43 0 -71.5 28.5t-28.5 73.5q0 44 28.5 72t71.5 28t71.5 -28t28.5 -72q0 -45 -28.5 -73.5t-71.5 -28.5z" />
    <glyph glyph-name="quotedbl" unicode="&#x22;" 
d="M122 303l-35 237l-5 145h170l-5 -145l-35 -237h-90zM388 303l-35 237l-5 145h170l-5 -145l-35 -237h-90z" />
    <glyph glyph-name="numbersign" unicode="#" 
d="M311 0l23 187h-104l-23 -187h-85l23 187h-75v94h87l13 110h-80v94h92l20 165h84l-20 -165h105l20 165h84l-20 -165h79v-94h-90l-14 -110h84v-94h-95l-23 -187h-85zM346 281l13 110h-104l-14 -110h105z" />
    <glyph glyph-name="dollar" unicode="$" 
d="M64 115l64 100q100 -62 181 -62q74 0 74 45q0 23 -30 40.5t-73 32.5t-86 35t-73 57t-30 88q0 64 44 107.5t120 55.5v131h98v-130q92 -12 160 -82l-73 -84q-71 50 -139 50q-69 0 -69 -46q0 -19 30 -34.5t73 -30.5t85.5 -34.5t72.5 -56.5t30 -88q0 -64 -44 -110t-126 -60
v-149h-98v146q-51 5 -103 26t-88 53z" />
    <glyph glyph-name="percent" unicode="%" 
d="M173 312q-65 0 -106.5 46.5t-41.5 122.5q0 77 41.5 122t106.5 45t106.5 -45t41.5 -122q0 -76 -41.5 -122.5t-106.5 -46.5zM173 391q48 0 48 90q0 88 -48 88t-48 -88q0 -90 48 -90zM93 28l-75 73l186 173l51 -47zM398 377l-51 48l162 199l75 -73zM427 -12
q-65 0 -106.5 46.5t-41.5 122.5q0 77 41.5 122t106.5 45t106.5 -45t41.5 -122q0 -76 -41.5 -122.5t-106.5 -46.5zM427 67q48 0 48 90q0 88 -48 88t-48 -88q0 -90 48 -90z" />
    <glyph glyph-name="ampersand" unicode="&#x26;" 
d="M232 -12q-98 0 -153.5 53.5t-55.5 132.5q0 102 105 179q-42 79 -42 140q0 72 44.5 121.5t116.5 49.5q73 0 115 -40t42 -108q0 -39 -20.5 -75t-42 -56t-61.5 -51q44 -57 117 -116q38 66 55 150h134q-31 -123 -91 -220q51 -32 91 -41l-35 -119q-67 16 -138 63
q-79 -63 -181 -63zM207 494q0 -34 19 -75q65 47 65 97q0 51 -41 51q-19 0 -31 -20t-12 -53zM251 100q32 0 64 23q-74 64 -124 133q-29 -35 -29 -73q0 -37 24.5 -60t64.5 -23z" />
    <glyph glyph-name="quotesingle" unicode="'" 
d="M255 303l-35 237l-5 145h170l-5 -145l-35 -237h-90z" />
    <glyph glyph-name="parenleft" unicode="(" 
d="M392 -179q-211 187 -211 457t211 457l82 -65q-89 -87 -129.5 -180t-40.5 -212t40.5 -212t129.5 -180z" />
    <glyph glyph-name="parenright" unicode=")" 
d="M208 -179l-82 65q89 87 129.5 180t40.5 212t-40.5 212t-129.5 180l82 65q211 -187 211 -457t-211 -457z" />
    <glyph glyph-name="asterisk" unicode="*" 
d="M184 91l-64 44l97 157l-153 68l23 71l162 -43l12 178h78l12 -178l162 43l23 -71l-153 -68l97 -157l-64 -44l-116 142z" />
    <glyph glyph-name="plus" unicode="+" 
d="M246 94v184h-176v104h176v184h108v-184h176v-104h-176v-184h-108z" />
    <glyph glyph-name="comma" unicode="," 
d="M219 -217l-37 86q133 46 130 142q-4 -1 -11 -1q-45 0 -76.5 27.5t-31.5 74.5q0 46 32.5 74.5t79.5 28.5q61 0 92.5 -45t31.5 -127q0 -96 -53.5 -162.5t-156.5 -97.5z" />
    <glyph glyph-name="hyphen" unicode="-" 
d="M70 278v104h460v-104h-460z" />
    <glyph glyph-name="period" unicode="." 
d="M300 -12q-51 0 -83.5 33.5t-32.5 83.5t32.5 84t83.5 34t83.5 -34t32.5 -84t-32.5 -83.5t-83.5 -33.5z" />
    <glyph glyph-name="slash" unicode="/" 
d="M74 -160l329 870h123l-329 -870h-123z" />
    <glyph glyph-name="zero" unicode="0" 
d="M300 -12q-112 0 -178 86.5t-66 245.5t65.5 243t178.5 84t178.5 -84t65.5 -243t-66 -245.5t-178 -86.5zM300 102q113 0 113 218q0 213 -113 213t-113 -213q0 -218 113 -218zM300 246q-32 0 -53.5 21t-21.5 55t21.5 55t53.5 21t53.5 -21t21.5 -55t-21.5 -55t-53.5 -21z" />
    <glyph glyph-name="one" unicode="1" 
d="M82 0v119h163v367h-132v91q101 18 171 58h108v-516h144v-119h-454z" />
    <glyph glyph-name="two" unicode="2" 
d="M58 0v84l126.5 108.5t91.5 88.5t66 85t20 70q0 46 -27 71t-77 25q-59 0 -128 -65l-79 79q52 52 104 76.5t123 24.5q100 0 162 -55.5t62 -146.5q0 -73 -62 -153t-171 -176q72 8 115 8h151v-124h-477z" />
    <glyph glyph-name="three" unicode="3" 
d="M279 -12q-155 0 -237 90l68 93q73 -64 155 -64q53 0 86 20t33 55q0 45 -43 68t-149 23v104q171 0 171 85q0 33 -25 51.5t-69 18.5q-65 0 -135 -56l-74 90q100 81 216 81q106 0 170 -46t64 -128q0 -95 -121 -141v-4q64 -17 103 -56.5t39 -98.5q0 -85 -73.5 -135
t-178.5 -50z" />
    <glyph glyph-name="four" unicode="4" 
d="M341 0v152h-306v101l265 382h178v-371h80v-112h-80v-152h-137zM177 264h164v107q0 39 5 139h-4q-11 -20 -35.5 -56.5t-33.5 -51.5z" />
    <glyph glyph-name="five" unicode="5" 
d="M283 -12q-144 0 -237 89l66 93q76 -63 150 -63q56 0 89.5 25.5t33.5 73.5q0 47 -32 72.5t-84 25.5q-50 0 -107 -32l-65 42l17 321h389v-124h-262l-11 -119q40 15 84 15q94 0 156 -50.5t62 -146.5q0 -102 -73 -162t-176 -60z" />
    <glyph glyph-name="six" unicode="6" 
d="M317 -12q-50 0 -95 18.5t-82 55t-58.5 98.5t-21.5 143q0 167 80 255.5t194 88.5q122 0 202 -76l-77 -88q-51 45 -112 45q-64 0 -105.5 -47.5t-45.5 -152.5q71 69 153 69q88 0 142 -50t54 -146t-66.5 -154.5t-161.5 -58.5zM314 98q41 0 69 26t28 77q0 92 -94 92
q-63 0 -117 -62q20 -133 114 -133z" />
    <glyph glyph-name="seven" unicode="7" 
d="M193 0q9 163 49.5 275.5t138.5 235.5h-319v124h477v-90q-60 -67 -97 -124t-58 -123.5t-29.5 -131t-13.5 -166.5h-148z" />
    <glyph glyph-name="eight" unicode="8" 
d="M299 -12q-109 0 -173.5 48t-64.5 126q0 98 120 156v4q-93 65 -93 150q0 80 60 127.5t156 47.5q95 0 151.5 -47.5t56.5 -126.5q0 -81 -91 -139v-4q119 -59 119 -166q0 -77 -64 -126.5t-177 -49.5zM343 370q48 44 48 93q0 37 -23.5 59.5t-66.5 22.5q-37 0 -60.5 -19
t-23.5 -54q0 -36 31 -58.5t95 -43.5zM303 90q46 0 73 20t27 59q0 37 -31 57.5t-105 47.5q-11 4 -17 6q-62 -45 -62 -101q0 -41 32.5 -65t82.5 -24z" />
    <glyph glyph-name="nine" unicode="9" 
d="M282 342q67 0 117 63q-11 70 -42 101t-73 31q-41 0 -69 -26t-28 -77q0 -92 95 -92zM265 -12q-119 0 -203 76l78 88q49 -45 112 -45q64 0 105.5 48t45.5 153q-34 -33 -75.5 -51.5t-77.5 -18.5q-88 0 -142.5 50t-54.5 146t66.5 154.5t161.5 58.5q108 0 182.5 -79t74.5 -236
q0 -168 -79.5 -256t-193.5 -88z" />
    <glyph glyph-name="colon" unicode=":" 
d="M300 311q-51 0 -83.5 33.5t-32.5 83.5t32.5 84t83.5 34t83.5 -34t32.5 -84t-32.5 -83.5t-83.5 -33.5zM300 -12q-51 0 -83.5 33.5t-32.5 83.5t32.5 84t83.5 34t83.5 -34t32.5 -84t-32.5 -83.5t-83.5 -33.5z" />
    <glyph glyph-name="semicolon" unicode=";" 
d="M300 311q-51 0 -83.5 33.5t-32.5 83.5t32.5 84t83.5 34t83.5 -34t32.5 -84t-32.5 -83.5t-83.5 -33.5zM219 -217l-37 86q133 46 130 142q-4 -1 -11 -1q-45 0 -76.5 27.5t-31.5 74.5q0 46 32.5 74.5t79.5 28.5q61 0 92.5 -45t31.5 -127q0 -96 -53.5 -162.5t-156.5 -97.5z
" />
    <glyph glyph-name="less" unicode="&#x3c;" 
d="M502 31l-386 250v102l386 250v-133l-265 -166v-4l265 -166v-133z" />
    <glyph glyph-name="equal" unicode="=" 
d="M70 394v104h460v-104h-460zM70 162v104h460v-104h-460z" />
    <glyph glyph-name="greater" unicode="&#x3e;" 
d="M98 31v133l265 166v4l-265 166v133l386 -250v-102z" />
    <glyph glyph-name="question" unicode="?" 
d="M218 255q-6 37 6 69t33.5 54.5t43.5 41.5t38.5 39.5t16.5 40.5q0 30 -20.5 46.5t-53.5 16.5q-51 0 -102 -46l-82 75q82 90 194 90q91 0 148 -42t57 -121q0 -36 -16.5 -66t-40 -51l-46.5 -41.5t-37 -47t-11 -58.5h-128zM286 -12q-43 0 -71.5 28.5t-28.5 73.5q0 44 28.5 72
t71.5 28t71.5 -28t28.5 -72q0 -45 -28.5 -73.5t-71.5 -28.5z" />
    <glyph glyph-name="at" unicode="@" 
d="M339 -147q-129 0 -218.5 103.5t-89.5 296.5t84.5 292t215.5 99q109 0 164 -67.5t55 -177.5v-299h-78l-11 51h-4q-43 -63 -120 -63q-54 0 -90.5 40.5t-36.5 99.5q0 77 63.5 117t185.5 55v16q0 59 -34 99.5t-97 40.5q-80 0 -138 -77t-58 -230q0 -148 62 -227.5t150 -79.5
q69 0 133 38l42 -73q-92 -54 -180 -54zM370 184q38 0 74 36v92q-70 -11 -98.5 -29t-28.5 -51q0 -22 14 -35t39 -13z" />
    <glyph glyph-name="A" unicode="A" 
d="M244 330l-15 -60h137l-15 60q-38 144 -52 210h-4q-31 -132 -51 -210zM9 0l203 652h176l203 -652h-156l-39 155h-197l-40 -155h-150z" />
    <glyph glyph-name="B" unicode="B" 
d="M74 0v652h219q239 0 239 -162q0 -47 -28.5 -87t-83.5 -54v-4q142 -26 142 -153q0 -95 -69 -143.5t-181 -48.5h-238zM221 390h65q102 0 102 80q0 36 -24.5 51.5t-76.5 15.5h-66v-147zM221 115h79q118 0 118 88q0 42 -28.5 61.5t-89.5 19.5h-79v-169z" />
    <glyph glyph-name="C" unicode="C" 
d="M356 -12q-128 0 -215 88.5t-87 245.5q0 158 88 250t223 92q110 0 195 -83l-81 -91q-52 47 -114 47q-70 0 -115 -57t-45 -153q0 -99 45.5 -155.5t120.5 -56.5q65 0 118 58l81 -89q-81 -96 -214 -96z" />
    <glyph glyph-name="D" unicode="D" 
d="M70 0v652h180q148 0 231 -80t83 -243t-82 -246t-223 -83h-189zM218 119h24q171 0 171 210q0 111 -44.5 157.5t-126.5 46.5h-24v-414z" />
    <glyph glyph-name="E" unicode="E" 
d="M92 0v652h432v-124h-284v-131h241v-123h-241v-150h294v-124h-442z" />
    <glyph glyph-name="F" unicode="F" 
d="M105 0v652h433v-124h-286v-151h244v-124h-244v-253h-147z" />
    <glyph glyph-name="G" unicode="G" 
d="M343 -12q-131 0 -215 87.5t-84 246.5t85 250.5t216 91.5q108 0 191 -83l-81 -91q-47 47 -110 47q-65 0 -107 -57t-42 -153q0 -102 39.5 -157t115.5 -55q42 0 64 20v112h-95v120h227v-300q-36 -33 -90.5 -56t-113.5 -23z" />
    <glyph glyph-name="H" unicode="H" 
d="M64 0v652h147v-251h178v251h147v-652h-147v272h-178v-272h-147z" />
    <glyph glyph-name="I" unicode="I" 
d="M74 0v124h152v404h-152v124h452v-124h-152v-404h152v-124h-452z" />
    <glyph glyph-name="J" unicode="J" 
d="M273 -12q-137 0 -214 108l85 91q57 -72 124 -72q52 0 76.5 27t24.5 92v295h-255v123h402v-430q0 -105 -58 -169.5t-185 -64.5z" />
    <glyph glyph-name="K" unicode="K" 
d="M68 0v652h149v-267h3l193 267h163l-196 -259l214 -393h-163l-139 277l-75 -99v-178h-149z" />
    <glyph glyph-name="L" unicode="L" 
d="M107 0v652h147v-528h290v-124h-437z" />
    <glyph glyph-name="M" unicode="M" 
d="M58 0v652h154l64 -231l22 -90h4l22 90l64 231h154v-652h-124v202q0 80 19 302h-3l-50 -174l-50 -157h-72l-51 157l-47 174h-3q19 -190 19 -302v-202h-122z" />
    <glyph glyph-name="N" unicode="N" 
d="M66 0v652h151l137 -324l56 -144h4q-1 15 -7.5 69t-10 93.5t-3.5 74.5v231h141v-652h-151l-137 325l-56 142h-4q2 -20 8 -71t9.5 -91t3.5 -74v-231h-141z" />
    <glyph glyph-name="O" unicode="O" 
d="M300 -12q-119 0 -190.5 89t-71.5 252q0 160 71.5 247.5t190.5 87.5t190.5 -87.5t71.5 -247.5q0 -163 -71.5 -252t-190.5 -89zM300 115q52 0 81.5 55t29.5 159q0 100 -29.5 154t-81.5 54t-81.5 -54t-29.5 -154q0 -104 29.5 -159t81.5 -55z" />
    <glyph glyph-name="P" unicode="P" 
d="M75 0v652h231q116 0 185.5 -49.5t69.5 -160.5q0 -109 -72 -165t-183 -56h-84v-221h-147zM222 338h75q120 0 120 104q0 50 -30 71.5t-90 21.5h-75v-197z" />
    <glyph glyph-name="Q" unicode="Q" 
d="M300 108q52 0 81.5 55.5t29.5 165.5q0 100 -29.5 154t-81.5 54t-81.5 -54t-29.5 -154q0 -110 29.5 -165.5t81.5 -55.5zM487 -178q-92 0 -158 47t-97 127q-90 24 -141.5 109.5t-51.5 223.5q0 160 71 247.5t190 87.5t190 -87.5t71 -247.5q0 -132 -46.5 -215.5
t-129.5 -111.5q32 -62 120 -62q28 0 52 13l26 -110q-39 -21 -96 -21z" />
    <glyph glyph-name="R" unicode="R" 
d="M70 0v652h231q252 0 252 -203q0 -136 -116 -188l147 -261h-165l-125 235h-77v-235h-147zM217 352h72q119 0 119 97q0 47 -29 66.5t-90 19.5h-72v-183z" />
    <glyph glyph-name="S" unicode="S" 
d="M298 -12q-142 0 -248 94l85 101q83 -68 173 -68q46 0 69 15.5t23 41.5q0 29 -19.5 43.5t-66.5 34.5l-15 6l-84 36q-61 23 -100 67.5t-39 110.5q0 82 67.5 138t171.5 56q126 0 217 -86l-75 -93q-71 52 -150 52q-37 0 -59.5 -15.5t-22.5 -43.5q0 -14 6.5 -24.5t25 -20.5
t31 -15l44.5 -17l79 -34q140 -52 140 -177q0 -85 -68 -143.5t-185 -58.5z" />
    <glyph glyph-name="T" unicode="T" 
d="M226 0v528h-195v124h538v-124h-195v-528h-148z" />
    <glyph glyph-name="U" unicode="U" 
d="M302 -12q-118 0 -178 67.5t-60 195.5v401h147v-416q0 -121 91 -121q92 0 92 121v416h142v-401q0 -128 -58.5 -195.5t-175.5 -67.5z" />
    <glyph glyph-name="V" unicode="V" 
d="M212 0l-197 652h156l78 -304q11 -39 27.5 -109t24.5 -100h4q11 39 28 108l25 101l77 304h150l-196 -652h-177z" />
    <glyph glyph-name="W" unicode="W" 
d="M91 0l-87 652h153l20 -347q0 -20 1 -75.5t2 -88.5h4q3 17 32 164l44 182h94l41 -182q26 -126 32 -164h4q2 102 4 164l18 347h143l-80 -652h-158l-38 202q-16 81 -18 124h-3q-8 -78 -17 -124l-38 -202h-153z" />
    <glyph glyph-name="X" unicode="X" 
d="M18 0l190 335l-179 317h165l63 -123l50 -105h4q26 65 44 105l58 123h158l-179 -324l190 -328h-164l-71 133q-26 48 -52 107h-4q-13 -33 -48 -107l-68 -133h-157z" />
    <glyph glyph-name="Y" unicode="Y" 
d="M226 0v220l-210 432h158l66 -157l59 -149h4l61 149l66 157h154l-210 -432v-220h-148z" />
    <glyph glyph-name="Z" unicode="Z" 
d="M56 0v89l305 440h-276v123h458v-89l-305 -439h309v-124h-491z" />
    <glyph glyph-name="bracketleft" unicode="[" 
d="M200 -152v860h296v-78h-184v-704h184v-78h-296z" />
    <glyph glyph-name="backslash" unicode="\" 
d="M403 -160l-329 870h123l329 -870h-123z" />
    <glyph glyph-name="bracketright" unicode="]" 
d="M104 -152v78h184v704h-184v78h296v-860h-296z" />
    <glyph glyph-name="asciicircum" unicode="^" 
d="M86 274l155 396h118l155 -396h-121l-46 128l-45 135h-4l-45 -135l-46 -128h-121z" />
    <glyph glyph-name="underscore" unicode="_" 
d="M60 -164v110h480v-110h-480z" />
    <glyph glyph-name="grave" unicode="`" 
d="M306 561l-181 156l100 98l153 -182z" />
    <glyph glyph-name="a" unicode="a" 
d="M224 -12q-73 0 -118 43t-45 107q0 84 76.5 127.5t250.5 53.5q-8 72 -106 72q-59 0 -151 -46l-52 96q117 67 232 67q107 0 165.5 -56t58.5 -168v-284h-120l-11 56h-4q-89 -68 -176 -68zM271 102q56 0 117 47v82q-103 -6 -144.5 -26.5t-41.5 -55.5q0 -47 69 -47z" />
    <glyph glyph-name="b" unicode="b" 
d="M338 -12q-72 0 -135 66h-4l-12 -54h-115v701h147v-172l-5 -78h3q59 57 136 57q92 0 146 -68t54 -183q0 -123 -63.5 -196t-151.5 -73zM305 108q43 0 70 36.5t27 109.5q0 134 -91 134q-47 0 -92 -46v-201q39 -33 86 -33z" />
    <glyph glyph-name="c" unicode="c" 
d="M343 -12q-121 0 -198.5 69.5t-77.5 190.5q0 119 83.5 189.5t203.5 70.5q114 0 186 -67l-68 -91q-55 39 -110 39q-64 0 -104 -38.5t-40 -102.5t38.5 -102.5t100.5 -38.5q63 0 131 47l59 -93q-88 -73 -204 -73z" />
    <glyph glyph-name="d" unicode="d" 
d="M256 -12q-95 0 -152 69.5t-57 190.5q0 117 63.5 188.5t148.5 71.5q74 0 125 -53h4l-7 77v169h147v-701h-120l-11 51h-3q-65 -63 -138 -63zM294 108q51 0 87 46v201q-37 33 -83 33q-43 0 -71.5 -35.5t-28.5 -102.5q0 -142 96 -142z" />
    <glyph glyph-name="e" unicode="e" 
d="M330 -12q-120 0 -197.5 69.5t-77.5 190.5q0 117 76.5 188.5t181.5 71.5q111 0 172.5 -66.5t61.5 -171.5q0 -24 -7 -66h-338q20 -104 148 -104q61 0 128 35l49 -89q-92 -58 -197 -58zM318 396q-92 0 -114 -93h212q-11 93 -98 93z" />
    <glyph glyph-name="f" unicode="f" 
d="M213 0v381h-131v109l131 6v13q0 91 55.5 147.5t166.5 56.5q69 0 150 -27l-28 -108q-49 19 -104 19q-93 0 -93 -87v-14h171v-115h-171v-381h-147z" />
    <glyph glyph-name="g" unicode="g" 
d="M277 -211q-102 0 -163.5 31.5t-61.5 95.5q0 61 77 99v4q-50 30 -50 85q0 24 16 49.5t43 43.5v4q-65 43 -65 127q0 85 61.5 132.5t150.5 47.5q46 0 82 -12h201v-108h-100q22 -30 22 -65q0 -82 -57 -124t-148 -42q-32 0 -68 10q-22 -16 -22 -37q0 -37 84 -37h92
q201 0 201 -125q0 -79 -81 -129t-214 -50zM285 246q32 0 53.5 21.5t21.5 60.5q0 38 -21.5 59.5t-53.5 21.5t-53 -21.5t-21 -59.5q0 -39 21 -60.5t53 -21.5zM298 -118q59 0 96.5 17t37.5 43q0 23 -20.5 30.5t-66.5 7.5h-62q-51 0 -76 7q-35 -22 -35 -49q0 -56 126 -56z" />
    <glyph glyph-name="h" unicode="h" 
d="M72 0v701h147v-172l-8 -95h3q72 74 165 74q81 0 121 -53t40 -149v-306h-147v287q0 50 -16.5 73t-56.5 23q-28 0 -50.5 -12t-50.5 -40v-331h-147z" />
    <glyph glyph-name="i" unicode="i" 
d="M278 0v381h-199v115h346v-496h-147zM345 574q-43 0 -70.5 24.5t-27.5 64.5t27.5 66t70.5 26t70.5 -26t27.5 -66t-27.5 -64.5t-70.5 -24.5z" />
    <glyph glyph-name="j" unicode="j" 
d="M195 -196q-80 0 -153 34l43 105q53 -24 101 -24q52 0 72 24.5t20 80.5v357h-199v115h346v-466q0 -226 -230 -226zM345 574q-43 0 -70.5 24.5t-27.5 64.5t27.5 66t70.5 26t70.5 -26t27.5 -66t-27.5 -64.5t-70.5 -24.5z" />
    <glyph glyph-name="k" unicode="k" 
d="M76 0v701h147v-405h4l182 200h161l-189 -202l204 -294h-159l-130 203l-73 -78v-125h-147z" />
    <glyph glyph-name="l" unicode="l" 
d="M395 -12q-91 0 -140 55t-49 151v391h-145v116h292v-513q0 -43 23 -62t58 -19q37 0 77 16l33 -108q-83 -27 -149 -27z" />
    <glyph glyph-name="m" unicode="m" 
d="M35 0v496h111l10 -61h4q33 73 107 73q68 0 86 -81q32 81 110 81q53 0 82 -42.5t29 -117.5v-348h-140v338q0 45 -27 45q-24 0 -45 -48v-335h-115v338q0 45 -28 45q-25 0 -44 -48v-335h-140z" />
    <glyph glyph-name="n" unicode="n" 
d="M72 0v496h120l11 -66h4q80 78 171 78q82 0 122 -52.5t40 -149.5v-306h-147v287q0 50 -16.5 73t-56.5 23q-28 0 -50.5 -12t-50.5 -40v-331h-147z" />
    <glyph glyph-name="o" unicode="o" 
d="M300 -12q-104 0 -178.5 70.5t-74.5 189.5t74.5 189.5t178.5 70.5t178.5 -70.5t74.5 -189.5t-74.5 -189.5t-178.5 -70.5zM300 107q50 0 76 37.5t26 103.5t-26 103.5t-76 37.5t-76 -37.5t-26 -103.5t26 -103.5t76 -37.5z" />
    <glyph glyph-name="p" unicode="p" 
d="M72 -184v680h120l11 -50h3q69 62 148 62q92 0 145.5 -68.5t53.5 -183.5q0 -122 -63.5 -195t-151.5 -73q-68 0 -122 54h-4l7 -81v-145h-147zM304 108q44 0 71 36.5t27 109.5q0 134 -91 134q-47 0 -92 -46v-201q39 -33 85 -33z" />
    <glyph glyph-name="q" unicode="q" 
d="M381 -184v149l7 80h-4q-57 -57 -128 -57q-95 0 -152 69.5t-57 190.5q0 117 63.5 188.5t148.5 71.5q79 0 138 -63h4l12 51h115v-680h-147zM294 108q51 0 87 46v201q-37 33 -83 33q-43 0 -71.5 -35.5t-28.5 -102.5q0 -142 96 -142z" />
    <glyph glyph-name="r" unicode="r" 
d="M116 0v496h120l12 -108h3q73 120 201 120q51 0 96 -20l-30 -123q-48 14 -88 14q-110 0 -167 -121v-258h-147z" />
    <glyph glyph-name="s" unicode="s" 
d="M296 -12q-129 0 -243 76l63 92q95 -59 200 -59q79 0 79 42q0 21 -24 32t-98 27q-100 21 -144.5 58.5t-44.5 96.5q0 70 61.5 112.5t166.5 42.5q108 0 215 -68l-66 -88q-78 47 -162 47q-69 0 -69 -39q0 -19 21.5 -28t93.5 -25q112 -26 153.5 -61t41.5 -98q0 -70 -64.5 -115
t-179.5 -45z" />
    <glyph glyph-name="t" unicode="t" 
d="M388 -12q-214 0 -214 218v175h-125v109l132 6l19 152h121v-152h210v-115h-210v-174q0 -56 25 -80t80 -24q44 0 98 18l26 -106q-91 -27 -162 -27z" />
    <glyph glyph-name="u" unicode="u" 
d="M223 -12q-161 0 -161 202v306h147v-287q0 -51 16 -73.5t56 -22.5q29 0 50.5 12.5t46.5 44.5v326h147v-496h-120l-11 71h-4q-73 -83 -167 -83z" />
    <glyph glyph-name="v" unicode="v" 
d="M218 0l-187 496h148l78 -234q9 -27 45 -153h4l13.5 49l16 56.5l14.5 47.5l78 234h141l-182 -496h-169z" />
    <glyph glyph-name="w" unicode="w" 
d="M85 0l-81 496h142l31 -230q3 -25 8 -74t8 -73h3q11 89 23 147l31 164h107l32 -164q14 -69 25 -147h4q4 29 8.5 81.5t5.5 65.5l28 230h136l-76 -496h-173l-27 161q-10 74 -18 147h-4q-6 -58 -17 -147l-26 -161h-170z" />
    <glyph glyph-name="x" unicode="x" 
d="M37 0l172 258l-161 238h158l51 -80q9 -17 29.5 -49t22.5 -36h4l41 85l44 80h154l-162 -255l172 -241h-158l-57 82l-57 86h-4l-46 -86l-49 -82h-154z" />
    <glyph glyph-name="y" unicode="y" 
d="M143 -194q-41 0 -76 10l26 112q19 -6 39 -6q77 0 104 65l10 26l-215 483h146l83 -213q21 -55 50 -149h4q4 15 45 149l73 213h139l-196 -501q-38 -99 -90 -144t-142 -45z" />
    <glyph glyph-name="z" unicode="z" 
d="M70 0v79l259 302h-228v115h432v-78l-260 -303h267v-115h-470z" />
    <glyph glyph-name="braceleft" unicode="{" 
d="M419 -152q-99 0 -142.5 31.5t-43.5 110.5q0 37 5 88.5t5 82.5q0 71 -137 74v86q137 3 137 74q0 30 -5 82.5t-5 88.5q0 79 43.5 110.5t142.5 31.5h77v-78h-41q-62 0 -82 -14t-20 -56q0 -26 2.5 -79.5t2.5 -83.5q0 -56 -23 -82t-77 -35v-4q54 -9 77 -35t23 -82
q0 -31 -2.5 -84t-2.5 -79q0 -42 20 -56t82 -14h41v-78h-77z" />
    <glyph glyph-name="bar" unicode="|" 
d="M235 -250v1000h130v-1000h-130z" />
    <glyph glyph-name="braceright" unicode="}" 
d="M105 -152v78h41q61 0 81 14t20 56q0 26 -2 79t-2 84q0 56 22.5 82t77.5 35v4q-55 9 -77.5 35t-22.5 82q0 30 2 83.5t2 79.5q0 42 -20 56t-81 14h-41v78h77q99 0 142.5 -31.5t43.5 -110.5q0 -36 -5.5 -88.5t-5.5 -82.5q0 -71 138 -74v-86q-138 -3 -138 -74
q0 -31 5.5 -82.5t5.5 -88.5q0 -79 -43.5 -110.5t-142.5 -31.5h-77z" />
    <glyph glyph-name="asciitilde" unicode="~" 
d="M385 240q-35 0 -66.5 19t-57.5 38t-48 19q-45 0 -73 -82l-88 41q59 145 163 145q35 0 66.5 -19t57.5 -38t48 -19q45 0 73 82l88 -41q-59 -145 -163 -145z" />
    <glyph glyph-name="uni00A0" unicode="&#xa0;" 
 />
    <glyph glyph-name="exclamdown" unicode="&#xa1;" 
d="M227 -174l5 133l20 282h96l20 -282l5 -133h-146zM300 306q-43 0 -71.5 28t-28.5 72q0 45 28.5 73.5t71.5 28.5t71.5 -28.5t28.5 -73.5q0 -44 -28.5 -72t-71.5 -28z" />
    <glyph glyph-name="cent" unicode="&#xa2;" 
d="M239 307q0 -94 72 -125v250q-72 -32 -72 -125zM311 -41v95q-99 13 -157 79.5t-58 173.5q0 103 59.5 169t155.5 82v97h81v-93q77 -7 124 -56l-67 -90q-30 24 -57 27v-272q36 6 72 35l59 -93q-57 -49 -131 -59v-95h-81z" />
    <glyph glyph-name="sterling" unicode="&#xa3;" 
d="M67 0v91q54 21 86 61t32 92q0 14 -3 27h-112v86l84 5q-19 51 -19 80q0 93 63.5 149t164.5 56q113 0 186 -81l-79 -80q-40 42 -93 42q-103 0 -103 -94q0 -27 13 -72h169v-91h-146q2 -18 2 -28q0 -63 -53 -115v-4h291v-124h-483z" />
    <glyph glyph-name="currency" unicode="&#xa4;" 
d="M109 63l-73 74l81 82q-34 46 -34 111q0 63 33 109l-80 82l73 74l89 -90q48 25 102 25q52 0 102 -25l89 90l73 -74l-81 -82q34 -45 34 -109q0 -63 -35 -111l82 -82l-73 -74l-90 91q-47 -24 -101 -24t-101 24zM300 232q37 0 61.5 27t24.5 71t-24.5 71t-61.5 27t-61.5 -27
t-24.5 -71t24.5 -71t61.5 -27z" />
    <glyph glyph-name="yen" unicode="&#xa5;" 
d="M226 0v147h-169v70h169v55h-169v70h137l-163 293h151l61 -133q51 -118 57 -131h4l57 131l61 133h147l-163 -293h137v-70h-170v-55h170v-70h-170v-147h-147z" />
    <glyph glyph-name="brokenbar" unicode="&#xa6;" 
d="M235 -250v440h130v-440h-130zM235 310v440h130v-440h-130z" />
    <glyph glyph-name="section" unicode="&#xa7;" 
d="M276 -84q-57 0 -110 21.5t-85 62.5l84 75q51 -51 111 -51t60 43q0 21 -27.5 38t-66 33t-77.5 37t-66.5 60t-27.5 91q0 37 22 71t60 57q-29 35 -29 83q0 69 47.5 111t130.5 42q97 0 182 -65l-68 -92q-55 48 -106 48q-54 0 -54 -39q0 -19 28 -36t68 -34t80.5 -39
t68.5 -60.5t28 -88.5q0 -83 -84 -133q23 -34 23 -77q0 -70 -50.5 -114t-141.5 -44zM195 337q0 -22 17.5 -40.5t38.5 -29t59.5 -27.5t58.5 -28q36 22 36 60q0 18 -9.5 33t-29.5 27t-38.5 20.5t-48 21t-47.5 21.5q-37 -22 -37 -58z" />
    <glyph glyph-name="dieresis" unicode="&#xa8;" 
d="M189 571q-35 0 -57.5 23t-22.5 57q0 35 22.5 58t57.5 23t57.5 -23t22.5 -58q0 -34 -22.5 -57t-57.5 -23zM411 571q-35 0 -57.5 23t-22.5 57q0 35 22.5 58t57.5 23t57.5 -23t22.5 -58q0 -34 -22.5 -57t-57.5 -23z" />
    <glyph glyph-name="copyright" unicode="&#xa9;" 
d="M300 -9q-118 0 -199.5 91.5t-81.5 242.5q0 150 81.5 240t199.5 90t199.5 -90t81.5 -240q0 -151 -81.5 -242.5t-199.5 -91.5zM300 52q98 0 157.5 75t59.5 198t-59.5 196.5t-157.5 73.5t-157.5 -73.5t-59.5 -196.5t59.5 -198t157.5 -75zM312 127q-76 0 -124.5 54t-48.5 143
q0 85 51 138.5t122 53.5q63 0 112 -49l-55 -61q-24 24 -48 24q-36 0 -56 -30t-20 -76q0 -51 19 -81t52 -30q27 0 60 24l47 -68q-52 -42 -111 -42z" />
    <glyph glyph-name="ordfeminine" unicode="&#xaa;" 
d="M255 367q-49 0 -79.5 29t-30.5 71q0 109 213 120q-8 43 -65 43q-48 0 -100 -29l-37 68q78 44 158 44q69 0 107.5 -37.5t38.5 -112.5v-188h-83l-8 36h-2q-51 -44 -112 -44zM284 445q37 0 74 27v56q-113 -8 -113 -51q0 -32 39 -32z" />
    <glyph glyph-name="guillemotleft" unicode="&#xab;" 
d="M213 25l-171 154v146l171 154l62 -55l-127 -172l127 -172zM479 25l-171 154v146l171 154l62 -55l-127 -172l127 -172z" />
    <glyph glyph-name="logicalnot" unicode="&#xac;" 
d="M422 94v184h-352v104h460v-288h-108z" />
    <glyph glyph-name="uni00AD" unicode="&#xad;" 
d="M70 278v104h460v-104h-460z" />
    <glyph glyph-name="registered" unicode="&#xae;" 
d="M299 311q-83 0 -140.5 57.5t-57.5 144.5t57.5 144.5t140.5 57.5t140.5 -57.5t57.5 -144.5t-57.5 -144.5t-140.5 -57.5zM299 360q64 0 104 42t40 111t-40 111t-104 42t-104 -42t-40 -111t40 -111t104 -42zM218 416v197h89q37 0 59 -16.5t22 -49.5q0 -38 -35 -54l42 -77
h-60l-30 60h-29v-60h-58zM276 516h20q31 0 31 28q0 26 -30 26h-21v-54z" />
    <glyph glyph-name="macron" unicode="&#xaf;" 
d="M152 592v93h296v-93h-296z" />
    <glyph glyph-name="degree" unicode="&#xb0;" 
d="M301 398q-61 0 -103 41t-42 103t42 103t103 41t102.5 -41t41.5 -103t-41.5 -103t-102.5 -41zM301 468q30 0 48.5 20.5t18.5 53.5q0 32 -18.5 52.5t-48.5 20.5t-48.5 -20.5t-18.5 -52.5q0 -33 18.5 -53.5t48.5 -20.5z" />
    <glyph glyph-name="plusminus" unicode="&#xb1;" 
d="M246 158v136h-176v104h176v168h108v-168h176v-104h-176v-136h-108zM70 0v104h460v-104h-460z" />
    <glyph glyph-name="two.sups" unicode="&#xb2;" 
d="M155 376l-8 57q101 74 146 117.5t45 76.5q0 29 -17.5 45.5t-49.5 16.5q-45 0 -81 -48l-61 56q62 81 159 81q70 0 112 -35t42 -97q0 -44 -30 -84t-94 -96h138v-90h-301z" />
    <glyph glyph-name="three.sups" unicode="&#xb3;" 
d="M298 364q-116 0 -169 78l65 51q35 -47 92 -47q29 0 48 12.5t19 33.5q0 51 -103 51v62q89 0 89 49q0 19 -16 30t-43 11q-42 0 -74 -39l-61 55q61 67 154 67q60 0 102.5 -30t42.5 -79q0 -60 -66 -90q38 -11 59.5 -36t21.5 -59q0 -53 -47.5 -86.5t-113.5 -33.5z" />
    <glyph glyph-name="acute" unicode="&#xb4;" 
d="M294 561l-72 72l153 182l100 -98z" />
    <glyph glyph-name="uni00B5" unicode="&#xb5;" 
d="M64 -196v692h147v-287q0 -52 16.5 -74t50.5 -22q58 0 98 75v308h148q-10 -232 -10 -348q0 -41 35 -41q10 0 18 2l18 -109q-27 -12 -74 -12q-94 0 -119 93h-3q-42 -88 -118 -88q-49 0 -69 25q2 -125 10 -214h-148z" />
    <glyph glyph-name="paragraph" unicode="&#xb6;" 
d="M288 197q-103 0 -171.5 61t-68.5 171q0 118 65.5 170.5t172.5 52.5h42v-455h-40zM380 -80v732h146v-732h-146z" />
    <glyph glyph-name="periodcentered" unicode="&#xb7;" 
d="M300 236q-51 0 -83.5 33.5t-32.5 83.5t32.5 84t83.5 34t83.5 -34t32.5 -84t-32.5 -83.5t-83.5 -33.5z" />
    <glyph glyph-name="cedilla" unicode="&#xb8;" 
d="M198 -239l-11 59q58 3 80.5 13t22.5 31q0 32 -77 42l50 105h86l-30 -72q39 -9 57.5 -26.5t18.5 -48.5q0 -97 -197 -103z" />
    <glyph glyph-name="one.sups" unicode="&#xb9;" 
d="M166 376v90h121v190h-109v67q87 12 132 43h85v-300h105v-90h-334z" />
    <glyph glyph-name="ordmasculine" unicode="&#xba;" 
d="M300 367q-69 0 -118 47t-49 125q0 79 49 126.5t118 47.5t118 -47.5t49 -126.5q0 -78 -49 -125t-118 -47zM300 450q61 0 61 89q0 90 -61 90t-61 -90q0 -89 61 -89z" />
    <glyph glyph-name="guillemotright" unicode="&#xbb;" 
d="M121 25l-62 55l127 172l-127 172l62 55l171 -154v-146zM387 25l-62 55l127 172l-127 172l62 55l171 -154v-146z" />
    <glyph glyph-name="onequarter" unicode="&#xbc;" 
d="M134 324v212h-81v64q59 8 105 36h83v-312h-107zM92 28l-75 73l186 173l51 -47zM397 377l-51 48l162 199l75 -73zM448 0v61h-160v51l96 212l76 -29l-77 -168h65v88h94v-88h51v-66h-51v-61h-94z" />
    <glyph glyph-name="onehalf" unicode="&#xbd;" 
d="M134 324v212h-81v64q59 8 105 36h83v-312h-107zM92 28l-75 73l186 173l51 -47zM397 377l-51 48l162 199l75 -73zM314 0v55q146 96 146 142q0 41 -44 41q-29 0 -55 -35l-62 56q63 65 134 65q60 0 95 -29t35 -80t-81 -128h92v-87h-260z" />
    <glyph glyph-name="threequarters" unicode="&#xbe;" 
d="M158 312q-80 0 -136 42l41 66q41 -29 82 -29q42 0 42 29q0 35 -73 35v55q61 0 61 32q0 27 -39 27q-24 0 -66 -25l-42 62q53 42 132 42q50 0 84.5 -25t34.5 -64q0 -28 -12.5 -44.5t-41.5 -26.5q66 -18 66 -76q0 -44 -38.5 -72t-94.5 -28zM99 28l-75 73l186 173l51 -47z
M404 377l-51 48l162 199l75 -73zM448 0v61h-160v51l96 212l76 -29l-77 -168h65v88h94v-88h51v-66h-51v-61h-94z" />
    <glyph glyph-name="questiondown" unicode="&#xbf;" 
d="M308 -186q-91 0 -148 42t-57 121q0 36 16.5 66t40 51l46.5 41.5t37 47t11 58.5h128q6 -37 -6 -69t-33.5 -54.5t-43.5 -41.5t-38.5 -39.5t-16.5 -40.5q0 -30 20.5 -46.5t53.5 -16.5q51 0 102 46l82 -74q-81 -91 -194 -91zM314 306q-43 0 -71.5 28t-28.5 72q0 45 28.5 73.5
t71.5 28.5t71.5 -28.5t28.5 -73.5q0 -44 -28.5 -72t-71.5 -28z" />
    <glyph glyph-name="Agrave" unicode="&#xc0;" 
d="M244 330l-15 -60h137l-15 60q-38 144 -52 210h-4q-31 -132 -51 -210zM9 0l203 652h176l203 -652h-156l-39 155h-197l-40 -155h-150zM337 680l-184 119l78 95l171 -140z" />
    <glyph glyph-name="Aacute" unicode="&#xc1;" 
d="M244 330l-15 -60h137l-15 60q-38 144 -52 210h-4q-31 -132 -51 -210zM9 0l203 652h176l203 -652h-156l-39 155h-197l-40 -155h-150zM263 680l-65 74l171 140l78 -95z" />
    <glyph glyph-name="Acircumflex" unicode="&#xc2;" 
d="M244 330l-15 -60h137l-15 60q-38 144 -52 210h-4q-31 -132 -51 -210zM9 0l203 652h176l203 -652h-156l-39 155h-197l-40 -155h-150zM194 685l-64 39l90 111h160l90 -111l-64 -39l-104 84h-4z" />
    <glyph glyph-name="Atilde" unicode="&#xc3;" 
d="M244 330l-15 -60h137l-15 60q-38 144 -52 210h-4q-31 -132 -51 -210zM9 0l203 652h176l203 -652h-156l-39 155h-197l-40 -155h-150zM371 692q-40 0 -82.5 29t-54.5 29q-32 0 -37 -49l-95 7q4 73 38 108.5t89 35.5q40 0 82.5 -29t54.5 -29q32 0 37 49l95 -7
q-4 -72 -38 -108t-89 -36z" />
    <glyph glyph-name="Adieresis" unicode="&#xc4;" 
d="M244 330l-15 -60h137l-15 60q-38 144 -52 210h-4q-31 -132 -51 -210zM9 0l203 652h176l203 -652h-156l-39 155h-197l-40 -155h-150zM189 700q-31 0 -52 21t-21 52t21 52t52 21q32 0 53 -20.5t21 -52.5q0 -31 -21 -52t-53 -21zM411 700q-32 0 -53 21t-21 52q0 32 21 52.5
t53 20.5q31 0 52 -21t21 -52t-21 -52t-52 -21z" />
    <glyph glyph-name="Aring" unicode="&#xc5;" 
d="M244 330l-15 -60h137l-15 60q-38 144 -52 210h-4q-31 -132 -51 -210zM9 0l203 652h176l203 -652h-156l-39 155h-197l-40 -155h-150zM300 697q-51 0 -82.5 27t-31.5 72t31.5 71.5t82.5 26.5t82.5 -26.5t31.5 -71.5t-31.5 -72t-82.5 -27zM300 752q18 0 30 12t12 32
q0 19 -12 31t-30 12t-30 -12t-12 -31q0 -20 12 -32t30 -12z" />
    <glyph glyph-name="AE" unicode="&#xc6;" 
d="M255 356l-28 -93h84v278h-3q-10 -38 -29 -103.5t-24 -81.5zM-3 0l218 652h371v-124h-145v-129h118v-124h-118v-151h154v-124h-284v149h-118l-45 -149h-151z" />
    <glyph glyph-name="Ccedilla" unicode="&#xc7;" 
d="M241 -239l-11 59q58 3 80.5 13t22.5 31q0 32 -77 42l42 87q-107 20 -175.5 105.5t-68.5 223.5q0 158 88 250t223 92q110 0 195 -83l-81 -91q-52 47 -114 47q-70 0 -115 -57t-45 -153q0 -99 45.5 -155.5t120.5 -56.5q65 0 118 58l81 -89q-74 -86 -187 -95l-21 -50
q39 -9 57.5 -26.5t18.5 -48.5q0 -97 -197 -103z" />
    <glyph glyph-name="Egrave" unicode="&#xc8;" 
d="M92 0v652h432v-124h-284v-131h241v-123h-241v-150h294v-124h-442zM360 680l-184 119l78 95l171 -140z" />
    <glyph glyph-name="Eacute" unicode="&#xc9;" 
d="M92 0v652h432v-124h-284v-131h241v-123h-241v-150h294v-124h-442zM286 680l-65 74l171 140l78 -95z" />
    <glyph glyph-name="Ecircumflex" unicode="&#xca;" 
d="M92 0v652h432v-124h-284v-131h241v-123h-241v-150h294v-124h-442zM217 685l-64 39l90 111h160l90 -111l-64 -39l-104 84h-4z" />
    <glyph glyph-name="Edieresis" unicode="&#xcb;" 
d="M92 0v652h432v-124h-284v-131h241v-123h-241v-150h294v-124h-442zM212 700q-31 0 -52 21t-21 52t20.5 52t52.5 21t53 -20.5t21 -52.5q0 -31 -21 -52t-53 -21zM434 700q-32 0 -53 21t-21 52q0 32 21 52.5t53 20.5t52.5 -21t20.5 -52t-21 -52t-52 -21z" />
    <glyph glyph-name="Igrave" unicode="&#xcc;" 
d="M74 0v124h152v404h-152v124h452v-124h-152v-404h152v-124h-452zM337 680l-184 119l78 95l171 -140z" />
    <glyph glyph-name="Iacute" unicode="&#xcd;" 
d="M74 0v124h152v404h-152v124h452v-124h-152v-404h152v-124h-452zM263 680l-65 74l171 140l78 -95z" />
    <glyph glyph-name="Icircumflex" unicode="&#xce;" 
d="M74 0v124h152v404h-152v124h452v-124h-152v-404h152v-124h-452zM194 685l-64 39l90 111h160l90 -111l-64 -39l-104 84h-4z" />
    <glyph glyph-name="Idieresis" unicode="&#xcf;" 
d="M74 0v124h152v404h-152v124h452v-124h-152v-404h152v-124h-452zM189 700q-31 0 -52 21t-21 52t21 52t52 21q32 0 53 -20.5t21 -52.5q0 -31 -21 -52t-53 -21zM411 700q-32 0 -53 21t-21 52q0 32 21 52.5t53 20.5q31 0 52 -21t21 -52t-21 -52t-52 -21z" />
    <glyph glyph-name="Eth" unicode="&#xd0;" 
d="M70 0v298h-70v69l70 6v279h181q147 0 230 -80t83 -243t-82.5 -246t-222.5 -83h-189zM218 119h24q171 0 171 210q0 110 -44.5 157t-126.5 47h-24v-160h108v-75h-108v-179z" />
    <glyph glyph-name="Ntilde" unicode="&#xd1;" 
d="M66 0v652h151l137 -324l56 -144h4q-1 15 -7.5 69t-10 93.5t-3.5 74.5v231h141v-652h-151l-137 325l-56 142h-4q2 -20 8 -71t9.5 -91t3.5 -74v-231h-141zM381 692q-40 0 -82.5 29t-54.5 29q-32 0 -37 -49l-95 7q4 73 38 108.5t89 35.5q40 0 82.5 -29t54.5 -29q32 0 37 49
l95 -7q-4 -72 -38 -108t-89 -36z" />
    <glyph glyph-name="Ograve" unicode="&#xd2;" 
d="M300 -12q-119 0 -190.5 89t-71.5 252q0 160 71.5 247.5t190.5 87.5t190.5 -87.5t71.5 -247.5q0 -163 -71.5 -252t-190.5 -89zM300 115q52 0 81.5 55t29.5 159q0 100 -29.5 154t-81.5 54t-81.5 -54t-29.5 -154q0 -104 29.5 -159t81.5 -55zM337 680l-184 119l78 95
l171 -140z" />
    <glyph glyph-name="Oacute" unicode="&#xd3;" 
d="M300 -12q-119 0 -190.5 89t-71.5 252q0 160 71.5 247.5t190.5 87.5t190.5 -87.5t71.5 -247.5q0 -163 -71.5 -252t-190.5 -89zM300 115q52 0 81.5 55t29.5 159q0 100 -29.5 154t-81.5 54t-81.5 -54t-29.5 -154q0 -104 29.5 -159t81.5 -55zM263 680l-65 74l171 140l78 -95z
" />
    <glyph glyph-name="Ocircumflex" unicode="&#xd4;" 
d="M300 -12q-119 0 -190.5 89t-71.5 252q0 160 71.5 247.5t190.5 87.5t190.5 -87.5t71.5 -247.5q0 -163 -71.5 -252t-190.5 -89zM300 115q52 0 81.5 55t29.5 159q0 100 -29.5 154t-81.5 54t-81.5 -54t-29.5 -154q0 -104 29.5 -159t81.5 -55zM194 685l-64 39l90 111h160
l90 -111l-64 -39l-104 84h-4z" />
    <glyph glyph-name="Otilde" unicode="&#xd5;" 
d="M300 -12q-119 0 -190.5 89t-71.5 252q0 160 71.5 247.5t190.5 87.5t190.5 -87.5t71.5 -247.5q0 -163 -71.5 -252t-190.5 -89zM300 115q52 0 81.5 55t29.5 159q0 100 -29.5 154t-81.5 54t-81.5 -54t-29.5 -154q0 -104 29.5 -159t81.5 -55zM371 692q-40 0 -82.5 29
t-54.5 29q-32 0 -37 -49l-95 7q4 73 38 108.5t89 35.5q40 0 82.5 -29t54.5 -29q32 0 37 49l95 -7q-4 -72 -38 -108t-89 -36z" />
    <glyph glyph-name="Odieresis" unicode="&#xd6;" 
d="M300 -12q-119 0 -190.5 89t-71.5 252q0 160 71.5 247.5t190.5 87.5t190.5 -87.5t71.5 -247.5q0 -163 -71.5 -252t-190.5 -89zM300 115q52 0 81.5 55t29.5 159q0 100 -29.5 154t-81.5 54t-81.5 -54t-29.5 -154q0 -104 29.5 -159t81.5 -55zM189 700q-31 0 -52 21t-21 52
t21 52t52 21q32 0 53 -20.5t21 -52.5q0 -31 -21 -52t-53 -21zM411 700q-32 0 -53 21t-21 52q0 32 21 52.5t53 20.5q31 0 52 -21t21 -52t-21 -52t-52 -21z" />
    <glyph glyph-name="multiply" unicode="&#xd7;" 
d="M157 112l-73 74l142 143l-142 144l73 74l143 -144l143 144l73 -74l-142 -144l142 -143l-73 -74l-143 144z" />
    <glyph glyph-name="Oslash" unicode="&#xd8;" 
d="M300 -12q-84 0 -147 46l-54 -76l-80 52l69 98q-50 86 -50 221q0 160 71.5 247.5t190.5 87.5q86 0 147 -45l53 75l80 -52l-68 -97q50 -84 50 -216q0 -163 -71.5 -252t-190.5 -89zM189 329q0 -43 4 -71l174 247q-27 32 -67 32q-52 0 -81.5 -54t-29.5 -154zM300 115
q52 0 81.5 55t29.5 159q0 40 -4 67l-174 -248q27 -33 67 -33z" />
    <glyph glyph-name="Ugrave" unicode="&#xd9;" 
d="M302 -12q-118 0 -178 67.5t-60 195.5v401h147v-416q0 -121 91 -121q92 0 92 121v416h142v-401q0 -128 -58.5 -195.5t-175.5 -67.5zM337 680l-184 119l78 95l171 -140z" />
    <glyph glyph-name="Uacute" unicode="&#xda;" 
d="M302 -12q-118 0 -178 67.5t-60 195.5v401h147v-416q0 -121 91 -121q92 0 92 121v416h142v-401q0 -128 -58.5 -195.5t-175.5 -67.5zM263 680l-65 74l171 140l78 -95z" />
    <glyph glyph-name="Ucircumflex" unicode="&#xdb;" 
d="M302 -12q-118 0 -178 67.5t-60 195.5v401h147v-416q0 -121 91 -121q92 0 92 121v416h142v-401q0 -128 -58.5 -195.5t-175.5 -67.5zM194 685l-64 39l90 111h160l90 -111l-64 -39l-104 84h-4z" />
    <glyph glyph-name="Udieresis" unicode="&#xdc;" 
d="M302 -12q-118 0 -178 67.5t-60 195.5v401h147v-416q0 -121 91 -121q92 0 92 121v416h142v-401q0 -128 -58.5 -195.5t-175.5 -67.5zM189 700q-31 0 -52 21t-21 52t21 52t52 21q32 0 53 -20.5t21 -52.5q0 -31 -21 -52t-53 -21zM411 700q-32 0 -53 21t-21 52q0 32 21 52.5
t53 20.5q31 0 52 -21t21 -52t-21 -52t-52 -21z" />
    <glyph glyph-name="Yacute" unicode="&#xdd;" 
d="M226 0v220l-210 432h158l66 -157l59 -149h4l61 149l66 157h154l-210 -432v-220h-148zM263 680l-65 74l171 140l78 -95z" />
    <glyph glyph-name="Thorn" unicode="&#xde;" 
d="M73 0v652h147v-99h91q255 0 255 -209q0 -110 -72 -165.5t-183 -55.5h-91v-123h-147zM220 240h82q119 0 119 104q0 50 -29.5 71t-89.5 21h-82v-196z" />
    <glyph glyph-name="germandbls" unicode="&#xdf;" 
d="M397 -12q-70 0 -139 37l49 100q43 -28 85 -28q20 0 31.5 11.5t11.5 31.5q0 21 -16 38t-38.5 31.5t-45.5 31t-39 44.5t-16 65q0 40 30 94t30 92q0 26 -14.5 43.5t-38.5 17.5q-79 0 -79 -111v-486h-147v495q0 97 58 157.5t169 60.5q91 0 140 -49.5t49 -119.5
q0 -41 -15.5 -74t-30.5 -57.5t-15 -44.5q0 -18 16 -33.5t39 -30t45.5 -32.5t38.5 -49t16 -71q0 -71 -46 -117.5t-128 -46.5z" />
    <glyph glyph-name="agrave" unicode="&#xe0;" 
d="M224 -12q-73 0 -118 43t-45 107q0 84 76.5 127.5t250.5 53.5q-8 72 -106 72q-59 0 -151 -46l-52 96q117 67 232 67q107 0 165.5 -56t58.5 -168v-284h-120l-11 56h-4q-89 -68 -176 -68zM271 102q56 0 117 47v82q-103 -6 -144.5 -26.5t-41.5 -55.5q0 -47 69 -47zM326 561
l-181 156l100 98l153 -182z" />
    <glyph glyph-name="aacute" unicode="&#xe1;" 
d="M224 -12q-73 0 -118 43t-45 107q0 84 76.5 127.5t250.5 53.5q-8 72 -106 72q-59 0 -151 -46l-52 96q117 67 232 67q107 0 165.5 -56t58.5 -168v-284h-120l-11 56h-4q-89 -68 -176 -68zM271 102q56 0 117 47v82q-103 -6 -144.5 -26.5t-41.5 -55.5q0 -47 69 -47zM314 561
l-72 72l153 182l100 -98z" />
    <glyph glyph-name="acircumflex" unicode="&#xe2;" 
d="M224 -12q-73 0 -118 43t-45 107q0 84 76.5 127.5t250.5 53.5q-8 72 -106 72q-59 0 -151 -46l-52 96q117 67 232 67q107 0 165.5 -56t58.5 -168v-284h-120l-11 56h-4q-89 -68 -176 -68zM271 102q56 0 117 47v82q-103 -6 -144.5 -26.5t-41.5 -55.5q0 -47 69 -47zM193 561
l-56 52l108 131h150l108 -131l-56 -52l-125 92h-4z" />
    <glyph glyph-name="atilde" unicode="&#xe3;" 
d="M224 -12q-73 0 -118 43t-45 107q0 84 76.5 127.5t250.5 53.5q-8 72 -106 72q-59 0 -151 -46l-52 96q117 67 232 67q107 0 165.5 -56t58.5 -168v-284h-120l-11 56h-4q-89 -68 -176 -68zM271 102q56 0 117 47v82q-103 -6 -144.5 -26.5t-41.5 -55.5q0 -47 69 -47zM386 573
q-27 0 -52.5 16t-45 32t-31.5 16q-29 0 -35 -55l-92 5q4 152 124 152q27 0 52.5 -16t45 -32t31.5 -16q29 0 35 55l92 -5q-4 -152 -124 -152z" />
    <glyph glyph-name="adieresis" unicode="&#xe4;" 
d="M224 -12q-73 0 -118 43t-45 107q0 84 76.5 127.5t250.5 53.5q-8 72 -106 72q-59 0 -151 -46l-52 96q117 67 232 67q107 0 165.5 -56t58.5 -168v-284h-120l-11 56h-4q-89 -68 -176 -68zM271 102q56 0 117 47v82q-103 -6 -144.5 -26.5t-41.5 -55.5q0 -47 69 -47zM209 571
q-35 0 -57.5 23t-22.5 57q0 35 22.5 58t57.5 23t57.5 -23t22.5 -58q0 -34 -22.5 -57t-57.5 -23zM431 571q-35 0 -57.5 23t-22.5 57q0 35 22.5 58t57.5 23t57.5 -23t22.5 -58q0 -34 -22.5 -57t-57.5 -23z" />
    <glyph glyph-name="aring" unicode="&#xe5;" 
d="M224 -12q-73 0 -118 43t-45 107q0 84 76.5 127.5t250.5 53.5q-8 72 -106 72q-59 0 -151 -46l-52 96q117 67 232 67q107 0 165.5 -56t58.5 -168v-284h-120l-11 56h-4q-89 -68 -176 -68zM271 102q56 0 117 47v82q-103 -6 -144.5 -26.5t-41.5 -55.5q0 -47 69 -47zM320 568
q-63 0 -97.5 29.5t-34.5 74.5q0 44 34.5 73.5t97.5 29.5t97.5 -29.5t34.5 -73.5q0 -45 -34.5 -74.5t-97.5 -29.5zM320 623q18 0 30.5 14t12.5 35t-12.5 34.5t-30.5 13.5t-30.5 -13.5t-12.5 -34.5t12.5 -35t30.5 -14z" />
    <glyph glyph-name="ae" unicode="&#xe6;" 
d="M149 -12q-59 0 -96 40t-37 102q0 78 55.5 122.5t170.5 61.5q-6 77 -61 77q-43 0 -100 -34l-52 96q92 55 162 55q78 0 119 -73q47 73 126 73q75 0 116 -68t41 -171q0 -23 -6 -65h-232q8 -50 33.5 -75.5t62.5 -25.5t76 27l51 -95q-60 -47 -133 -47q-96 0 -152 74
q-69 -74 -144 -74zM194 102q30 0 62 32q-13 39 -13 88v5q-96 -16 -96 -79q0 -22 13 -34t34 -12zM424 396q-24 0 -43.5 -24.5t-25.5 -74.5h123q-2 52 -15 75.5t-39 23.5z" />
    <glyph glyph-name="ccedilla" unicode="&#xe7;" 
d="M240 -239l-11 59q58 3 80.5 13t22.5 31q0 32 -77 42l41 85q-103 14 -166 81.5t-63 175.5q0 119 83.5 189.5t203.5 70.5q114 0 186 -67l-68 -91q-55 39 -110 39q-64 0 -104 -38.5t-40 -102.5t38.5 -102.5t100.5 -38.5q63 0 131 47l59 -93q-72 -59 -165 -70l-21 -52
q39 -9 57.5 -26.5t18.5 -48.5q0 -97 -197 -103z" />
    <glyph glyph-name="egrave" unicode="&#xe8;" 
d="M330 -12q-120 0 -197.5 69.5t-77.5 190.5q0 117 76.5 188.5t181.5 71.5q111 0 172.5 -66.5t61.5 -171.5q0 -24 -7 -66h-338q20 -104 148 -104q61 0 128 35l49 -89q-92 -58 -197 -58zM318 396q-92 0 -114 -93h212q-11 93 -98 93zM318 561l-181 156l100 98l153 -182z" />
    <glyph glyph-name="eacute" unicode="&#xe9;" 
d="M330 -12q-120 0 -197.5 69.5t-77.5 190.5q0 117 76.5 188.5t181.5 71.5q111 0 172.5 -66.5t61.5 -171.5q0 -24 -7 -66h-338q20 -104 148 -104q61 0 128 35l49 -89q-92 -58 -197 -58zM318 396q-92 0 -114 -93h212q-11 93 -98 93zM306 561l-72 72l153 182l100 -98z" />
    <glyph glyph-name="ecircumflex" unicode="&#xea;" 
d="M330 -12q-120 0 -197.5 69.5t-77.5 190.5q0 117 76.5 188.5t181.5 71.5q111 0 172.5 -66.5t61.5 -171.5q0 -24 -7 -66h-338q20 -104 148 -104q61 0 128 35l49 -89q-92 -58 -197 -58zM318 396q-92 0 -114 -93h212q-11 93 -98 93zM185 561l-56 52l108 131h150l108 -131
l-56 -52l-125 92h-4z" />
    <glyph glyph-name="edieresis" unicode="&#xeb;" 
d="M330 -12q-120 0 -197.5 69.5t-77.5 190.5q0 117 76.5 188.5t181.5 71.5q111 0 172.5 -66.5t61.5 -171.5q0 -24 -7 -66h-338q20 -104 148 -104q61 0 128 35l49 -89q-92 -58 -197 -58zM318 396q-92 0 -114 -93h212q-11 93 -98 93zM201 571q-35 0 -57.5 23t-22.5 57
q0 35 22.5 58t57.5 23t57.5 -23t22.5 -58q0 -34 -22.5 -57t-57.5 -23zM423 571q-35 0 -57.5 23t-22.5 57q0 35 22.5 58t57.5 23t57.5 -23t22.5 -58q0 -34 -22.5 -57t-57.5 -23z" />
    <glyph glyph-name="igrave" unicode="&#xec;" 
d="M278 0v381h-199v115h346v-496h-147zM351 561l-181 156l100 98l153 -182z" />
    <glyph glyph-name="iacute" unicode="&#xed;" 
d="M278 0v381h-199v115h346v-496h-147zM339 561l-72 72l153 182l100 -98z" />
    <glyph glyph-name="icircumflex" unicode="&#xee;" 
d="M278 0v381h-199v115h346v-496h-147zM218 561l-56 52l108 131h150l108 -131l-56 -52l-125 92h-4z" />
    <glyph glyph-name="idieresis" unicode="&#xef;" 
d="M278 0v381h-199v115h346v-496h-147zM234 571q-35 0 -57.5 23t-22.5 57q0 35 22.5 58t57.5 23t57.5 -23t22.5 -58q0 -34 -22.5 -57t-57.5 -23zM456 571q-35 0 -57.5 23t-22.5 57q0 35 22.5 58t57.5 23t57.5 -23t22.5 -58q0 -34 -22.5 -57t-57.5 -23z" />
    <glyph glyph-name="eth" unicode="&#xf0;" 
d="M295 -12q-104 0 -176 66.5t-72 173.5q0 103 65 165t156 62q81 0 126 -56q-26 87 -96 149l-150 -75l-40 68l119 60q-42 27 -92 50l64 89q80 -37 144 -81l137 69l40 -68l-111 -56q141 -133 141 -338q0 -123 -68.5 -200.5t-186.5 -77.5zM300 107q52 0 82.5 39t30.5 112
q0 23 -1 34q-47 54 -114 54q-55 0 -86 -29.5t-31 -88.5q0 -57 34 -89t85 -32z" />
    <glyph glyph-name="ntilde" unicode="&#xf1;" 
d="M72 0v496h120l11 -66h4q80 78 171 78q82 0 122 -52.5t40 -149.5v-306h-147v287q0 50 -16.5 73t-56.5 23q-28 0 -50.5 -12t-50.5 -40v-331h-147zM381 573q-36 0 -76.5 32t-52.5 32q-29 0 -35 -55l-92 5q4 152 124 152q35 0 76 -32t53 -32q29 0 35 55l92 -5
q-4 -152 -124 -152z" />
    <glyph glyph-name="ograve" unicode="&#xf2;" 
d="M300 -12q-104 0 -178.5 70.5t-74.5 189.5t74.5 189.5t178.5 70.5t178.5 -70.5t74.5 -189.5t-74.5 -189.5t-178.5 -70.5zM300 107q50 0 76 37.5t26 103.5t-26 103.5t-76 37.5t-76 -37.5t-26 -103.5t26 -103.5t76 -37.5zM306 561l-181 156l100 98l153 -182z" />
    <glyph glyph-name="oacute" unicode="&#xf3;" 
d="M300 -12q-104 0 -178.5 70.5t-74.5 189.5t74.5 189.5t178.5 70.5t178.5 -70.5t74.5 -189.5t-74.5 -189.5t-178.5 -70.5zM300 107q50 0 76 37.5t26 103.5t-26 103.5t-76 37.5t-76 -37.5t-26 -103.5t26 -103.5t76 -37.5zM294 561l-72 72l153 182l100 -98z" />
    <glyph glyph-name="ocircumflex" unicode="&#xf4;" 
d="M300 -12q-104 0 -178.5 70.5t-74.5 189.5t74.5 189.5t178.5 70.5t178.5 -70.5t74.5 -189.5t-74.5 -189.5t-178.5 -70.5zM300 107q50 0 76 37.5t26 103.5t-26 103.5t-76 37.5t-76 -37.5t-26 -103.5t26 -103.5t76 -37.5zM173 561l-56 52l108 131h150l108 -131l-56 -52
l-125 92h-4z" />
    <glyph glyph-name="otilde" unicode="&#xf5;" 
d="M300 -12q-104 0 -178.5 70.5t-74.5 189.5t74.5 189.5t178.5 70.5t178.5 -70.5t74.5 -189.5t-74.5 -189.5t-178.5 -70.5zM300 107q50 0 76 37.5t26 103.5t-26 103.5t-76 37.5t-76 -37.5t-26 -103.5t26 -103.5t76 -37.5zM366 573q-27 0 -52.5 16t-45 32t-31.5 16
q-29 0 -35 -55l-92 5q4 152 124 152q27 0 52.5 -16t45 -32t31.5 -16q29 0 35 55l92 -5q-4 -152 -124 -152z" />
    <glyph glyph-name="odieresis" unicode="&#xf6;" 
d="M300 -12q-104 0 -178.5 70.5t-74.5 189.5t74.5 189.5t178.5 70.5t178.5 -70.5t74.5 -189.5t-74.5 -189.5t-178.5 -70.5zM300 107q50 0 76 37.5t26 103.5t-26 103.5t-76 37.5t-76 -37.5t-26 -103.5t26 -103.5t76 -37.5zM189 571q-35 0 -57.5 23t-22.5 57q0 35 22.5 58
t57.5 23t57.5 -23t22.5 -58q0 -34 -22.5 -57t-57.5 -23zM411 571q-35 0 -57.5 23t-22.5 57q0 35 22.5 58t57.5 23t57.5 -23t22.5 -58q0 -34 -22.5 -57t-57.5 -23z" />
    <glyph glyph-name="divide" unicode="&#xf7;" 
d="M300 433q-35 0 -58 21.5t-23 55.5t23 55.5t58 21.5t58 -21.5t23 -55.5t-23 -55.5t-58 -21.5zM300 73q-35 0 -58 21.5t-23 55.5t23 55.5t58 21.5t58 -21.5t23 -55.5t-23 -55.5t-58 -21.5zM70 278v104h460v-104h-460z" />
    <glyph glyph-name="oslash" unicode="&#xf8;" 
d="M300 -12q-77 0 -137 39l-45 -54l-57 46l46 55q-60 71 -60 174q0 119 74.5 189.5t178.5 70.5q75 0 136 -38l46 55l57 -47l-47 -56q61 -69 61 -174q0 -119 -74.5 -189.5t-178.5 -70.5zM198 248q0 -32 6 -57l153 184q-24 19 -57 19q-50 0 -76 -39.5t-26 -106.5zM300 102
q50 0 76 39.5t26 106.5q0 32 -6 58l-154 -184q23 -20 58 -20z" />
    <glyph glyph-name="ugrave" unicode="&#xf9;" 
d="M223 -12q-161 0 -161 202v306h147v-287q0 -51 16 -73.5t56 -22.5q29 0 50.5 12.5t46.5 44.5v326h147v-496h-120l-11 71h-4q-73 -83 -167 -83zM302 561l-181 156l100 98l153 -182z" />
    <glyph glyph-name="uacute" unicode="&#xfa;" 
d="M223 -12q-161 0 -161 202v306h147v-287q0 -51 16 -73.5t56 -22.5q29 0 50.5 12.5t46.5 44.5v326h147v-496h-120l-11 71h-4q-73 -83 -167 -83zM290 561l-72 72l153 182l100 -98z" />
    <glyph glyph-name="ucircumflex" unicode="&#xfb;" 
d="M223 -12q-161 0 -161 202v306h147v-287q0 -51 16 -73.5t56 -22.5q29 0 50.5 12.5t46.5 44.5v326h147v-496h-120l-11 71h-4q-73 -83 -167 -83zM169 561l-56 52l108 131h150l108 -131l-56 -52l-125 92h-4z" />
    <glyph glyph-name="udieresis" unicode="&#xfc;" 
d="M223 -12q-161 0 -161 202v306h147v-287q0 -51 16 -73.5t56 -22.5q29 0 50.5 12.5t46.5 44.5v326h147v-496h-120l-11 71h-4q-73 -83 -167 -83zM185 571q-35 0 -57.5 23t-22.5 57q0 35 22.5 58t57.5 23t57.5 -23t22.5 -58q0 -34 -22.5 -57t-57.5 -23zM407 571
q-35 0 -57.5 23t-22.5 57q0 35 22.5 58t57.5 23t57.5 -23t22.5 -58q0 -34 -22.5 -57t-57.5 -23z" />
    <glyph glyph-name="yacute" unicode="&#xfd;" 
d="M143 -194q-41 0 -76 10l26 112q19 -6 39 -6q77 0 104 65l10 26l-215 483h146l83 -213q21 -55 50 -149h4q4 15 45 149l73 213h139l-196 -501q-38 -99 -90 -144t-142 -45zM302 561l-72 72l153 182l100 -98z" />
    <glyph glyph-name="thorn" unicode="&#xfe;" 
d="M72 -184v885h147v-173l-5 -77h3q60 57 137 57q92 0 145.5 -68.5t53.5 -183.5q0 -122 -64 -195t-150 -73q-68 0 -122 54h-3l5 -81v-145h-147zM304 108q43 0 70.5 36.5t27.5 109.5q0 134 -92 134q-46 0 -91 -46v-201q37 -33 85 -33z" />
    <glyph glyph-name="ydieresis" unicode="&#xff;" 
d="M143 -194q-41 0 -76 10l26 112q19 -6 39 -6q77 0 104 65l10 26l-215 483h146l83 -213q21 -55 50 -149h4q4 15 45 149l73 213h139l-196 -501q-38 -99 -90 -144t-142 -45zM197 571q-35 0 -57.5 23t-22.5 57q0 35 22.5 58t57.5 23t57.5 -23t22.5 -58q0 -34 -22.5 -57
t-57.5 -23zM419 571q-35 0 -57.5 23t-22.5 57q0 35 22.5 58t57.5 23t57.5 -23t22.5 -58q0 -34 -22.5 -57t-57.5 -23z" />
    <glyph glyph-name="Amacron" unicode="&#x100;" 
d="M244 330l-15 -60h137l-15 60q-38 144 -52 210h-4q-31 -132 -51 -210zM9 0l203 652h176l203 -652h-156l-39 155h-197l-40 -155h-150zM149 721v94h302v-94h-302z" />
    <glyph glyph-name="amacron" unicode="&#x101;" 
d="M224 -12q-73 0 -118 43t-45 107q0 84 76.5 127.5t250.5 53.5q-8 72 -106 72q-59 0 -151 -46l-52 96q117 67 232 67q107 0 165.5 -56t58.5 -168v-284h-120l-11 56h-4q-89 -68 -176 -68zM271 102q56 0 117 47v82q-103 -6 -144.5 -26.5t-41.5 -55.5q0 -47 69 -47zM172 592
v93h296v-93h-296z" />
    <glyph glyph-name="Abreve" unicode="&#x102;" 
d="M244 330l-15 -60h137l-15 60q-38 144 -52 210h-4q-31 -132 -51 -210zM9 0l203 652h176l203 -652h-156l-39 155h-197l-40 -155h-150zM300 697q-149 0 -163 137l80 14q14 -66 83 -66t83 66l80 -14q-14 -137 -163 -137z" />
    <glyph glyph-name="abreve" unicode="&#x103;" 
d="M224 -12q-73 0 -118 43t-45 107q0 84 76.5 127.5t250.5 53.5q-8 72 -106 72q-59 0 -151 -46l-52 96q117 67 232 67q107 0 165.5 -56t58.5 -168v-284h-120l-11 56h-4q-89 -68 -176 -68zM271 102q56 0 117 47v82q-103 -6 -144.5 -26.5t-41.5 -55.5q0 -47 69 -47zM320 572
q-82 0 -124.5 43.5t-44.5 113.5l84 14q5 -35 26 -57t59 -22t59 22t26 57l84 -14q-2 -70 -44.5 -113.5t-124.5 -43.5z" />
    <glyph glyph-name="Aogonek" unicode="&#x104;" 
d="M507 -227q-51 0 -84 25.5t-33 70.5q0 43 26.5 77.5t58.5 53.5h-40l-39 155h-197l-40 -155h-150l203 652h176l203 -652q-41 -4 -67 -31.5t-26 -61.5q0 -18 12 -28.5t29 -10.5q21 0 41 16l35 -74q-48 -37 -108 -37zM244 330l-15 -60h137l-15 60q-38 144 -52 210h-4
q-37 -159 -51 -210z" />
    <glyph glyph-name="aogonek" unicode="&#x105;" 
d="M446 -227q-51 0 -84 25.5t-33 73.5q0 78 87 126l-12 58h-4q-89 -68 -176 -68q-73 0 -118 43t-45 107q0 84 76.5 127.5t250.5 53.5q-8 72 -106 72q-59 0 -151 -46l-52 96q117 67 232 67q107 0 165.5 -56t58.5 -168v-284q-53 -16 -80 -41.5t-27 -52.5q0 -23 15.5 -34.5
t37.5 -11.5q29 0 46 14l31 -65q-44 -36 -112 -36zM271 102q56 0 117 47v82q-103 -6 -144.5 -26.5t-41.5 -55.5q0 -47 69 -47z" />
    <glyph glyph-name="Cacute" unicode="&#x106;" 
d="M356 -12q-128 0 -215 88.5t-87 245.5q0 158 88 250t223 92q110 0 195 -83l-81 -91q-52 47 -114 47q-70 0 -115 -57t-45 -153q0 -99 45.5 -155.5t120.5 -56.5q65 0 118 58l81 -89q-81 -96 -214 -96zM316 680l-65 74l171 140l78 -95z" />
    <glyph glyph-name="cacute" unicode="&#x107;" 
d="M343 -12q-121 0 -198.5 69.5t-77.5 190.5q0 119 83.5 189.5t203.5 70.5q114 0 186 -67l-68 -91q-55 39 -110 39q-64 0 -104 -38.5t-40 -102.5t38.5 -102.5t100.5 -38.5q63 0 131 47l59 -93q-88 -73 -204 -73zM336 561l-72 72l153 182l100 -98z" />
    <glyph glyph-name="Ccircumflex" unicode="&#x108;" 
d="M356 -12q-128 0 -215 88.5t-87 245.5q0 158 88 250t223 92q110 0 195 -83l-81 -91q-52 47 -114 47q-70 0 -115 -57t-45 -153q0 -99 45.5 -155.5t120.5 -56.5q65 0 118 58l81 -89q-81 -96 -214 -96zM247 685l-64 39l90 111h160l90 -111l-64 -39l-104 84h-4z" />
    <glyph glyph-name="ccircumflex" unicode="&#x109;" 
d="M343 -12q-121 0 -198.5 69.5t-77.5 190.5q0 119 83.5 189.5t203.5 70.5q114 0 186 -67l-68 -91q-55 39 -110 39q-64 0 -104 -38.5t-40 -102.5t38.5 -102.5t100.5 -38.5q63 0 131 47l59 -93q-88 -73 -204 -73zM215 561l-56 52l108 131h150l108 -131l-56 -52l-125 92h-4z
" />
    <glyph glyph-name="Cdotaccent" unicode="&#x10a;" 
d="M356 -12q-128 0 -215 88.5t-87 245.5q0 158 88 250t223 92q110 0 195 -83l-81 -91q-52 47 -114 47q-70 0 -115 -57t-45 -153q0 -99 45.5 -155.5t120.5 -56.5q65 0 118 58l81 -89q-81 -96 -214 -96zM353 701q-40 0 -65 23.5t-25 60.5t25 60t65 23t65 -23t25 -60t-25 -60.5
t-65 -23.5z" />
    <glyph glyph-name="cdotaccent" unicode="&#x10b;" 
d="M343 -12q-121 0 -198.5 69.5t-77.5 190.5q0 119 83.5 189.5t203.5 70.5q114 0 186 -67l-68 -91q-55 39 -110 39q-64 0 -104 -38.5t-40 -102.5t38.5 -102.5t100.5 -38.5q63 0 131 47l59 -93q-88 -73 -204 -73zM342 574q-43 0 -70.5 24.5t-27.5 64.5t27.5 66t70.5 26
t70.5 -26t27.5 -66t-27.5 -64.5t-70.5 -24.5z" />
    <glyph glyph-name="Ccaron" unicode="&#x10c;" 
d="M356 -12q-128 0 -215 88.5t-87 245.5q0 158 88 250t223 92q110 0 195 -83l-81 -91q-52 47 -114 47q-70 0 -115 -57t-45 -153q0 -99 45.5 -155.5t120.5 -56.5q65 0 118 58l81 -89q-81 -96 -214 -96zM273 702l-90 110l64 40l104 -84h4l104 84l64 -40l-90 -110h-160z" />
    <glyph glyph-name="ccaron" unicode="&#x10d;" 
d="M343 -12q-121 0 -198.5 69.5t-77.5 190.5q0 119 83.5 189.5t203.5 70.5q114 0 186 -67l-68 -91q-55 39 -110 39q-64 0 -104 -38.5t-40 -102.5t38.5 -102.5t100.5 -38.5q63 0 131 47l59 -93q-88 -73 -204 -73zM267 577l-108 131l56 52l125 -92h4l125 92l56 -52l-108 -131
h-150z" />
    <glyph glyph-name="Dcaron" unicode="&#x10e;" 
d="M70 0v652h180q148 0 231 -80t83 -243t-82 -246t-223 -83h-189zM218 119h24q171 0 171 210q0 111 -44.5 157.5t-126.5 46.5h-24v-414zM220 702l-90 110l64 40l104 -84h4l104 84l64 -40l-90 -110h-160z" />
    <glyph glyph-name="dcaron" unicode="&#x10f;" 
d="M219 -12q-85 0 -135 69.5t-50 190.5q0 116 56 188t131 72q56 0 109 -53h3l-6 77v169h138v-701h-111l-11 51h-4q-63 -63 -120 -63zM256 108q34 0 71 46v201q-37 33 -67 33q-36 0 -60 -35.5t-24 -102.5q0 -142 80 -142zM509 548l-6 274h131l-2 -98l-24 -176h-99z" />
    <glyph glyph-name="Dcroat" unicode="&#x110;" 
d="M70 0v298h-70v69l70 6v279h181q147 0 230 -80t83 -243t-82.5 -246t-222.5 -83h-189zM218 119h24q171 0 171 210q0 110 -44.5 157t-126.5 47h-24v-160h108v-75h-108v-179z" />
    <glyph glyph-name="dcroat" unicode="&#x111;" 
d="M257 -12q-96 0 -153 67t-57 183q0 112 63.5 181t148.5 69q73 0 125 -54h4l-7 77v42h-156v76h156v71h147v-71h66v-70l-66 -5v-554h-120l-11 51h-3q-65 -63 -137 -63zM294 108q51 0 87 47v180q-39 33 -81 33q-45 0 -73.5 -33t-28.5 -96q0 -131 96 -131z" />
    <glyph glyph-name="Emacron" unicode="&#x112;" 
d="M92 0v652h432v-124h-284v-131h241v-123h-241v-150h294v-124h-442zM172 721v94h302v-94h-302z" />
    <glyph glyph-name="emacron" unicode="&#x113;" 
d="M330 -12q-120 0 -197.5 69.5t-77.5 190.5q0 117 76.5 188.5t181.5 71.5q111 0 172.5 -66.5t61.5 -171.5q0 -24 -7 -66h-338q20 -104 148 -104q61 0 128 35l49 -89q-92 -58 -197 -58zM318 396q-92 0 -114 -93h212q-11 93 -98 93zM164 592v93h296v-93h-296z" />
    <glyph glyph-name="Ebreve" unicode="&#x114;" 
d="M92 0v652h432v-124h-284v-131h241v-123h-241v-150h294v-124h-442zM323 697q-149 0 -163 137l80 14q14 -66 83 -66t83 66l80 -14q-14 -137 -163 -137z" />
    <glyph glyph-name="ebreve" unicode="&#x115;" 
d="M330 -12q-120 0 -197.5 69.5t-77.5 190.5q0 117 76.5 188.5t181.5 71.5q111 0 172.5 -66.5t61.5 -171.5q0 -24 -7 -66h-338q20 -104 148 -104q61 0 128 35l49 -89q-92 -58 -197 -58zM318 396q-92 0 -114 -93h212q-11 93 -98 93zM312 572q-82 0 -124.5 43.5t-44.5 113.5
l84 14q5 -35 26 -57t59 -22t59 22t26 57l84 -14q-2 -70 -44.5 -113.5t-124.5 -43.5z" />
    <glyph glyph-name="Edotaccent" unicode="&#x116;" 
d="M92 0v652h432v-124h-284v-131h241v-123h-241v-150h294v-124h-442zM323 701q-40 0 -65 23.5t-25 60.5t25 60t65 23t65 -23t25 -60t-25 -60.5t-65 -23.5z" />
    <glyph glyph-name="edotaccent" unicode="&#x117;" 
d="M330 -12q-120 0 -197.5 69.5t-77.5 190.5q0 117 76.5 188.5t181.5 71.5q111 0 172.5 -66.5t61.5 -171.5q0 -24 -7 -66h-338q20 -104 148 -104q61 0 128 35l49 -89q-92 -58 -197 -58zM318 396q-92 0 -114 -93h212q-11 93 -98 93zM312 574q-43 0 -70.5 24.5t-27.5 64.5
t27.5 66t70.5 26t70.5 -26t27.5 -66t-27.5 -64.5t-70.5 -24.5z" />
    <glyph glyph-name="Eogonek" unicode="&#x118;" 
d="M449 -227q-51 0 -84 25.5t-33 70.5q0 42 25 76.5t57 54.5h-320v652h430v-124h-283v-131h240v-123h-240v-150h293v-124h-5q-35 -1 -62 -30t-27 -63q0 -19 13 -29t31 -10q15 0 38 16l35 -74q-48 -37 -108 -37z" />
    <glyph glyph-name="eogonek" unicode="&#x119;" 
d="M415 -227q-53 0 -85 25.5t-32 73.5q0 61 67 119q-16 -3 -35 -3q-120 0 -197.5 69.5t-77.5 190.5q0 117 76.5 188.5t181.5 71.5q111 0 172.5 -66.5t61.5 -171.5q0 -24 -7 -66h-338q20 -104 148 -104q61 0 128 35l49 -89q-77 -51 -103.5 -79.5t-26.5 -60.5q0 -22 15 -34
t38 -12q26 0 46 15l32 -66q-45 -36 -113 -36zM318 396q-92 0 -114 -93h212q-11 93 -98 93z" />
    <glyph glyph-name="Ecaron" unicode="&#x11a;" 
d="M92 0v652h432v-124h-284v-131h241v-123h-241v-150h294v-124h-442zM243 702l-90 110l64 40l104 -84h4l104 84l64 -40l-90 -110h-160z" />
    <glyph glyph-name="ecaron" unicode="&#x11b;" 
d="M330 -12q-120 0 -197.5 69.5t-77.5 190.5q0 117 76.5 188.5t181.5 71.5q111 0 172.5 -66.5t61.5 -171.5q0 -24 -7 -66h-338q20 -104 148 -104q61 0 128 35l49 -89q-92 -58 -197 -58zM318 396q-92 0 -114 -93h212q-11 93 -98 93zM237 577l-108 131l56 52l125 -92h4l125 92
l56 -52l-108 -131h-150z" />
    <glyph glyph-name="Gcircumflex" unicode="&#x11c;" 
d="M343 -12q-131 0 -215 87.5t-84 246.5t85 250.5t216 91.5q108 0 191 -83l-81 -91q-47 47 -110 47q-65 0 -107 -57t-42 -153q0 -102 39.5 -157t115.5 -55q42 0 64 20v112h-95v120h227v-300q-36 -33 -90.5 -56t-113.5 -23zM224 685l-64 39l90 111h160l90 -111l-64 -39
l-104 84h-4z" />
    <glyph glyph-name="gcircumflex" unicode="&#x11d;" 
d="M277 -211q-102 0 -163.5 31.5t-61.5 95.5q0 61 77 99v4q-50 30 -50 85q0 24 16 49.5t43 43.5v4q-65 43 -65 127q0 85 61.5 132.5t150.5 47.5q46 0 82 -12h201v-108h-100q22 -30 22 -65q0 -82 -57 -124t-148 -42q-32 0 -68 10q-22 -16 -22 -37q0 -37 84 -37h92
q201 0 201 -125q0 -79 -81 -129t-214 -50zM285 246q32 0 53.5 21.5t21.5 60.5q0 38 -21.5 59.5t-53.5 21.5t-53 -21.5t-21 -59.5q0 -39 21 -60.5t53 -21.5zM298 -118q59 0 96.5 17t37.5 43q0 23 -20.5 30.5t-66.5 7.5h-62q-51 0 -76 7q-35 -22 -35 -49q0 -56 126 -56z
M177 561l-56 52l108 131h150l108 -131l-56 -52l-125 92h-4z" />
    <glyph glyph-name="Gbreve" unicode="&#x11e;" 
d="M343 -12q-131 0 -215 87.5t-84 246.5t85 250.5t216 91.5q108 0 191 -83l-81 -91q-47 47 -110 47q-65 0 -107 -57t-42 -153q0 -102 39.5 -157t115.5 -55q42 0 64 20v112h-95v120h227v-300q-36 -33 -90.5 -56t-113.5 -23zM330 697q-149 0 -163 137l80 14q14 -66 83 -66
t83 66l80 -14q-14 -137 -163 -137z" />
    <glyph glyph-name="gbreve" unicode="&#x11f;" 
d="M277 -211q-102 0 -163.5 31.5t-61.5 95.5q0 61 77 99v4q-50 30 -50 85q0 24 16 49.5t43 43.5v4q-65 43 -65 127q0 85 61.5 132.5t150.5 47.5q46 0 82 -12h201v-108h-100q22 -30 22 -65q0 -82 -57 -124t-148 -42q-32 0 -68 10q-22 -16 -22 -37q0 -37 84 -37h92
q201 0 201 -125q0 -79 -81 -129t-214 -50zM285 246q32 0 53.5 21.5t21.5 60.5q0 38 -21.5 59.5t-53.5 21.5t-53 -21.5t-21 -59.5q0 -39 21 -60.5t53 -21.5zM298 -118q59 0 96.5 17t37.5 43q0 23 -20.5 30.5t-66.5 7.5h-62q-51 0 -76 7q-35 -22 -35 -49q0 -56 126 -56z
M304 572q-82 0 -124.5 43.5t-44.5 113.5l84 14q5 -35 26 -57t59 -22t59 22t26 57l84 -14q-2 -70 -44.5 -113.5t-124.5 -43.5z" />
    <glyph glyph-name="Gdotaccent" unicode="&#x120;" 
d="M343 -12q-131 0 -215 87.5t-84 246.5t85 250.5t216 91.5q108 0 191 -83l-81 -91q-47 47 -110 47q-65 0 -107 -57t-42 -153q0 -102 39.5 -157t115.5 -55q42 0 64 20v112h-95v120h227v-300q-36 -33 -90.5 -56t-113.5 -23zM330 701q-40 0 -65 23.5t-25 60.5t25 60t65 23
t65 -23t25 -60t-25 -60.5t-65 -23.5z" />
    <glyph glyph-name="gdotaccent" unicode="&#x121;" 
d="M277 -211q-102 0 -163.5 31.5t-61.5 95.5q0 61 77 99v4q-50 30 -50 85q0 24 16 49.5t43 43.5v4q-65 43 -65 127q0 85 61.5 132.5t150.5 47.5q46 0 82 -12h201v-108h-100q22 -30 22 -65q0 -82 -57 -124t-148 -42q-32 0 -68 10q-22 -16 -22 -37q0 -37 84 -37h92
q201 0 201 -125q0 -79 -81 -129t-214 -50zM285 246q32 0 53.5 21.5t21.5 60.5q0 38 -21.5 59.5t-53.5 21.5t-53 -21.5t-21 -59.5q0 -39 21 -60.5t53 -21.5zM298 -118q59 0 96.5 17t37.5 43q0 23 -20.5 30.5t-66.5 7.5h-62q-51 0 -76 7q-35 -22 -35 -49q0 -56 126 -56z
M304 574q-43 0 -70.5 24.5t-27.5 64.5t27.5 66t70.5 26t70.5 -26t27.5 -66t-27.5 -64.5t-70.5 -24.5z" />
    <glyph glyph-name="uni0122" unicode="&#x122;" 
d="M343 -12q-131 0 -215 87.5t-84 246.5t85 250.5t216 91.5q108 0 191 -83l-81 -91q-47 47 -110 47q-65 0 -107 -57t-42 -153q0 -102 39.5 -157t115.5 -55q42 0 64 20v112h-95v120h227v-300q-36 -33 -90.5 -56t-113.5 -23zM221 -239l-11 59q57 3 80 12t23 27q0 29 -64 35
l28 54q78 -7 109.5 -26.5t31.5 -57.5q0 -97 -197 -103z" />
    <glyph glyph-name="uni0123" unicode="&#x123;" 
d="M277 -211q-102 0 -163.5 31.5t-61.5 95.5q0 61 77 99v4q-50 30 -50 85q0 24 16 49.5t43 43.5v4q-65 43 -65 127q0 85 61.5 132.5t150.5 47.5q46 0 82 -12h201v-108h-100q22 -30 22 -65q0 -82 -57 -124t-148 -42q-32 0 -68 10q-22 -16 -22 -37q0 -37 84 -37h92
q201 0 201 -125q0 -79 -81 -129t-214 -50zM285 246q32 0 53.5 21.5t21.5 60.5q0 38 -21.5 59.5t-53.5 21.5t-53 -21.5t-21 -59.5q0 -39 21 -60.5t53 -21.5zM298 -118q59 0 96.5 17t37.5 43q0 23 -20.5 30.5t-66.5 7.5h-62q-51 0 -76 7q-35 -22 -35 -49q0 -56 126 -56z
M350 568q-78 7 -109.5 26.5t-31.5 57.5q0 97 197 103l11 -59q-58 -3 -80.5 -12t-22.5 -27q0 -29 64 -35z" />
    <glyph glyph-name="Hcircumflex" unicode="&#x124;" 
d="M64 0v652h147v-251h178v251h147v-652h-147v272h-178v-272h-147zM194 685l-64 39l90 111h160l90 -111l-64 -39l-104 84h-4z" />
    <glyph glyph-name="hcircumflex" unicode="&#x125;" 
d="M72 0v701h147v-172l-8 -95h3q72 74 165 74q81 0 121 -53t40 -149v-306h-147v287q0 50 -16.5 73t-56.5 23q-28 0 -50.5 -12t-50.5 -40v-331h-147zM39 745l-64 39l90 111h160l90 -111l-64 -39l-104 84h-4z" />
    <glyph glyph-name="Hbar" unicode="&#x126;" 
d="M3 484v69l61 5v94h147v-93h178v93h147v-93h61v-75h-61v-484h-147v272h-178v-272h-147v484h-61zM211 401h178v83h-178v-83z" />
    <glyph glyph-name="hbar" unicode="&#x127;" 
d="M72 0v553h-66v70l66 5v72h147v-71h182v-76h-182v-43l-9 -96h4q72 74 165 74q81 0 121 -53t40 -149v-286h-147v267q0 50 -16.5 73t-56.5 23q-28 0 -50.5 -12t-50.5 -40v-311h-147z" />
    <glyph glyph-name="Itilde" unicode="&#x128;" 
d="M74 0v124h152v404h-152v124h452v-124h-152v-404h152v-124h-452zM371 692q-40 0 -82.5 29t-54.5 29q-32 0 -37 -49l-95 7q4 73 38 108.5t89 35.5q40 0 82.5 -29t54.5 -29q32 0 37 49l95 -7q-4 -72 -38 -108t-89 -36z" />
    <glyph glyph-name="itilde" unicode="&#x129;" 
d="M278 0v381h-199v115h346v-496h-147zM411 573q-35 0 -76 32t-53 32q-29 0 -35 -55l-92 5q4 152 124 152q35 0 76 -32t53 -32q29 0 35 55l92 -5q-4 -152 -124 -152z" />
    <glyph glyph-name="Imacron" unicode="&#x12a;" 
d="M74 0v124h152v404h-152v124h452v-124h-152v-404h152v-124h-452zM149 721v94h302v-94h-302z" />
    <glyph glyph-name="imacron" unicode="&#x12b;" 
d="M278 0v381h-199v115h346v-496h-147zM197 592v93h296v-93h-296z" />
    <glyph glyph-name="Ibreve" unicode="&#x12c;" 
d="M74 0v124h152v404h-152v124h452v-124h-152v-404h152v-124h-452zM300 697q-149 0 -163 137l80 14q14 -66 83 -66t83 66l80 -14q-14 -137 -163 -137z" />
    <glyph glyph-name="ibreve" unicode="&#x12d;" 
d="M278 0v381h-199v115h346v-496h-147zM345 572q-82 0 -124.5 43.5t-44.5 113.5l84 14q5 -35 26 -57t59 -22t59 22t26 57l84 -14q-2 -70 -44.5 -113.5t-124.5 -43.5z" />
    <glyph glyph-name="Iogonek" unicode="&#x12e;" 
d="M307 -227q-51 0 -83.5 25.5t-32.5 70.5q0 74 75 131h-192v124h152v404h-152v124h452v-124h-152v-404h152v-124h-151q-77 -33 -77 -93q0 -19 13 -29t31 -10t39 16l34 -74q-48 -37 -108 -37z" />
    <glyph glyph-name="iogonek" unicode="&#x12f;" 
d="M351 -227q-51 0 -84 25.5t-33 73.5q0 78 86 128h-42v381h-199v115h346v-497q-92 -32 -92 -93q0 -22 15.5 -34t37.5 -12t46 14l31 -65q-44 -36 -112 -36zM345 574q-43 0 -70.5 24.5t-27.5 64.5t27.5 66t70.5 26t70.5 -26t27.5 -66t-27.5 -64.5t-70.5 -24.5z" />
    <glyph glyph-name="Idotaccent" unicode="&#x130;" 
d="M74 0v124h152v404h-152v124h452v-124h-152v-404h152v-124h-452zM300 701q-40 0 -65 23.5t-25 60.5t25 60t65 23t65 -23t25 -60t-25 -60.5t-65 -23.5z" />
    <glyph glyph-name="dotlessi" unicode="&#x131;" 
d="M278 0v381h-199v115h346v-496h-147z" />
    <glyph glyph-name="IJ" unicode="&#x132;" 
d="M74 0v652h148v-652h-148zM343 -182q-50 0 -94 16l26 109q29 -9 45 -9q32 0 45 19t13 61v638h148v-634q0 -200 -183 -200z" />
    <glyph glyph-name="ij" unicode="&#x133;" 
d="M77 0v496h147v-496h-147zM151 569q-38 0 -62 22t-24 56t24 56t62 22t62 -22t24 -56t-24 -56t-62 -22zM357 -196q-52 0 -87 14l26 108q23 -7 39 -7q29 0 40.5 19t11.5 61v497h147v-493q0 -199 -177 -199zM461 569q-38 0 -62 22t-24 56t24 56t62 22t62 -22t24 -56t-24 -56
t-62 -22z" />
    <glyph glyph-name="Jcircumflex" unicode="&#x134;" 
d="M273 -12q-137 0 -214 108l85 91q57 -72 124 -72q52 0 76.5 27t24.5 92v295h-255v123h402v-430q0 -105 -58 -169.5t-185 -64.5zM222 685l-64 39l90 111h160l90 -111l-64 -39l-104 84h-4z" />
    <glyph glyph-name="jcircumflex" unicode="&#x135;" 
d="M195 -196q-80 0 -153 34l43 105q53 -24 101 -24q52 0 72 24.5t20 80.5v357h-199v115h346v-466q0 -226 -230 -226zM218 561l-56 52l108 131h150l108 -131l-56 -52l-125 92h-4z" />
    <glyph glyph-name="uni0136" unicode="&#x136;" 
d="M68 0v652h149v-267h3l193 267h163l-196 -259l214 -393h-163l-139 277l-75 -99v-178h-149zM223 -239l-11 59q57 3 80 12t23 27q0 29 -64 35l28 54q78 -7 109.5 -26.5t31.5 -57.5q0 -97 -197 -103z" />
    <glyph glyph-name="uni0137" unicode="&#x137;" 
d="M76 0v701h147v-405h4l182 200h161l-189 -202l204 -294h-159l-130 203l-73 -78v-125h-147zM222 -239l-11 59q57 3 80 12t23 27q0 29 -64 35l28 54q78 -7 109.5 -26.5t31.5 -57.5q0 -97 -197 -103z" />
    <glyph glyph-name="kgreenlandic" unicode="&#x138;" 
d="M76 0v496h147v-197l3 1l183 196h161l-188 -204l203 -292h-159l-129 195l-74 -72v-123h-147z" />
    <glyph glyph-name="Lacute" unicode="&#x139;" 
d="M107 0v652h147v-528h290v-124h-437zM156 680l-65 74l171 140l78 -95z" />
    <glyph glyph-name="lacute" unicode="&#x13a;" 
d="M395 -12q-91 0 -140 55t-49 151v391h-145v116h292v-513q0 -43 23 -62t58 -19q37 0 77 16l33 -108q-83 -27 -149 -27zM237 740l-65 74l171 140l78 -95z" />
    <glyph glyph-name="uni013B" unicode="&#x13b;" 
d="M107 0v652h147v-528h290v-124h-437zM233 -239l-11 59q57 3 80 12t23 27q0 29 -64 35l28 54q78 -7 109.5 -26.5t31.5 -57.5q0 -97 -197 -103z" />
    <glyph glyph-name="uni013C" unicode="&#x13c;" 
d="M395 -12q-91 0 -140 55t-49 151v391h-145v116h292v-513q0 -43 23 -62t58 -19q37 0 77 16l33 -108q-83 -27 -149 -27zM265 -239l-11 59q57 3 80 12t23 27q0 29 -64 35l28 54q78 -7 109.5 -26.5t31.5 -57.5q0 -97 -197 -103z" />
    <glyph glyph-name="Lcaron" unicode="&#x13d;" 
d="M107 0v652h147v-528h290v-124h-437zM369 510l-6 274h131l-2 -98l-24 -176h-99z" />
    <glyph glyph-name="lcaron" unicode="&#x13e;" 
d="M395 -12q-91 0 -140 55t-49 151v391h-145v116h292v-513q0 -43 23 -62t58 -19q37 0 77 16l33 -108q-83 -27 -149 -27zM414 548l-6 274h131l-2 -98l-24 -176h-99z" />
    <glyph glyph-name="Ldot" unicode="&#x13f;" 
d="M107 0v652h147v-528h290v-124h-437zM475 269q-43 0 -70.5 24.5t-27.5 64.5t27.5 66t70.5 26t70.5 -26t27.5 -66t-27.5 -64.5t-70.5 -24.5z" />
    <glyph glyph-name="ldot" unicode="&#x140;" 
d="M345 -12q-91 0 -140 55t-49 151v391h-145v116h292v-513q0 -43 23 -62t58 -19q37 0 77 16l33 -108q-83 -27 -149 -27zM555 267q-43 0 -70.5 24.5t-27.5 64.5t27.5 66t70.5 26t70.5 -26t27.5 -66t-27.5 -64.5t-70.5 -24.5z" />
    <glyph glyph-name="Lslash" unicode="&#x141;" 
d="M43 170l-50 88l114 64v330h147v-263l180 100l49 -88l-229 -126v-151h290v-124h-437v208z" />
    <glyph glyph-name="lslash" unicode="&#x142;" 
d="M395 -12q-91 0 -140 55t-49 151v83l-85 -49l-50 92l135 75v190h-145v116h292v-235l122 68l50 -92l-172 -94v-160q0 -43 23 -62t58 -19q37 0 77 16l33 -108q-83 -27 -149 -27z" />
    <glyph glyph-name="Nacute" unicode="&#x143;" 
d="M66 0v652h151l137 -324l56 -144h4q-1 15 -7.5 69t-10 93.5t-3.5 74.5v231h141v-652h-151l-137 325l-56 142h-4q2 -20 8 -71t9.5 -91t3.5 -74v-231h-141zM273 680l-65 74l171 140l78 -95z" />
    <glyph glyph-name="nacute" unicode="&#x144;" 
d="M72 0v496h120l11 -66h4q80 78 171 78q82 0 122 -52.5t40 -149.5v-306h-147v287q0 50 -16.5 73t-56.5 23q-28 0 -50.5 -12t-50.5 -40v-331h-147zM309 561l-72 72l153 182l100 -98z" />
    <glyph glyph-name="uni0145" unicode="&#x145;" 
d="M66 0v652h151l137 -324l56 -144h4q-1 15 -7.5 69t-10 93.5t-3.5 74.5v231h141v-652h-151l-137 325l-56 142h-4q2 -20 8 -71t9.5 -91t3.5 -74v-231h-141zM198 -239l-11 59q57 3 80 12t23 27q0 29 -64 35l28 54q78 -7 109.5 -26.5t31.5 -57.5q0 -97 -197 -103z" />
    <glyph glyph-name="uni0146" unicode="&#x146;" 
d="M72 0v496h120l11 -66h4q80 78 171 78q82 0 122 -52.5t40 -149.5v-306h-147v287q0 50 -16.5 73t-56.5 23q-28 0 -50.5 -12t-50.5 -40v-331h-147zM204 -239l-11 59q57 3 80 12t23 27q0 29 -64 35l28 54q78 -7 109.5 -26.5t31.5 -57.5q0 -97 -197 -103z" />
    <glyph glyph-name="Ncaron" unicode="&#x147;" 
d="M66 0v652h151l137 -324l56 -144h4q-1 15 -7.5 69t-10 93.5t-3.5 74.5v231h141v-652h-151l-137 325l-56 142h-4q2 -20 8 -71t9.5 -91t3.5 -74v-231h-141zM230 702l-90 110l64 40l104 -84h4l104 84l64 -40l-90 -110h-160z" />
    <glyph glyph-name="ncaron" unicode="&#x148;" 
d="M72 0v496h120l11 -66h4q80 78 171 78q82 0 122 -52.5t40 -149.5v-306h-147v287q0 50 -16.5 73t-56.5 23q-28 0 -50.5 -12t-50.5 -40v-331h-147zM240 577l-108 131l56 52l125 -92h4l125 92l56 -52l-108 -131h-150z" />
    <glyph glyph-name="napostrophe" unicode="&#x149;" 
d="M216 0v496h120l11 -64h4q72 76 150 76q143 0 143 -200v-308h-147v289q0 49 -12.5 71.5t-42.5 22.5q-22 0 -38 -11t-41 -39v-333h-147zM-7 290l-39 78q105 47 111 139q-9 -3 -19 -3q-41 0 -66.5 25.5t-25.5 66.5q0 45 27 73t69 28q56 0 86.5 -42.5t30.5 -117.5
q0 -167 -174 -247z" />
    <glyph glyph-name="Eng" unicode="&#x14a;" 
d="M361 -12q-54 0 -82 17l32 128q18 -8 33 -8q21 0 33.5 16t20 62t7.5 128q0 206 -91 206q-59 0 -101 -74v-463h-148v652h143v-62q63 74 144 74q93 0 148.5 -80t55.5 -253q0 -178 -45 -260.5t-150 -82.5z" />
    <glyph glyph-name="eng" unicode="&#x14b;" 
d="M369 -187q-46 0 -86 14l26 109q23 -7 37 -7q47 0 47 81v277q0 50 -16.5 73t-56.5 23q-28 0 -50.5 -12t-50.5 -40v-331h-147v496h120l11 -66h4q80 78 171 78q82 0 122 -52.5t40 -149.5v-291q0 -90 -41 -146t-130 -56z" />
    <glyph glyph-name="Omacron" unicode="&#x14c;" 
d="M300 -12q-119 0 -190.5 89t-71.5 252q0 160 71.5 247.5t190.5 87.5t190.5 -87.5t71.5 -247.5q0 -163 -71.5 -252t-190.5 -89zM300 115q52 0 81.5 55t29.5 159q0 100 -29.5 154t-81.5 54t-81.5 -54t-29.5 -154q0 -104 29.5 -159t81.5 -55zM149 721v94h302v-94h-302z" />
    <glyph glyph-name="omacron" unicode="&#x14d;" 
d="M300 -12q-104 0 -178.5 70.5t-74.5 189.5t74.5 189.5t178.5 70.5t178.5 -70.5t74.5 -189.5t-74.5 -189.5t-178.5 -70.5zM300 107q50 0 76 37.5t26 103.5t-26 103.5t-76 37.5t-76 -37.5t-26 -103.5t26 -103.5t76 -37.5zM152 592v93h296v-93h-296z" />
    <glyph glyph-name="Obreve" unicode="&#x14e;" 
d="M300 -12q-119 0 -190.5 89t-71.5 252q0 160 71.5 247.5t190.5 87.5t190.5 -87.5t71.5 -247.5q0 -163 -71.5 -252t-190.5 -89zM300 115q52 0 81.5 55t29.5 159q0 100 -29.5 154t-81.5 54t-81.5 -54t-29.5 -154q0 -104 29.5 -159t81.5 -55zM300 697q-149 0 -163 137l80 14
q14 -66 83 -66t83 66l80 -14q-14 -137 -163 -137z" />
    <glyph glyph-name="obreve" unicode="&#x14f;" 
d="M300 -12q-104 0 -178.5 70.5t-74.5 189.5t74.5 189.5t178.5 70.5t178.5 -70.5t74.5 -189.5t-74.5 -189.5t-178.5 -70.5zM300 107q50 0 76 37.5t26 103.5t-26 103.5t-76 37.5t-76 -37.5t-26 -103.5t26 -103.5t76 -37.5zM300 572q-82 0 -124.5 43.5t-44.5 113.5l84 14
q5 -35 26 -57t59 -22t59 22t26 57l84 -14q-2 -70 -44.5 -113.5t-124.5 -43.5z" />
    <glyph glyph-name="Ohungarumlaut" unicode="&#x150;" 
d="M300 -12q-119 0 -190.5 89t-71.5 252q0 160 71.5 247.5t190.5 87.5t190.5 -87.5t71.5 -247.5q0 -163 -71.5 -252t-190.5 -89zM300 115q52 0 81.5 55t29.5 159q0 100 -29.5 154t-81.5 54t-81.5 -54t-29.5 -154q0 -104 29.5 -159t81.5 -55zM234 694l-73 34l101 161l94 -52z
M421 694l-72 34l100 161l94 -52z" />
    <glyph glyph-name="ohungarumlaut" unicode="&#x151;" 
d="M300 -12q-104 0 -178.5 70.5t-74.5 189.5t74.5 189.5t178.5 70.5t178.5 -70.5t74.5 -189.5t-74.5 -189.5t-178.5 -70.5zM300 107q50 0 76 37.5t26 103.5t-26 103.5t-76 37.5t-76 -37.5t-26 -103.5t26 -103.5t76 -37.5zM247 565l-78 35l88 181l98 -44zM426 565l-78 35
l88 181l98 -44z" />
    <glyph glyph-name="OE" unicode="&#x152;" 
d="M287 0q-121 0 -194.5 83.5t-73.5 245.5q0 161 75.5 242t200.5 81h290v-123h-160v-132h121v-123h-121v-150h170v-124h-308zM278 119h16v414h-16q-53 0 -80.5 -46t-27.5 -158q0 -113 27.5 -161.5t80.5 -48.5z" />
    <glyph glyph-name="oe" unicode="&#x153;" 
d="M205 107q26 0 40.5 38t14.5 103t-14.5 103.5t-40.5 38.5q-61 0 -61 -142q0 -141 61 -141zM194 -12q-78 0 -130 70t-52 190t53 190t132 70q83 0 119 -91q18 46 51.5 68.5t70.5 22.5q73 0 114 -68t41 -171q0 -23 -6 -65h-228q8 -50 33.5 -75.5t60.5 -25.5t74 27l51 -95
q-60 -47 -130 -47q-40 0 -76 21t-55 65q-37 -86 -123 -86zM424 396q-23 0 -41 -24.5t-24 -74.5h119q-2 52 -15 75.5t-39 23.5z" />
    <glyph glyph-name="Racute" unicode="&#x154;" 
d="M70 0v652h231q252 0 252 -203q0 -136 -116 -188l147 -261h-165l-125 235h-77v-235h-147zM217 352h72q119 0 119 97q0 47 -29 66.5t-90 19.5h-72v-183zM264 680l-65 74l171 140l78 -95z" />
    <glyph glyph-name="racute" unicode="&#x155;" 
d="M116 0v496h120l12 -108h3q73 120 201 120q51 0 96 -20l-30 -123q-48 14 -88 14q-110 0 -167 -121v-258h-147zM343 561l-72 72l153 182l100 -98z" />
    <glyph glyph-name="uni0156" unicode="&#x156;" 
d="M70 0v652h231q252 0 252 -203q0 -136 -116 -188l147 -261h-165l-125 235h-77v-235h-147zM217 352h72q119 0 119 97q0 47 -29 66.5t-90 19.5h-72v-183zM218 -239l-11 59q57 3 80 12t23 27q0 29 -64 35l28 54q78 -7 109.5 -26.5t31.5 -57.5q0 -97 -197 -103z" />
    <glyph glyph-name="uni0157" unicode="&#x157;" 
d="M116 0v496h120l12 -108h3q73 120 201 120q51 0 96 -20l-30 -123q-48 14 -88 14q-110 0 -167 -121v-258h-147zM93 -239l-11 59q57 3 80 12t23 27q0 29 -64 35l28 54q78 -7 109.5 -26.5t31.5 -57.5q0 -97 -197 -103z" />
    <glyph glyph-name="Rcaron" unicode="&#x158;" 
d="M70 0v652h231q252 0 252 -203q0 -136 -116 -188l147 -261h-165l-125 235h-77v-235h-147zM217 352h72q119 0 119 97q0 47 -29 66.5t-90 19.5h-72v-183zM221 702l-90 110l64 40l104 -84h4l104 84l64 -40l-90 -110h-160z" />
    <glyph glyph-name="rcaron" unicode="&#x159;" 
d="M116 0v496h120l12 -108h3q73 120 201 120q51 0 96 -20l-30 -123q-48 14 -88 14q-110 0 -167 -121v-258h-147zM274 577l-108 131l56 52l125 -92h4l125 92l56 -52l-108 -131h-150z" />
    <glyph glyph-name="Sacute" unicode="&#x15a;" 
d="M298 -12q-142 0 -248 94l85 101q83 -68 173 -68q46 0 69 15.5t23 41.5q0 29 -19.5 43.5t-66.5 34.5l-15 6l-84 36q-61 23 -100 67.5t-39 110.5q0 82 67.5 138t171.5 56q126 0 217 -86l-75 -93q-71 52 -150 52q-37 0 -59.5 -15.5t-22.5 -43.5q0 -14 6.5 -24.5t25 -20.5
t31 -15l44.5 -17l79 -34q140 -52 140 -177q0 -85 -68 -143.5t-185 -58.5zM282 680l-65 74l171 140l78 -95z" />
    <glyph glyph-name="sacute" unicode="&#x15b;" 
d="M296 -12q-129 0 -243 76l63 92q95 -59 200 -59q79 0 79 42q0 21 -24 32t-98 27q-100 21 -144.5 58.5t-44.5 96.5q0 70 61.5 112.5t166.5 42.5q108 0 215 -68l-66 -88q-78 47 -162 47q-69 0 -69 -39q0 -19 21.5 -28t93.5 -25q112 -26 153.5 -61t41.5 -98q0 -70 -64.5 -115
t-179.5 -45zM306 561l-72 72l153 182l100 -98z" />
    <glyph glyph-name="Scircumflex" unicode="&#x15c;" 
d="M298 -12q-142 0 -248 94l85 101q83 -68 173 -68q46 0 69 15.5t23 41.5q0 29 -19.5 43.5t-66.5 34.5l-15 6l-84 36q-61 23 -100 67.5t-39 110.5q0 82 67.5 138t171.5 56q126 0 217 -86l-75 -93q-71 52 -150 52q-37 0 -59.5 -15.5t-22.5 -43.5q0 -14 6.5 -24.5t25 -20.5
t31 -15l44.5 -17l79 -34q140 -52 140 -177q0 -85 -68 -143.5t-185 -58.5zM213 685l-64 39l90 111h160l90 -111l-64 -39l-104 84h-4z" />
    <glyph glyph-name="scircumflex" unicode="&#x15d;" 
d="M296 -12q-129 0 -243 76l63 92q95 -59 200 -59q79 0 79 42q0 21 -24 32t-98 27q-100 21 -144.5 58.5t-44.5 96.5q0 70 61.5 112.5t166.5 42.5q108 0 215 -68l-66 -88q-78 47 -162 47q-69 0 -69 -39q0 -19 21.5 -28t93.5 -25q112 -26 153.5 -61t41.5 -98q0 -70 -64.5 -115
t-179.5 -45zM185 561l-56 52l108 131h150l108 -131l-56 -52l-125 92h-4z" />
    <glyph glyph-name="uni015E" unicode="&#x15e;" 
d="M203 -239l-11 59q58 3 80.5 13t22.5 31q0 32 -77 42l40 84q-120 13 -208 92l85 101q83 -68 173 -68q46 0 69 15.5t23 41.5q0 29 -19.5 43.5t-66.5 34.5l-15 6l-84 36q-61 23 -100 67.5t-39 110.5q0 82 67.5 138t171.5 56q126 0 217 -86l-75 -93q-71 52 -150 52
q-37 0 -59.5 -15.5t-22.5 -43.5q0 -14 6.5 -24.5t25 -20.5t31 -15l44.5 -17l79 -34q140 -52 140 -177q0 -76 -54.5 -131.5t-150.5 -67.5l-22 -52q39 -9 57.5 -26.5t18.5 -48.5q0 -97 -197 -103z" />
    <glyph glyph-name="uni015F" unicode="&#x15f;" 
d="M209 -239l-11 59q58 3 80.5 13t22.5 31q0 32 -77 42l40 83q-115 10 -211 75l63 92q95 -59 200 -59q79 0 79 42q0 21 -24 32t-98 27q-100 21 -144.5 58.5t-44.5 96.5q0 70 61.5 112.5t166.5 42.5q108 0 215 -68l-66 -88q-78 47 -162 47q-69 0 -69 -39q0 -19 21.5 -28
t93.5 -25q112 -26 153.5 -61t41.5 -98q0 -61 -49 -103.5t-139 -53.5l-22 -52q39 -9 57.5 -26.5t18.5 -48.5q0 -97 -197 -103z" />
    <glyph glyph-name="Scaron" unicode="&#x160;" 
d="M298 -12q-142 0 -248 94l85 101q83 -68 173 -68q46 0 69 15.5t23 41.5q0 29 -19.5 43.5t-66.5 34.5l-15 6l-84 36q-61 23 -100 67.5t-39 110.5q0 82 67.5 138t171.5 56q126 0 217 -86l-75 -93q-71 52 -150 52q-37 0 -59.5 -15.5t-22.5 -43.5q0 -14 6.5 -24.5t25 -20.5
t31 -15l44.5 -17l79 -34q140 -52 140 -177q0 -85 -68 -143.5t-185 -58.5zM239 702l-90 110l64 40l104 -84h4l104 84l64 -40l-90 -110h-160z" />
    <glyph glyph-name="scaron" unicode="&#x161;" 
d="M296 -12q-129 0 -243 76l63 92q95 -59 200 -59q79 0 79 42q0 21 -24 32t-98 27q-100 21 -144.5 58.5t-44.5 96.5q0 70 61.5 112.5t166.5 42.5q108 0 215 -68l-66 -88q-78 47 -162 47q-69 0 -69 -39q0 -19 21.5 -28t93.5 -25q112 -26 153.5 -61t41.5 -98q0 -70 -64.5 -115
t-179.5 -45zM237 577l-108 131l56 52l125 -92h4l125 92l56 -52l-108 -131h-150z" />
    <glyph glyph-name="uni0162" unicode="&#x162;" 
d="M226 0v528h-195v124h538v-124h-195v-528h-30l-25 -61q39 -9 57.5 -26.5t18.5 -48.5q0 -97 -197 -103l-11 59q58 3 80.5 13t22.5 31q0 32 -77 42l45 94h-32z" />
    <glyph glyph-name="uni0163" unicode="&#x163;" 
d="M273 -239l-11 59q58 3 80.5 13t22.5 31q0 32 -77 42l41 87q-155 27 -155 213v175h-125v109l132 6l19 152h121v-152h210v-115h-210v-174q0 -56 25 -80t80 -24q44 0 98 18l26 -106q-79 -23 -135 -26l-21 -50q39 -9 57.5 -26.5t18.5 -48.5q0 -97 -197 -103z" />
    <glyph glyph-name="Tcaron" unicode="&#x164;" 
d="M226 0v528h-195v124h538v-124h-195v-528h-148zM220 702l-90 110l64 40l104 -84h4l104 84l64 -40l-90 -110h-160z" />
    <glyph glyph-name="tcaron" unicode="&#x165;" 
d="M388 -12q-214 0 -214 218v175h-125v109l132 6l19 152h121v-152h210v-115h-210v-174q0 -56 25 -80t80 -24q44 0 98 18l26 -106q-91 -27 -162 -27zM384 548l-6 274h131l-2 -98l-24 -176h-99z" />
    <glyph glyph-name="Tbar" unicode="&#x166;" 
d="M93 283v69l94 6h39v170h-195v124h538v-124h-195v-170h133v-75h-133v-283h-148v283h-133z" />
    <glyph glyph-name="tbar" unicode="&#x167;" 
d="M50 217v70l124 6v88h-125v109l132 6l19 152h121v-152h210v-115h-210v-88h190v-76h-190v-10q0 -56 25 -80t80 -24q44 0 98 18l26 -106q-91 -27 -162 -27q-214 0 -214 218v11h-124z" />
    <glyph glyph-name="Utilde" unicode="&#x168;" 
d="M302 -12q-118 0 -178 67.5t-60 195.5v401h147v-416q0 -121 91 -121q92 0 92 121v416h142v-401q0 -128 -58.5 -195.5t-175.5 -67.5zM371 692q-40 0 -82.5 29t-54.5 29q-32 0 -37 -49l-95 7q4 73 38 108.5t89 35.5q40 0 82.5 -29t54.5 -29q32 0 37 49l95 -7
q-4 -72 -38 -108t-89 -36z" />
    <glyph glyph-name="utilde" unicode="&#x169;" 
d="M223 -12q-161 0 -161 202v306h147v-287q0 -51 16 -73.5t56 -22.5q29 0 50.5 12.5t46.5 44.5v326h147v-496h-120l-11 71h-4q-73 -83 -167 -83zM362 573q-27 0 -52.5 16t-45 32t-31.5 16q-29 0 -35 -55l-92 5q4 152 124 152q36 0 76.5 -32t52.5 -32q29 0 35 55l92 -5
q-4 -152 -124 -152z" />
    <glyph glyph-name="Umacron" unicode="&#x16a;" 
d="M302 -12q-118 0 -178 67.5t-60 195.5v401h147v-416q0 -121 91 -121q92 0 92 121v416h142v-401q0 -128 -58.5 -195.5t-175.5 -67.5zM149 721v94h302v-94h-302z" />
    <glyph glyph-name="umacron" unicode="&#x16b;" 
d="M223 -12q-161 0 -161 202v306h147v-287q0 -51 16 -73.5t56 -22.5q29 0 50.5 12.5t46.5 44.5v326h147v-496h-120l-11 71h-4q-73 -83 -167 -83zM148 592v93h296v-93h-296z" />
    <glyph glyph-name="Ubreve" unicode="&#x16c;" 
d="M302 -12q-118 0 -178 67.5t-60 195.5v401h147v-416q0 -121 91 -121q92 0 92 121v416h142v-401q0 -128 -58.5 -195.5t-175.5 -67.5zM300 697q-149 0 -163 137l80 14q14 -66 83 -66t83 66l80 -14q-14 -137 -163 -137z" />
    <glyph glyph-name="ubreve" unicode="&#x16d;" 
d="M223 -12q-161 0 -161 202v306h147v-287q0 -51 16 -73.5t56 -22.5q29 0 50.5 12.5t46.5 44.5v326h147v-496h-120l-11 71h-4q-73 -83 -167 -83zM296 572q-82 0 -124.5 43.5t-44.5 113.5l84 14q5 -35 26 -57t59 -22t59 22t26 57l84 -14q-2 -70 -44.5 -113.5t-124.5 -43.5z
" />
    <glyph glyph-name="Uring" unicode="&#x16e;" 
d="M302 -12q-118 0 -178 67.5t-60 195.5v401h147v-416q0 -121 91 -121q92 0 92 121v416h142v-401q0 -128 -58.5 -195.5t-175.5 -67.5zM300 697q-51 0 -82.5 27t-31.5 72t31.5 71.5t82.5 26.5t82.5 -26.5t31.5 -71.5t-31.5 -72t-82.5 -27zM300 752q18 0 30 12t12 32
q0 19 -12 31t-30 12t-30 -12t-12 -31q0 -20 12 -32t30 -12z" />
    <glyph glyph-name="uring" unicode="&#x16f;" 
d="M223 -12q-161 0 -161 202v306h147v-287q0 -51 16 -73.5t56 -22.5q29 0 50.5 12.5t46.5 44.5v326h147v-496h-120l-11 71h-4q-73 -83 -167 -83zM296 568q-63 0 -97.5 29.5t-34.5 74.5q0 44 34.5 73.5t97.5 29.5t97.5 -29.5t34.5 -73.5q0 -45 -34.5 -74.5t-97.5 -29.5z
M296 623q18 0 30.5 14t12.5 35t-12.5 34.5t-30.5 13.5t-30.5 -13.5t-12.5 -34.5t12.5 -35t30.5 -14z" />
    <glyph glyph-name="Uhungarumlaut" unicode="&#x170;" 
d="M302 -12q-118 0 -178 67.5t-60 195.5v401h147v-416q0 -121 91 -121q92 0 92 121v416h142v-401q0 -128 -58.5 -195.5t-175.5 -67.5zM234 694l-73 34l101 161l94 -52zM421 694l-72 34l100 161l94 -52z" />
    <glyph glyph-name="uhungarumlaut" unicode="&#x171;" 
d="M223 -12q-161 0 -161 202v306h147v-287q0 -51 16 -73.5t56 -22.5q29 0 50.5 12.5t46.5 44.5v326h147v-496h-120l-11 71h-4q-73 -83 -167 -83zM243 565l-78 35l88 181l98 -44zM422 565l-78 35l88 181l98 -44z" />
    <glyph glyph-name="Uogonek" unicode="&#x172;" 
d="M322 -227q-51 0 -83.5 25.5t-32.5 70.5q0 63 65 121q-102 7 -154.5 74t-52.5 187v401h147v-416q0 -121 90 -121q93 0 93 121v416h142v-401q0 -185 -128 -244q-95 -44 -95 -100q0 -19 13 -29t31 -10q17 0 38 16l35 -74q-48 -37 -108 -37z" />
    <glyph glyph-name="uogonek" unicode="&#x173;" 
d="M436 -227q-51 0 -84 25.5t-33 73.5q0 75 87 125l-12 74h-4q-73 -83 -167 -83q-161 0 -161 202v306h147v-287q0 -51 16 -73.5t56 -22.5q29 0 50.5 12.5t46.5 44.5v326h147v-497q-54 -16 -80.5 -41t-26.5 -52q0 -22 15.5 -34t37.5 -12q29 0 46 14l31 -65q-44 -36 -112 -36z
" />
    <glyph glyph-name="Wcircumflex" unicode="&#x174;" 
d="M91 0l-87 652h153l20 -347q0 -20 1 -75.5t2 -88.5h4q3 17 32 164l44 182h94l41 -182q26 -126 32 -164h4q2 102 4 164l18 347h143l-80 -652h-158l-38 202q-16 81 -18 124h-3q-8 -78 -17 -124l-38 -202h-153zM194 685l-64 39l90 111h160l90 -111l-64 -39l-104 84h-4z" />
    <glyph glyph-name="wcircumflex" unicode="&#x175;" 
d="M85 0l-81 496h142l31 -230q3 -25 8 -74t8 -73h3q11 89 23 147l31 164h107l32 -164q14 -69 25 -147h4q4 29 8.5 81.5t5.5 65.5l28 230h136l-76 -496h-173l-27 161q-10 74 -18 147h-4q-6 -58 -17 -147l-26 -161h-170zM173 561l-56 52l108 131h150l108 -131l-56 -52l-125 92
h-4z" />
    <glyph glyph-name="Ycircumflex" unicode="&#x176;" 
d="M226 0v220l-210 432h158l66 -157l59 -149h4l61 149l66 157h154l-210 -432v-220h-148zM194 685l-64 39l90 111h160l90 -111l-64 -39l-104 84h-4z" />
    <glyph glyph-name="ycircumflex" unicode="&#x177;" 
d="M143 -194q-41 0 -76 10l26 112q19 -6 39 -6q77 0 104 65l10 26l-215 483h146l83 -213q21 -55 50 -149h4q4 15 45 149l73 213h139l-196 -501q-38 -99 -90 -144t-142 -45zM181 561l-56 52l108 131h150l108 -131l-56 -52l-125 92h-4z" />
    <glyph glyph-name="Ydieresis" unicode="&#x178;" 
d="M226 0v220l-210 432h158l66 -157l59 -149h4l61 149l66 157h154l-210 -432v-220h-148zM189 700q-31 0 -52 21t-21 52t21 52t52 21q32 0 53 -20.5t21 -52.5q0 -31 -21 -52t-53 -21zM411 700q-32 0 -53 21t-21 52q0 32 21 52.5t53 20.5q31 0 52 -21t21 -52t-21 -52t-52 -21z
" />
    <glyph glyph-name="Zacute" unicode="&#x179;" 
d="M56 0v89l305 440h-276v123h458v-89l-305 -439h309v-124h-491zM282 680l-65 74l171 140l78 -95z" />
    <glyph glyph-name="zacute" unicode="&#x17a;" 
d="M70 0v79l259 302h-228v115h432v-78l-260 -303h267v-115h-470zM322 561l-72 72l153 182l100 -98z" />
    <glyph glyph-name="Zdotaccent" unicode="&#x17b;" 
d="M56 0v89l305 440h-276v123h458v-89l-305 -439h309v-124h-491zM319 701q-40 0 -65 23.5t-25 60.5t25 60t65 23t65 -23t25 -60t-25 -60.5t-65 -23.5z" />
    <glyph glyph-name="zdotaccent" unicode="&#x17c;" 
d="M70 0v79l259 302h-228v115h432v-78l-260 -303h267v-115h-470zM328 574q-43 0 -70.5 24.5t-27.5 64.5t27.5 66t70.5 26t70.5 -26t27.5 -66t-27.5 -64.5t-70.5 -24.5z" />
    <glyph glyph-name="Zcaron" unicode="&#x17d;" 
d="M56 0v89l305 440h-276v123h458v-89l-305 -439h309v-124h-491zM239 702l-90 110l64 40l104 -84h4l104 84l64 -40l-90 -110h-160z" />
    <glyph glyph-name="zcaron" unicode="&#x17e;" 
d="M70 0v79l259 302h-228v115h432v-78l-260 -303h267v-115h-470zM253 577l-108 131l56 52l125 -92h4l125 92l56 -52l-108 -131h-150z" />
    <glyph glyph-name="longs" unicode="&#x17f;" 
d="M213 0v381h-131v109l131 6v13q0 91 55.5 147.5t166.5 56.5q69 0 150 -27l-28 -108q-49 19 -104 19q-93 0 -93 -87v-510h-147z" />
    <glyph glyph-name="uni0180" unicode="&#x180;" 
d="M338 -12q-72 0 -135 66h-4l-12 -54h-115v553h-66v70l66 5v72h147l-1 -71h183v-76h-184l-1 -49l-2 -73h4q57 57 135 57q92 0 146 -65.5t54 -175.5q0 -118 -63.5 -188.5t-151.5 -70.5zM305 108q43 0 70 34t27 102q0 124 -91 124q-47 0 -92 -46v-181q39 -33 86 -33z" />
    <glyph glyph-name="uni018A" unicode="&#x18a;" 
d="M188 0v538q-72 -21 -72 -98q0 -61 53 -93l-55 -94q-110 54 -110 178q0 107 68 170t208 63q146 0 223.5 -81.5t77.5 -247.5q0 -167 -72 -251t-195 -84h-126zM321 119h13q110 0 110 216q0 106 -30.5 155t-92.5 54v-425z" />
    <glyph glyph-name="uni018F" unicode="&#x18f;" 
d="M303 -12q-113 0 -183 89.5t-70 245.5q0 23 3 49h359q-11 165 -124 165q-62 0 -109 -47l-68 101q78 73 189 73q119 0 189.5 -89.5t70.5 -247.5q0 -157 -71 -248t-186 -91zM303 115q93 0 108 149h-216q7 -81 34.5 -115t73.5 -34z" />
    <glyph glyph-name="uni0192" unicode="&#x192;" 
d="M142 -96q-66 0 -96 16l20 108q25 -7 54 -9q41 2 58 29.5t29 112.5l17 146h-87v101l75 6h24l5 43q17 112 64 159.5t149 47.5q56 0 96 -19l-28 -110q-30 12 -56 12q-69 0 -83 -78l-7 -55h115v-107h-127l-23 -189q-13 -102 -56.5 -158t-142.5 -56z" />
    <glyph glyph-name="uni0193" unicode="&#x193;" 
d="M536 581l-81 -91q-47 47 -110 47q-65 0 -107 -57t-42 -153q0 -102 39.5 -157t115.5 -55q42 0 64 20v112h-95v120h227v-300q-36 -33 -90.5 -56t-113.5 -23q-131 0 -215 87.5t-84 246.5t85 250.5t216 91.5q21 0 39 -3q-2 16 -2 24q0 57 38.5 95t102.5 38q48 0 85 -13
l-26 -109q-18 7 -28 7q-23 0 -37 -12.5t-14 -35.5q0 -34 33 -74z" />
    <glyph glyph-name="Ohorn" unicode="&#x1a0;" 
d="M300 -12q-119 0 -190.5 89t-71.5 252q0 160 71.5 247.5t190.5 87.5q63 0 115 -26q57 18 57 84q0 33 -15 65l109 44q29 -43 29 -99q0 -114 -115 -143q82 -90 82 -260q0 -163 -71.5 -252t-190.5 -89zM300 115q52 0 81.5 55t29.5 159q0 100 -29.5 154t-81.5 54t-81.5 -54
t-29.5 -154q0 -104 29.5 -159t81.5 -55z" />
    <glyph glyph-name="ohorn" unicode="&#x1a1;" 
d="M300 -12q-104 0 -178.5 70.5t-74.5 189.5t74.5 189.5t178.5 70.5q55 0 104 -21q66 22 66 99q0 44 -15 65l108 48q30 -42 30 -103q0 -115 -118 -156q78 -73 78 -192t-74.5 -189.5t-178.5 -70.5zM300 107q50 0 76 37.5t26 103.5t-26 103.5t-76 37.5t-76 -37.5t-26 -103.5
t26 -103.5t76 -37.5z" />
    <glyph glyph-name="Uhorn" unicode="&#x1af;" 
d="M302 -12q-118 0 -178 67.5t-60 195.5v401h147v-416q0 -121 91 -121q92 0 92 121v416h70q34 2 53.5 16.5t19.5 56.5q0 33 -15 65l109 44q29 -43 29 -98q0 -116 -124 -138v-347q0 -128 -58.5 -195.5t-175.5 -67.5z" />
    <glyph glyph-name="uhorn" unicode="&#x1b0;" 
d="M223 -12q-161 0 -161 202v306h147v-287q0 -51 16 -73.5t56 -22.5q29 0 50.5 12.5t46.5 44.5v326h33q89 4 89 92q0 43 -16 65l109 47q29 -39 29 -102q0 -99 -97 -141v-457h-120l-11 71h-4q-73 -83 -167 -83z" />
    <glyph glyph-name="uni01C2" unicode="&#x1c2;" 
d="M227 -184v316h-160v70l160 5v121h-160v70l160 5v297h146v-297h160v-75h-160v-121h160v-75h-160v-316h-146z" />
    <glyph glyph-name="uni01CD" unicode="&#x1cd;" 
d="M244 330l-15 -60h137l-15 60q-38 144 -52 210h-4q-31 -132 -51 -210zM9 0l203 652h176l203 -652h-156l-39 155h-197l-40 -155h-150zM220 702l-90 110l64 40l104 -84h4l104 84l64 -40l-90 -110h-160z" />
    <glyph glyph-name="uni01CE" unicode="&#x1ce;" 
d="M224 -12q-73 0 -118 43t-45 107q0 84 76.5 127.5t250.5 53.5q-8 72 -106 72q-59 0 -151 -46l-52 96q117 67 232 67q107 0 165.5 -56t58.5 -168v-284h-120l-11 56h-4q-89 -68 -176 -68zM271 102q56 0 117 47v82q-103 -6 -144.5 -26.5t-41.5 -55.5q0 -47 69 -47zM245 577
l-108 131l56 52l125 -92h4l125 92l56 -52l-108 -131h-150z" />
    <glyph glyph-name="uni01CF" unicode="&#x1cf;" 
d="M74 0v124h152v404h-152v124h452v-124h-152v-404h152v-124h-452zM220 702l-90 110l64 40l104 -84h4l104 84l64 -40l-90 -110h-160z" />
    <glyph glyph-name="uni01D0" unicode="&#x1d0;" 
d="M278 0v381h-199v115h346v-496h-147zM270 577l-108 131l56 52l125 -92h4l125 92l56 -52l-108 -131h-150z" />
    <glyph glyph-name="uni01D1" unicode="&#x1d1;" 
d="M300 -12q-119 0 -190.5 89t-71.5 252q0 160 71.5 247.5t190.5 87.5t190.5 -87.5t71.5 -247.5q0 -163 -71.5 -252t-190.5 -89zM300 115q52 0 81.5 55t29.5 159q0 100 -29.5 154t-81.5 54t-81.5 -54t-29.5 -154q0 -104 29.5 -159t81.5 -55zM220 702l-90 110l64 40l104 -84
h4l104 84l64 -40l-90 -110h-160z" />
    <glyph glyph-name="uni01D2" unicode="&#x1d2;" 
d="M300 -12q-104 0 -178.5 70.5t-74.5 189.5t74.5 189.5t178.5 70.5t178.5 -70.5t74.5 -189.5t-74.5 -189.5t-178.5 -70.5zM300 107q50 0 76 37.5t26 103.5t-26 103.5t-76 37.5t-76 -37.5t-26 -103.5t26 -103.5t76 -37.5zM225 577l-108 131l56 52l125 -92h4l125 92l56 -52
l-108 -131h-150z" />
    <glyph glyph-name="uni01D3" unicode="&#x1d3;" 
d="M302 -12q-118 0 -178 67.5t-60 195.5v401h147v-416q0 -121 91 -121q92 0 92 121v416h142v-401q0 -128 -58.5 -195.5t-175.5 -67.5zM220 702l-90 110l64 40l104 -84h4l104 84l64 -40l-90 -110h-160z" />
    <glyph glyph-name="uni01D4" unicode="&#x1d4;" 
d="M223 -12q-161 0 -161 202v306h147v-287q0 -51 16 -73.5t56 -22.5q29 0 50.5 12.5t46.5 44.5v326h147v-496h-120l-11 71h-4q-73 -83 -167 -83zM221 577l-108 131l56 52l125 -92h4l125 92l56 -52l-108 -131h-150z" />
    <glyph glyph-name="uni01D5" unicode="&#x1d5;" 
d="M302 -12q-118 0 -178 67.5t-60 195.5v401h147v-416q0 -121 91 -121q92 0 92 121v416h142v-401q0 -128 -58.5 -195.5t-175.5 -67.5zM189 700q-27 0 -44 17.5t-17 44.5q0 26 17 43.5t44 17.5t44.5 -17.5t17.5 -43.5t-17.5 -44t-44.5 -18zM411 700q-27 0 -44.5 18t-17.5 44
t17.5 43.5t44.5 17.5t44 -17.5t17 -43.5q0 -27 -17 -44.5t-44 -17.5zM149 872v69h302v-69h-302z" />
    <glyph glyph-name="uni01D6" unicode="&#x1d6;" 
d="M223 -12q-161 0 -161 202v306h147v-287q0 -51 16 -73.5t56 -22.5q29 0 50.5 12.5t46.5 44.5v326h147v-496h-120l-11 71h-4q-73 -83 -167 -83zM187 571q-27 0 -44.5 17.5t-17.5 43.5t17.5 44t44.5 18t44.5 -18t17.5 -44t-17.5 -43.5t-44.5 -17.5zM405 571
q-27 0 -44.5 17.5t-17.5 43.5t17.5 44t44.5 18t44.5 -18t17.5 -44t-17.5 -43.5t-44.5 -17.5zM148 756v69h296v-69h-296z" />
    <glyph glyph-name="uni01D7" unicode="&#x1d7;" 
d="M302 -12q-118 0 -178 67.5t-60 195.5v401h147v-416q0 -121 91 -121q92 0 92 121v416h142v-401q0 -128 -58.5 -195.5t-175.5 -67.5zM189 700q-27 0 -44 17.5t-17 44.5q0 26 17 43.5t44 17.5t44.5 -17.5t17.5 -43.5t-17.5 -44t-44.5 -18zM411 700q-27 0 -44.5 18t-17.5 44
t17.5 43.5t44.5 17.5t44 -17.5t17 -43.5q0 -27 -17 -44.5t-44 -17.5zM308 825l-63 39l95 145l92 -57z" />
    <glyph glyph-name="uni01D8" unicode="&#x1d8;" 
d="M223 -12q-161 0 -161 202v306h147v-287q0 -51 16 -73.5t56 -22.5q29 0 50.5 12.5t46.5 44.5v326h147v-496h-120l-11 71h-4q-73 -83 -167 -83zM187 571q-27 0 -44.5 17.5t-17.5 43.5t17.5 44t44.5 18t44.5 -18t17.5 -44t-17.5 -43.5t-44.5 -17.5zM405 571
q-27 0 -44.5 17.5t-17.5 43.5t17.5 44t44.5 18t44.5 -18t17.5 -44t-17.5 -43.5t-44.5 -17.5zM303 713l-56 36l78 133l78 -52z" />
    <glyph glyph-name="uni01D9" unicode="&#x1d9;" 
d="M302 -12q-118 0 -178 67.5t-60 195.5v401h147v-416q0 -121 91 -121q92 0 92 121v416h142v-401q0 -128 -58.5 -195.5t-175.5 -67.5zM189 700q-27 0 -44 17.5t-17 44.5q0 26 17 43.5t44 17.5t44.5 -17.5t17.5 -43.5t-17.5 -44t-44.5 -18zM411 700q-27 0 -44.5 18t-17.5 44
t17.5 43.5t44.5 17.5t44 -17.5t17 -43.5q0 -27 -17 -44.5t-44 -17.5zM237 854l-92 102l59 39l94 -73h4l94 73l59 -39l-92 -102h-126z" />
    <glyph glyph-name="uni01DA" unicode="&#x1da;" 
d="M223 -12q-161 0 -161 202v306h147v-287q0 -51 16 -73.5t56 -22.5q29 0 50.5 12.5t46.5 44.5v326h147v-496h-120l-11 71h-4q-73 -83 -167 -83zM187 571q-27 0 -44.5 17.5t-17.5 43.5t17.5 44t44.5 18t44.5 -18t17.5 -44t-17.5 -43.5t-44.5 -17.5zM405 571
q-27 0 -44.5 17.5t-17.5 43.5t17.5 44t44.5 18t44.5 -18t17.5 -44t-17.5 -43.5t-44.5 -17.5zM238 737l-92 92l48 44l100 -65h4l100 65l48 -44l-92 -92h-116z" />
    <glyph glyph-name="uni01DB" unicode="&#x1db;" 
d="M302 -12q-118 0 -178 67.5t-60 195.5v401h147v-416q0 -121 91 -121q92 0 92 121v416h142v-401q0 -128 -58.5 -195.5t-175.5 -67.5zM189 700q-27 0 -44 17.5t-17 44.5q0 26 17 43.5t44 17.5t44.5 -17.5t17.5 -43.5t-17.5 -44t-44.5 -18zM411 700q-27 0 -44.5 18t-17.5 44
t17.5 43.5t44.5 17.5t44 -17.5t17 -43.5q0 -27 -17 -44.5t-44 -17.5zM292 825l-124 127l92 57l95 -145z" />
    <glyph glyph-name="uni01DC" unicode="&#x1dc;" 
d="M223 -12q-161 0 -161 202v306h147v-287q0 -51 16 -73.5t56 -22.5q29 0 50.5 12.5t46.5 44.5v326h147v-496h-120l-11 71h-4q-73 -83 -167 -83zM187 571q-27 0 -44.5 17.5t-17.5 43.5t17.5 44t44.5 18t44.5 -18t17.5 -44t-17.5 -43.5t-44.5 -17.5zM405 571
q-27 0 -44.5 17.5t-17.5 43.5t17.5 44t44.5 18t44.5 -18t17.5 -44t-17.5 -43.5t-44.5 -17.5zM289 713l-100 117l78 52l78 -133z" />
    <glyph glyph-name="uni01E2" unicode="&#x1e2;" 
d="M255 356l-28 -93h84v278h-3q-10 -38 -29 -103.5t-24 -81.5zM-3 0l218 652h371v-124h-145v-129h118v-124h-118v-151h154v-124h-284v149h-118l-45 -149h-151zM240 721v94h302v-94h-302z" />
    <glyph glyph-name="uni01E3" unicode="&#x1e3;" 
d="M149 -12q-59 0 -96 40t-37 102q0 78 55.5 122.5t170.5 61.5q-6 77 -61 77q-43 0 -100 -34l-52 96q92 55 162 55q78 0 119 -73q47 73 126 73q75 0 116 -68t41 -171q0 -23 -6 -65h-232q8 -50 33.5 -75.5t62.5 -25.5t76 27l51 -95q-60 -47 -133 -47q-96 0 -152 74
q-69 -74 -144 -74zM194 102q30 0 62 32q-13 39 -13 88v5q-96 -16 -96 -79q0 -22 13 -34t34 -12zM424 396q-24 0 -43.5 -24.5t-25.5 -74.5h123q-2 52 -15 75.5t-39 23.5zM162 592v93h296v-93h-296z" />
    <glyph glyph-name="Gcaron" unicode="&#x1e6;" 
d="M343 -12q-131 0 -215 87.5t-84 246.5t85 250.5t216 91.5q108 0 191 -83l-81 -91q-47 47 -110 47q-65 0 -107 -57t-42 -153q0 -102 39.5 -157t115.5 -55q42 0 64 20v112h-95v120h227v-300q-36 -33 -90.5 -56t-113.5 -23zM250 702l-90 110l64 40l104 -84h4l104 84l64 -40
l-90 -110h-160z" />
    <glyph glyph-name="gcaron" unicode="&#x1e7;" 
d="M277 -211q-102 0 -163.5 31.5t-61.5 95.5q0 61 77 99v4q-50 30 -50 85q0 24 16 49.5t43 43.5v4q-65 43 -65 127q0 85 61.5 132.5t150.5 47.5q46 0 82 -12h201v-108h-100q22 -30 22 -65q0 -82 -57 -124t-148 -42q-32 0 -68 10q-22 -16 -22 -37q0 -37 84 -37h92
q201 0 201 -125q0 -79 -81 -129t-214 -50zM285 246q32 0 53.5 21.5t21.5 60.5q0 38 -21.5 59.5t-53.5 21.5t-53 -21.5t-21 -59.5q0 -39 21 -60.5t53 -21.5zM298 -118q59 0 96.5 17t37.5 43q0 23 -20.5 30.5t-66.5 7.5h-62q-51 0 -76 7q-35 -22 -35 -49q0 -56 126 -56z
M229 577l-108 131l56 52l125 -92h4l125 92l56 -52l-108 -131h-150z" />
    <glyph glyph-name="uni01EA" unicode="&#x1ea;" 
d="M322 -227q-51 0 -83.5 25.5t-32.5 70.5q0 66 66 121q-114 14 -174 107t-60 232q0 157 72 246t190 89t190 -89t72 -246q0 -250 -176 -327q-73 -32 -73 -95q0 -19 13 -29t31 -10q17 0 38 16l35 -74q-48 -37 -108 -37zM300 112q53 0 82 54t29 163q0 100 -29.5 154t-81.5 54
t-81.5 -54t-29.5 -154q0 -109 29 -163t82 -54z" />
    <glyph glyph-name="uni01EB" unicode="&#x1eb;" 
d="M320 -227q-50 0 -82 25.5t-32 73.5q0 64 63 118q-95 11 -158.5 80.5t-63.5 177.5q0 119 74.5 189.5t178.5 70.5t178.5 -70.5t74.5 -189.5q0 -94 -45 -152.5t-128 -94.5q-36 -17 -55 -43t-19 -52q0 -22 15 -34t34 -12q31 0 49 14l32 -65q-44 -36 -116 -36zM300 103
q50 0 76 38.5t26 106.5q0 66 -26 103.5t-76 37.5t-76 -37.5t-26 -103.5q0 -68 26 -106.5t76 -38.5z" />
    <glyph glyph-name="uni01F4" unicode="&#x1f4;" 
d="M343 -12q-131 0 -215 87.5t-84 246.5t85 250.5t216 91.5q108 0 191 -83l-81 -91q-47 47 -110 47q-65 0 -107 -57t-42 -153q0 -102 39.5 -157t115.5 -55q42 0 64 20v112h-95v120h227v-300q-36 -33 -90.5 -56t-113.5 -23zM293 680l-65 74l171 140l78 -95z" />
    <glyph glyph-name="uni01F5" unicode="&#x1f5;" 
d="M277 -211q-102 0 -163.5 31.5t-61.5 95.5q0 61 77 99v4q-50 30 -50 85q0 24 16 49.5t43 43.5v4q-65 43 -65 127q0 85 61.5 132.5t150.5 47.5q46 0 82 -12h201v-108h-100q22 -30 22 -65q0 -82 -57 -124t-148 -42q-32 0 -68 10q-22 -16 -22 -37q0 -37 84 -37h92
q201 0 201 -125q0 -79 -81 -129t-214 -50zM285 246q32 0 53.5 21.5t21.5 60.5q0 38 -21.5 59.5t-53.5 21.5t-53 -21.5t-21 -59.5q0 -39 21 -60.5t53 -21.5zM298 -118q59 0 96.5 17t37.5 43q0 23 -20.5 30.5t-66.5 7.5h-62q-51 0 -76 7q-35 -22 -35 -49q0 -56 126 -56z
M298 561l-72 72l153 182l100 -98z" />
    <glyph glyph-name="uni01F8" unicode="&#x1f8;" 
d="M66 0v652h151l137 -324l56 -144h4q-1 15 -7.5 69t-10 93.5t-3.5 74.5v231h141v-652h-151l-137 325l-56 142h-4q2 -20 8 -71t9.5 -91t3.5 -74v-231h-141zM347 680l-184 119l78 95l171 -140z" />
    <glyph glyph-name="uni01F9" unicode="&#x1f9;" 
d="M72 0v496h120l11 -66h4q80 78 171 78q82 0 122 -52.5t40 -149.5v-306h-147v287q0 50 -16.5 73t-56.5 23q-28 0 -50.5 -12t-50.5 -40v-331h-147zM321 561l-181 156l100 98l153 -182z" />
    <glyph glyph-name="Aringacute" unicode="&#x1fa;" 
d="M244 330l-15 -60h137l-15 60q-38 144 -52 210h-4q-31 -132 -51 -210zM9 0l203 652h176l203 -652h-156l-39 155h-197l-40 -155h-150zM300 697q-51 0 -82.5 27t-31.5 72q0 53 43 80l146 131l59 -82l-83 -40q63 -23 63 -89q0 -45 -31.5 -72t-82.5 -27zM300 752q18 0 30 12
t12 32q0 19 -12 31t-30 12t-30 -12t-12 -31q0 -20 12 -32t30 -12z" />
    <glyph glyph-name="aringacute" unicode="&#x1fb;" 
d="M224 -12q-73 0 -118 43t-45 107q0 84 76.5 127.5t250.5 53.5q-8 72 -106 72q-59 0 -151 -46l-52 96q117 67 232 67q107 0 165.5 -56t58.5 -168v-284h-120l-11 56h-4q-89 -68 -176 -68zM271 102q56 0 117 47v82q-103 -6 -144.5 -26.5t-41.5 -55.5q0 -47 69 -47zM320 568
q-63 0 -97.5 29.5t-34.5 74.5q0 54 48 83l151 123l59 -74l-77 -35q40 -10 61.5 -36.5t21.5 -60.5q0 -45 -34.5 -74.5t-97.5 -29.5zM320 623q18 0 30.5 14t12.5 35t-12.5 34.5t-30.5 13.5t-30.5 -13.5t-12.5 -34.5t12.5 -35t30.5 -14z" />
    <glyph glyph-name="AEacute" unicode="&#x1fc;" 
d="M255 356l-28 -93h84v278h-3q-10 -38 -29 -103.5t-24 -81.5zM-3 0l218 652h371v-124h-145v-129h118v-124h-118v-151h154v-124h-284v149h-118l-45 -149h-151zM354 680l-65 74l171 140l78 -95z" />
    <glyph glyph-name="aeacute" unicode="&#x1fd;" 
d="M149 -12q-59 0 -96 40t-37 102q0 78 55.5 122.5t170.5 61.5q-6 77 -61 77q-43 0 -100 -34l-52 96q92 55 162 55q78 0 119 -73q47 73 126 73q75 0 116 -68t41 -171q0 -23 -6 -65h-232q8 -50 33.5 -75.5t62.5 -25.5t76 27l51 -95q-60 -47 -133 -47q-96 0 -152 74
q-69 -74 -144 -74zM194 102q30 0 62 32q-13 39 -13 88v5q-96 -16 -96 -79q0 -22 13 -34t34 -12zM424 396q-24 0 -43.5 -24.5t-25.5 -74.5h123q-2 52 -15 75.5t-39 23.5zM304 561l-72 72l153 182l100 -98z" />
    <glyph glyph-name="Oslashacute" unicode="&#x1fe;" 
d="M300 -12q-84 0 -147 46l-54 -76l-80 52l69 98q-50 86 -50 221q0 160 71.5 247.5t190.5 87.5q86 0 147 -45l53 75l80 -52l-68 -97q50 -84 50 -216q0 -163 -71.5 -252t-190.5 -89zM189 329q0 -43 4 -71l174 247q-27 32 -67 32q-52 0 -81.5 -54t-29.5 -154zM300 115
q52 0 81.5 55t29.5 159q0 40 -4 67l-174 -248q27 -33 67 -33zM263 680l-65 74l171 140l78 -95z" />
    <glyph glyph-name="oslashacute" unicode="&#x1ff;" 
d="M300 -12q-77 0 -137 39l-45 -54l-57 46l46 55q-60 71 -60 174q0 119 74.5 189.5t178.5 70.5q75 0 136 -38l46 55l57 -47l-47 -56q61 -69 61 -174q0 -119 -74.5 -189.5t-178.5 -70.5zM198 248q0 -32 6 -57l153 184q-24 19 -57 19q-50 0 -76 -39.5t-26 -106.5zM300 102
q50 0 76 39.5t26 106.5q0 32 -6 58l-154 -184q23 -20 58 -20zM294 561l-72 72l153 182l100 -98z" />
    <glyph glyph-name="uni0218" unicode="&#x218;" 
d="M298 -12q-142 0 -248 94l85 101q83 -68 173 -68q46 0 69 15.5t23 41.5q0 29 -19.5 43.5t-66.5 34.5l-15 6l-84 36q-61 23 -100 67.5t-39 110.5q0 82 67.5 138t171.5 56q126 0 217 -86l-75 -93q-71 52 -150 52q-37 0 -59.5 -15.5t-22.5 -43.5q0 -14 6.5 -24.5t25 -20.5
t31 -15l44.5 -17l79 -34q140 -52 140 -177q0 -85 -68 -143.5t-185 -58.5zM202 -239l-11 59q57 3 80 12t23 27q0 29 -64 35l28 54q78 -7 109.5 -26.5t31.5 -57.5q0 -97 -197 -103z" />
    <glyph glyph-name="uni0219" unicode="&#x219;" 
d="M296 -12q-129 0 -243 76l63 92q95 -59 200 -59q79 0 79 42q0 21 -24 32t-98 27q-100 21 -144.5 58.5t-44.5 96.5q0 70 61.5 112.5t166.5 42.5q108 0 215 -68l-66 -88q-78 47 -162 47q-69 0 -69 -39q0 -19 21.5 -28t93.5 -25q112 -26 153.5 -61t41.5 -98q0 -70 -64.5 -115
t-179.5 -45zM205 -239l-11 59q57 3 80 12t23 27q0 29 -64 35l28 54q78 -7 109.5 -26.5t31.5 -57.5q0 -97 -197 -103z" />
    <glyph glyph-name="uni021A" unicode="&#x21a;" 
d="M226 0v528h-195v124h538v-124h-195v-528h-148zM198 -239l-11 59q57 3 80 12t23 27q0 29 -64 35l28 54q78 -7 109.5 -26.5t31.5 -57.5q0 -97 -197 -103z" />
    <glyph glyph-name="uni021B" unicode="&#x21b;" 
d="M388 -12q-214 0 -214 218v175h-125v109l132 6l19 152h121v-152h210v-115h-210v-174q0 -56 25 -80t80 -24q44 0 98 18l26 -106q-91 -27 -162 -27zM266 -239l-11 59q57 3 80 12t23 27q0 29 -64 35l28 54q78 -7 109.5 -26.5t31.5 -57.5q0 -97 -197 -103z" />
    <glyph glyph-name="uni0237" unicode="&#x237;" 
d="M195 -196q-80 0 -153 34l43 105q53 -24 101 -24q52 0 72 24.5t20 80.5v357h-199v115h346v-466q0 -226 -230 -226z" />
    <glyph glyph-name="uni0243" unicode="&#x243;" 
d="M84 0v171h-75v69l75 6v406h211q237 0 237 -157q0 -45 -28 -81t-82 -50v-4q142 -27 142 -161q0 -98 -69.5 -148.5t-181.5 -50.5h-229zM231 108h70q117 0 117 102q0 51 -28 73.5t-89 22.5h-70v-60h106v-75h-106v-63zM231 397h57q103 0 103 80q0 67 -102 67h-58v-147z" />
    <glyph glyph-name="uni0250" unicode="&#x250;" 
d="M296 -12q-107 0 -165.5 56t-58.5 168v284h120l11 -56h4q89 68 176 68q73 0 118 -42.5t45 -106.5q0 -85 -76.5 -128.5t-250.5 -53.5q8 -72 106 -72q57 0 151 47l52 -97q-117 -67 -232 -67zM219 265q103 6 144.5 26.5t41.5 55.5q0 47 -69 47q-56 0 -117 -47v-82z" />
    <glyph glyph-name="uni0251" unicode="&#x251;" 
d="M256 -12q-95 0 -152 70t-57 190q0 117 63.5 188.5t151.5 71.5q78 0 135 -63h4l12 51h115v-496h-120l-11 51h-3q-28 -28 -65.5 -45.5t-72.5 -17.5zM294 108q51 0 87 46v201q-37 33 -83 33q-43 0 -71.5 -35.5t-28.5 -102.5q0 -142 96 -142z" />
    <glyph glyph-name="uni0252" unicode="&#x252;" 
d="M337 -12q-73 0 -134 66h-4l-12 -54h-115v496h120l11 -51h3q63 63 148 63q92 0 145.5 -68t53.5 -182q0 -124 -63.5 -197t-152.5 -73zM303 108q43 0 71 35.5t28 104.5q0 140 -94 140q-53 0 -89 -46v-201q37 -33 84 -33z" />
    <glyph glyph-name="uni0253" unicode="&#x253;" 
d="M339 -12q-75 0 -136 66h-4l-12 -54h-115v500q0 94 53 153.5t163 59.5q58 0 113 -22l-27 -108q-38 14 -65 14q-43 0 -64.5 -20t-25.5 -66l-6 -76h4q62 57 136 57q91 0 144.5 -66.5t53.5 -177.5q0 -119 -62.5 -189.5t-149.5 -70.5zM305 108q43 0 69.5 34.5t26.5 103.5
q0 125 -90 125q-51 0 -92 -46v-184q37 -33 86 -33z" />
    <glyph glyph-name="uni0254" unicode="&#x254;" 
d="M253 -12q-118 0 -201 73l60 93q64 -47 124 -47q65 0 105.5 38.5t40.5 102.5q0 63 -38 102t-95 39q-63 0 -121 -39l-68 91q74 67 199 67q115 0 194.5 -70.5t79.5 -189.5q0 -120 -79.5 -190t-200.5 -70z" />
    <glyph glyph-name="uni0255" unicode="&#x255;" 
d="M368 100q37 0 58.5 12.5t21.5 29.5q0 33 -49 33q-42 0 -98 -64q33 -11 67 -11zM193 -96l-114 49q24 65 57 118q-69 69 -69 177q0 119 83.5 189.5t202.5 70.5q114 0 186 -67l-64 -88q-50 43 -114 43q-66 0 -109 -40.5t-43 -107.5q0 -37 14 -67q96 91 187 91
q68 0 107.5 -34.5t39.5 -95.5q0 -66 -52 -110t-142 -44q-71 0 -129 21q-24 -47 -41 -105z" />
    <glyph glyph-name="uni0256" unicode="&#x256;" 
d="M543 -170q-79 0 -120.5 43t-41.5 108l2 63h-4q-56 -56 -125 -56q-94 0 -150.5 70t-56.5 190q0 116 63 188t147 72q69 0 122 -53h4l-7 77v169h147v-685q0 -38 9.5 -54.5t33.5 -16.5q12 0 29 7l26 -108q-33 -14 -78 -14zM292 108q49 0 84 46v201q-37 33 -85 33
q-39 0 -66 -35.5t-27 -102.5q0 -142 94 -142z" />
    <glyph glyph-name="uni0257" unicode="&#x257;" 
d="M252 -12q-94 0 -149.5 69.5t-55.5 190.5q0 116 62.5 188t145.5 72q70 0 123 -53h3l-2 77v21q0 71 41.5 115.5t130.5 44.5q41 0 69 -10l-26 -108q-10 3 -20 3q-28 0 -40.5 -17.5t-12.5 -54.5v-526h-120l-10 51h-4q-61 -63 -135 -63zM291 108q48 0 83 46v201q-36 33 -85 33
q-39 0 -65 -35.5t-26 -102.5q0 -142 93 -142z" />
    <glyph glyph-name="uni0258" unicode="&#x258;" 
d="M284 396q-88 0 -100 -93h212q-21 93 -112 93zM270 -12q-106 0 -196 58l48 88q68 -34 128 -34q128 0 148 104h-338q-6 36 -6 66q0 104 65.5 171t177.5 67q103 0 175.5 -71.5t72.5 -188.5q0 -120 -78 -190t-197 -70z" />
    <glyph glyph-name="uni0259" unicode="&#x259;" 
d="M291 -12q-112 0 -174 67.5t-62 172.5q0 30 6 66h339q-20 102 -138 102q-60 0 -128 -34l-48 88q92 58 196 58q116 0 190 -70t74 -190q0 -118 -75 -189t-180 -71zM286 100q94 0 113 96h-213q11 -96 100 -96z" />
    <glyph glyph-name="uni025A" unicode="&#x25a;" 
d="M203 -12q-95 0 -145 63.5t-56 165.5l254 121q-23 60 -85 60q-43 0 -95 -33l-49 93q75 50 158 50q137 0 193 -112l75 36l67 -26q1 -55 11 -75.5t33 -20.5q11 0 29 11l30 -70q-37 -25 -68 -25q-86 0 -112 94l-36 -18q4 -27 4 -63q0 -112 -57.5 -181.5t-150.5 -69.5zM202 98
q32 0 52.5 27.5t20.5 77.5q0 24 -1 35l-149 -72q20 -68 77 -68z" />
    <glyph glyph-name="uni025B" unicode="&#x25b;" 
d="M317 -12q-110 0 -178.5 40t-68.5 115q0 48 29.5 76t85.5 41v4q-45 14 -69.5 43t-24.5 61q0 71 65 105.5t177 34.5q113 0 204 -58l-53 -93q-62 39 -142 39q-106 0 -106 -49q0 -44 101 -44h67v-99h-82q-57 0 -82.5 -10.5t-25.5 -36.5q0 -57 131 -57q83 0 143 48l58 -93
q-46 -36 -99 -51.5t-130 -15.5z" />
    <glyph glyph-name="uni025C" unicode="&#x25c;" 
d="M279 -12q-129 0 -231 72l57 93q77 -53 159 -53q132 0 132 56q0 48 -91 48h-120v99h111q83 0 83 47q0 46 -112 46q-85 0 -156 -47l-54 95q97 64 220 64q113 0 178 -35t65 -107q0 -78 -88 -103v-4q56 -13 82 -41t26 -77q0 -73 -72.5 -113t-188.5 -40z" />
    <glyph glyph-name="uni025E" unicode="&#x25e;" 
d="M316 -12q-119 0 -194 67t-75 192q0 124 77.5 192.5t188.5 68.5q93 0 152.5 -35.5t59.5 -106.5q0 -36 -21.5 -64t-65.5 -39v-4q108 -21 108 -118q0 -73 -63.5 -113t-166.5 -40zM321 100q37 0 59 15t22 41q0 48 -79 48h-32v99h31q64 0 64 45q0 22 -17.5 35t-48.5 13
q-59 0 -93 -37t-34 -112q0 -79 32.5 -113t95.5 -34z" />
    <glyph glyph-name="uni025F" unicode="&#x25f;" 
d="M195 -196q-80 0 -153 34l43 105q53 -24 101 -24q52 0 72 24.5t20 80.5v163h-173v70l173 6v118h-199v115h346v-233h133v-76h-133v-157q0 -226 -230 -226z" />
    <glyph glyph-name="uni0260" unicode="&#x260;" 
d="M268 -194q-102 0 -188 55l49 97q67 -37 139 -37q103 0 108 80l5 63h-3q-54 -51 -124 -51q-92 0 -148.5 68t-56.5 176q0 109 64 180t147 71q65 0 118 -53h3l-2 35q0 68 42.5 115.5t131.5 47.5q41 0 69 -10l-26 -109q-8 4 -21 4q-52 0 -52 -72v-461q0 -96 -66.5 -147.5
t-188.5 -51.5zM292 131q47 0 84 48v176q-37 33 -85 33q-39 0 -66 -34.5t-27 -94.5q0 -61 25 -94.5t69 -33.5z" />
    <glyph glyph-name="uni0261" unicode="&#x261;" 
d="M270 -196q-110 0 -192 52l49 100q67 -37 143 -37q53 0 82.5 23t33.5 59l5 63h-4q-53 -51 -131 -51q-93 0 -151 68t-58 176q0 111 63.5 181t151.5 70q78 0 135 -63h4l12 51h115v-480q0 -101 -66 -156.5t-192 -55.5zM294 131q50 0 87 48v176q-37 33 -85 33q-40 0 -70 -35
t-30 -94q0 -60 27 -94t71 -34z" />
    <glyph glyph-name="uni0262" unicode="&#x262;" 
d="M337 -12q-117 0 -195 66t-78 191q0 121 82 192t195 71q110 0 190 -66l-66 -88q-22 16 -34.5 23t-33.5 13t-46 6q-58 0 -98 -38.5t-40 -112.5q0 -68 35.5 -106.5t93.5 -38.5q36 0 64 16v83h-92v98h218v-241q-33 -30 -86 -49t-109 -19z" />
    <glyph glyph-name="uni0263" unicode="&#x263;" 
d="M303 -211q-73 0 -116.5 40t-43.5 106q0 22 8 45.5t17.5 40.5l30.5 52l8 13l-176 410h148l82 -224q5 -16 18.5 -54.5t21.5 -64.5h4l21 60.5l20 58.5l82 224h141l-170 -408l12 -20.5t12 -20t10 -17l9.5 -17t7 -15t6.5 -16.5t4.5 -14.5t3 -16.5t0.5 -16q0 -66 -44 -106
t-117 -40zM303 -119q19 0 30.5 14t11.5 38q0 26 -40 92h-5q-38 -67 -38 -92q0 -24 11.5 -38t29.5 -14z" />
    <glyph glyph-name="uni0264" unicode="&#x264;" 
d="M300 -12q-92 0 -146 47.5t-54 134.5t101 178q-36 41 -82 41q-29 0 -46 -14l-42 107q35 26 109 26q91 0 160 -79q69 79 160 79q74 0 109 -26l-42 -107q-19 14 -46 14q-46 0 -82 -41q101 -91 101 -178t-54 -134.5t-146 -47.5zM300 107q29 0 46 18t17 49q0 52 -63 108
q-63 -56 -63 -108q0 -31 17 -49t46 -18z" />
    <glyph glyph-name="uni0265" unicode="&#x265;" 
d="M381 -184v151l8 95q-76 -74 -168 -74q-81 0 -121 53t-40 149v306h147v-287q0 -50 16.5 -73t56.5 -23q28 0 50.5 12t50.5 40v331h147v-680h-147z" />
    <glyph glyph-name="uni0266" unicode="&#x266;" 
d="M72 0v500q0 94 53 153.5t163 59.5q58 0 113 -22l-27 -108q-38 14 -65 14q-43 0 -64.5 -20.5t-25.5 -65.5l-9 -93h4q72 74 165 74q81 0 121 -53t40 -149v-290h-147v271q0 50 -16.5 72.5t-56.5 22.5q-28 0 -50 -12t-51 -39v-315h-147z" />
    <glyph glyph-name="uni0267" unicode="&#x267;" 
d="M361 -187q-48 0 -90 14l27 109q24 -7 40 -7q30 0 42.5 19t12.5 62v261q0 50 -16.5 72.5t-56.5 22.5q-28 0 -50 -12t-51 -39v-315h-147v500q0 94 53 153.5t163 59.5q56 0 113 -22l-27 -108q-38 14 -65 14q-43 0 -64.5 -20.5t-25.5 -65.5l-9 -93h4q72 74 165 74
q81 0 121 -53t40 -149v-275q0 -91 -42 -146.5t-137 -55.5z" />
    <glyph glyph-name="uni0268" unicode="&#x268;" 
d="M115 188v69l163 6v118h-199v115h346v-233h133v-75h-133v-188h-147v188h-163zM345 574q-43 0 -70.5 24.5t-27.5 64.5t27.5 66t70.5 26t70.5 -26t27.5 -66t-27.5 -64.5t-70.5 -24.5z" />
    <glyph glyph-name="uni026A" unicode="&#x26a;" 
d="M79 0v115h147v266h-147v115h442v-115h-148v-266h148v-115h-442z" />
    <glyph glyph-name="uni026B" unicode="&#x26b;" 
d="M395 -12q-91 0 -140 55t-49 151v151q-18 4 -27 4q-29 0 -35 -52l-92 19q6 135 110 135q16 0 44 -4v138h-145v116h292v-310q11 -4 25 -4q28 0 34 52l92 -18q-6 -136 -110 -136q-24 0 -41 4v-101q0 -43 23 -62t58 -19q37 0 77 16l33 -108q-83 -27 -149 -27z" />
    <glyph glyph-name="uni026C" unicode="&#x26c;" 
d="M197 273q-79 0 -117.5 30t-38.5 79q0 44 29.5 72t75.5 28q36 0 60 -19v122h-145v116h292v-352h130v-76h-130v-85q0 -43 23 -62t58 -19q37 0 77 16l33 -108q-83 -27 -149 -27q-91 0 -140 55t-49 151v79h-9zM180 349h26v7q0 20 -13.5 37t-40.5 17q-29 0 -29 -28
q0 -33 57 -33z" />
    <glyph glyph-name="uni026D" unicode="&#x26d;" 
d="M395 -187q-92 0 -140.5 55t-48.5 151v566h-144v116h291v-688q0 -42 22.5 -61.5t57.5 -19.5q33 0 78 16l33 -108q-88 -27 -149 -27z" />
    <glyph glyph-name="uni026E" unicode="&#x26e;" 
d="M369 -196q-124 0 -207 81l66 91q58 -53 124 -53q44 0 72 28.5t28 77.5q0 44 -26.5 68.5t-69.5 24.5q-31 0 -60 -12l-49 71l153 200h-212v-381h-147v701h147v-205h388v-78l-149 -195q84 -9 128 -62t44 -129q0 -106 -66.5 -167t-163.5 -61z" />
    <glyph glyph-name="uni026F" unicode="&#x26f;" 
d="M565 496v-496h-111l-10 61h-4q-33 -73 -107 -73q-68 0 -86 81q-32 -81 -110 -81q-53 0 -82 42.5t-29 117.5v348h140v-338q0 -45 27 -45q24 0 45 48v335h115v-338q0 -45 28 -45q25 0 44 48v335h140z" />
    <glyph glyph-name="uni0270" unicode="&#x270;" 
d="M426 -184v150l10 97h-4q-35 -75 -100 -75q-68 0 -86 81q-32 -81 -109 -81q-52 0 -81.5 43t-29.5 117v348h140v-338q0 -45 27 -45q24 0 45 48v335h115v-338q0 -45 28 -45q25 0 44 48v335h140v-680h-139z" />
    <glyph glyph-name="uni0271" unicode="&#x271;" 
d="M424 -187q-45 0 -76 12l26 109q15 -5 27 -5q19 0 26 14.5t7 48.5v346q0 45 -27 45q-24 0 -45 -48v-335h-115v338q0 45 -28 45q-25 0 -44 -48v-335h-140v496h111l10 -62h4q34 74 107 74q68 0 86 -81q32 81 110 81q52 0 81.5 -43t29.5 -117v-360q0 -175 -150 -175z" />
    <glyph glyph-name="uni0272" unicode="&#x272;" 
d="M62 -187q-46 0 -78 14l26 108q15 -6 29 -6q24 0 33.5 16.5t9.5 53.5v497h120l11 -66h4q80 78 163 78q160 0 160 -202v-306h-147v287q0 53 -16 74.5t-51 21.5q-27 0 -48 -12t-49 -40v-327q0 -191 -167 -191z" />
    <glyph glyph-name="uni0273" unicode="&#x273;" 
d="M550 -187q-167 0 -167 191v283q0 53 -16 74.5t-51 21.5q-27 0 -47.5 -12t-49.5 -40v-331h-147v496h120l11 -66h4q80 78 164 78q159 0 159 -202v-307q0 -37 9.5 -53.5t33.5 -16.5q13 0 28 6l27 -108q-33 -14 -78 -14z" />
    <glyph glyph-name="uni0274" unicode="&#x274;" 
d="M74 0v496h136l132 -209q10 -17 30.5 -55.5t25.5 -48.5h3q-13 132 -13 175v138h138v-496h-136l-132 209q-28 46 -56 104h-4q14 -122 14 -175v-138h-138z" />
    <glyph glyph-name="uni0275" unicode="&#x275;" 
d="M300 -12q-106 0 -179.5 69t-73.5 191t73.5 191t179.5 69t179.5 -69t73.5 -191t-73.5 -191t-179.5 -69zM300 399q-89 0 -111 -96h222q-22 96 -111 96zM300 98q95 0 113 106h-226q18 -106 113 -106z" />
    <glyph glyph-name="uni0276" unicode="&#x276;" 
d="M241 -12q-92 0 -157 67t-65 192q0 124 65.5 192.5t156.5 68.5q45 0 105 -12h237v-116h-158v-77h128v-99h-128v-88h168v-116h-247q-55 -12 -105 -12zM254 103q19 0 40 8v272q-26 7 -40 7q-36 0 -60 -35.5t-24 -107.5q0 -144 84 -144z" />
    <glyph glyph-name="uni0278" unicode="&#x278;" 
d="M154 248q0 -66 22.5 -103.5t61.5 -41.5v290q-39 -4 -61.5 -41.5t-22.5 -103.5zM446 248q0 66 -22.5 103.5t-61.5 41.5v-290q39 4 61.5 41.5t22.5 103.5zM238 -185v178q-90 6 -151.5 74t-61.5 181t61.5 181t151.5 74v197h124v-197q90 -6 151.5 -74t61.5 -181t-61.5 -181
t-151.5 -74v-177z" />
    <glyph glyph-name="uni0279" unicode="&#x279;" 
d="M484 496v-496h-120l-12 108h-3q-73 -120 -201 -120q-51 0 -96 20l30 123q48 -14 88 -14q110 0 167 121v258h147z" />
    <glyph glyph-name="uni027A" unicode="&#x27a;" 
d="M148 -12q-51 0 -96 20l30 124q47 -15 88 -15q110 0 167 121v463h147v-701h-120l-12 108h-3q-36 -59 -88.5 -89.5t-112.5 -30.5z" />
    <glyph glyph-name="uni027B" unicode="&#x27b;" 
d="M465 -187q-160 0 -160 173v109h-4q-28 -52 -72 -79.5t-93 -27.5q-43 0 -84 20l30 124q33 -15 69 -15q39 0 77.5 26t59.5 82v271h147v-493q0 -41 12 -57.5t40 -16.5q20 0 44 11l31 -107q-50 -20 -97 -20z" />
    <glyph glyph-name="uni027D" unicode="&#x27d;" 
d="M329 -187q-213 0 -213 218v465h120l12 -108h3q73 120 201 120q51 0 96 -20l-30 -123q-48 14 -88 14q-110 0 -167 -121v-225q0 -56 24.5 -80t79.5 -24q51 0 98 18l27 -107q-91 -27 -163 -27z" />
    <glyph glyph-name="uni027E" unicode="&#x27e;" 
d="M116 0v257q0 112 67 181.5t200 69.5q102 0 165 -20l-30 -123q-59 16 -114 16t-98 -38t-43 -118v-225h-147z" />
    <glyph glyph-name="uni0280" unicode="&#x280;" 
d="M74 0v496h252q205 0 205 -164q0 -104 -98 -149l133 -183h-165l-109 161h-71v-161h-147zM221 261h86q39 0 59 18t20 49q0 60 -79 60h-86v-127z" />
    <glyph glyph-name="uni0281" unicode="&#x281;" 
d="M526 496v-496h-252q-205 0 -205 164q0 104 98 149l-133 183h165l109 -161h71v161h147zM379 235h-86q-39 0 -59 -18t-20 -49q0 -60 79 -60h86v127z" />
    <glyph glyph-name="uni0282" unicode="&#x282;" 
d="M214 -187q-161 0 -161 200v51l63 92q95 -59 200 -59q79 0 79 42q0 21 -24 32t-98 27q-100 21 -144.5 58.5t-44.5 96.5q0 70 61.5 112.5t166.5 42.5q108 0 215 -68l-66 -88q-78 47 -162 47q-69 0 -69 -39q0 -19 21.5 -28t93.5 -25q112 -26 153.5 -61t41.5 -98
q0 -70 -64.5 -115t-179.5 -45q-57 0 -114 17v-18q0 -62 54 -62q16 0 39 7l26 -105q-35 -14 -87 -14z" />
    <glyph glyph-name="uni0283" unicode="&#x283;" 
d="M185 -196q-74 0 -142 33l42 102q45 -20 77 -20q37 0 51.5 20.5t14.5 66.5v500q0 207 201 207q62 0 132 -29l-37 -105q-43 19 -72 19q-42 0 -59.5 -21t-17.5 -66v-500q0 -207 -190 -207z" />
    <glyph glyph-name="uni0284" unicode="&#x284;" 
d="M185 -196q-74 0 -142 33l42 102q45 -20 77 -20q37 0 51.5 20.5t14.5 66.5v215h-147v69l147 6v210q0 207 201 207q62 0 132 -29l-37 -105q-43 19 -72 19q-42 0 -59.5 -21t-17.5 -66v-215h150v-75h-150v-210q0 -207 -190 -207z" />
    <glyph glyph-name="uni0287" unicode="&#x287;" 
d="M212 508q214 0 214 -218v-175h125v-109l-132 -6l-19 -152h-121v152h-210v115h210v174q0 56 -25 80t-80 24q-44 0 -98 -18l-26 106q91 27 162 27z" />
    <glyph glyph-name="uni0288" unicode="&#x288;" 
d="M388 -187q-214 0 -214 218v350h-125v109l132 6l19 152h121v-152h210v-115h-210v-348q0 -56 24.5 -80t79.5 -24q52 0 99 18l26 -107q-91 -27 -162 -27z" />
    <glyph glyph-name="uni0289" unicode="&#x289;" 
d="M279 113q49 0 88 55v98h-149v-59q0 -52 14.5 -73t46.5 -21zM224 -12q-153 0 -153 200v78h-82v69l82 6v155h147v-155h149v155h147v-155h86v-75h-86v-266h-120l-10 69h-3q-68 -81 -157 -81z" />
    <glyph glyph-name="uni028A" unicode="&#x28a;" 
d="M300 -12q-113 0 -181 64t-68 149q0 102 75 177v3h-87v115h221v-95q-32 -40 -47 -77.5t-15 -91.5q0 -56 26 -90.5t76 -34.5t76 34.5t26 90.5q0 54 -15 91.5t-47 77.5v95h221v-115h-87v-3q75 -75 75 -177q0 -85 -68 -149t-181 -64z" />
    <glyph glyph-name="uni028B" unicode="&#x28b;" 
d="M298 -12q-110 0 -173 61.5t-63 177.5v269h147v-267q0 -122 95 -122q47 0 72.5 45.5t25.5 126.5q0 60 -13 87.5t-43 27.5q-10 0 -21 -3l-17 109q25 8 70 8q79 0 127 -52t48 -155q0 -145 -65.5 -229t-189.5 -84z" />
    <glyph glyph-name="uni028C" unicode="&#x28c;" 
d="M382 496l187 -496h-148l-78 234q-9 27 -45 153h-4l-13.5 -49l-16 -56.5l-14.5 -47.5l-78 -234h-141l182 496h169z" />
    <glyph glyph-name="uni028D" unicode="&#x28d;" 
d="M515 496l81 -496h-142l-31 230q-3 25 -8 74t-8 73h-3q-11 -89 -23 -147l-31 -164h-107l-32 164q-14 69 -25 147h-4q-4 -29 -8.5 -81.5t-5.5 -65.5l-28 -230h-136l76 496h173l27 -161q10 -74 18 -147h4q6 58 17 147l26 161h170z" />
    <glyph glyph-name="uni028E" unicode="&#x28e;" 
d="M29 0l204 521q38 99 89 145.5t138 46.5q38 0 75 -10l-27 -112q-20 6 -37 6q-71 0 -99 -69l-18 -45l215 -483h-146l-83 213q-21 55 -50 149h-4q-4 -15 -45 -149l-73 -213h-139z" />
    <glyph glyph-name="uni028F" unicode="&#x28f;" 
d="M228 0v150l-195 346h155l54 -107l30.5 -71.5l27.5 -64.5h4q40 94 60 136l52 107h153l-194 -346v-150h-147z" />
    <glyph glyph-name="uni0290" unicode="&#x290;" 
d="M557 -187q-89 0 -128 49.5t-39 124.5v13h-320v79l257 302h-226v115h431v-78l-259 -303h264v-116q0 -37 9.5 -53.5t32.5 -16.5q14 0 29 6l26 -108q-32 -14 -77 -14z" />
    <glyph glyph-name="uni0291" unicode="&#x291;" 
d="M359 -113l-74 14q9 53 21 99h-236v79l239 302h-208v115h391v-79l-237 -302q14 -1 42.5 -2.5t42.5 -2.5q58 145 142 145q50 0 78.5 -28t28.5 -81q0 -64 -45 -105t-132 -41h-30q-13 -53 -23 -113zM451 107q28 0 42.5 12t14.5 30q0 26 -28 26q-33 0 -63 -68h34z" />
    <glyph glyph-name="uni0292" unicode="&#x292;" 
d="M282 -196q-130 0 -230 92l67 92q70 -65 145 -65q54 0 88 29.5t34 80.5q0 46 -32.5 72t-87.5 26q-9 0 -17 -0.5t-13 -1.5t-12 -3.5t-10.5 -3.5t-13.5 -5.5t-15 -6.5l-48 71l196 200h-248v115h425v-78l-179 -194q90 0 146.5 -54.5t56.5 -133.5q0 -108 -72.5 -170
t-179.5 -62z" />
    <glyph glyph-name="uni0294" unicode="&#x294;" 
d="M205 0v313q102 62 138.5 99t36.5 84t-32.5 72.5t-88.5 25.5q-77 0 -136 -70l-73 93q89 96 225 96q108 0 180 -55t72 -156q0 -75 -41 -126t-134 -118v-258h-147z" />
    <glyph glyph-name="uni0295" unicode="&#x295;" 
d="M245 0v258q-47 34 -73.5 56.5t-53 52.5t-38 62.5t-11.5 72.5q0 101 72.5 156t180.5 55q135 0 225 -96l-73 -93q-59 70 -136 70q-56 0 -88.5 -25.5t-32.5 -72.5q0 -48 36 -84.5t139 -98.5v-313h-147z" />
    <glyph glyph-name="uni0298" unicode="&#x298;" 
d="M300 -12q-114 0 -183.5 93.5t-69.5 270.5t69.5 269t183.5 92t184 -92t70 -269t-70 -270.5t-184 -93.5zM300 107q118 0 118 245q0 128 -33 185t-85 57t-84.5 -57t-32.5 -185q0 -245 117 -245zM300 282q-30 0 -51 20t-21 50q0 32 21 53.5t51 21.5t51 -21.5t21 -53.5
q0 -30 -21 -50t-51 -20z" />
    <glyph glyph-name="uni0299" unicode="&#x299;" 
d="M110 0v496h234q210 0 210 -131q0 -34 -21 -62.5t-63 -39.5v-4q103 -27 103 -116q0 -72 -60 -107.5t-156 -35.5h-247zM254 303h81q78 0 78 47t-77 47h-82v-94zM254 99h94q82 0 82 54q0 51 -83 51h-93v-105z" />
    <glyph glyph-name="uni029C" unicode="&#x29c;" 
d="M72 0v496h147v-179h162v179h147v-496h-147v189h-162v-189h-147z" />
    <glyph glyph-name="uni029D" unicode="&#x29d;" 
d="M414 -228q-21 51 -47 93q-59 -61 -162 -61q-82 0 -130.5 42t-48.5 106q0 61 44 97t122 36q44 0 86 -13v309h-199v115h346v-475q0 -19 -3 -39q62 -62 105 -160zM200 -84q60 0 75 47q-41 25 -85 25q-55 0 -55 -33q0 -16 16.5 -27.5t48.5 -11.5zM345 574q-43 0 -70.5 24.5
t-27.5 64.5t27.5 66t70.5 26t70.5 -26t27.5 -66t-27.5 -64.5t-70.5 -24.5z" />
    <glyph glyph-name="uni029E" unicode="&#x29e;" 
d="M377 -184v384h-4l-188 -200h-170l207 212l-191 284h149l127 -196l70 71v125h147v-680h-147z" />
    <glyph glyph-name="uni029F" unicode="&#x29f;" 
d="M121 0v496h147v-381h268v-115h-415z" />
    <glyph glyph-name="uni02A1" unicode="&#x2a1;" 
d="M205 0v239h-151v69l76 6h93q157 94 157 182q0 47 -30.5 72.5t-82.5 25.5q-80 0 -144 -70l-73 92q91 96 233 96q105 0 174.5 -54.5t69.5 -155.5q0 -97 -119 -188h132v-75h-188v-239h-147z" />
    <glyph glyph-name="uni02A2" unicode="&#x2a2;" 
d="M245 0v239h-188v69l76 6h56q-119 91 -119 188q0 101 69.5 155.5t174.5 54.5q142 0 233 -96l-73 -92q-64 70 -144 70q-52 0 -82.5 -25.5t-30.5 -72.5q0 -88 157 -182h169v-75h-151v-239h-147z" />
    <glyph glyph-name="uni02A4" unicode="&#x2a4;" 
d="M181 108q33 0 44 51v196q-19 33 -44 33q-27 0 -43.5 -35.5t-16.5 -103.5q0 -141 60 -141zM438 -196q-83 0 -140 54l57 94q32 -30 67 -30q30 0 49 26.5t19 80.5q0 45 -17.5 69t-44.5 24q-15 0 -30 -9l-46 81l110 187h-122v-381h-89l-12 44h-4q-37 -56 -89 -56
q-68 0 -110.5 71t-42.5 189q0 116 44 188t110 72q50 0 82 -46h2l-6 91v147h115v-204h256v-79l-107 -193q60 -11 94.5 -64.5t34.5 -132.5q0 -98 -48.5 -160.5t-131.5 -62.5z" />
    <glyph glyph-name="uni02A6" unicode="&#x2a6;" 
d="M331 -12q-256 0 -256 199v194h-68v109l74 6l19 152h122v-152h150q33 12 74 12q84 0 142 -51l-49 -79q-40 28 -77 28q-39 0 -39 -35q0 -14 17 -28.5t41.5 -30t49.5 -35.5t42 -54t17 -76q0 -78 -60 -118.5t-199 -40.5zM345 97q116 0 116 54q0 22 -18 41t-43.5 35.5t-51 35
t-43.5 48t-18 66.5v4h-65v-191q0 -50 30.5 -71.5t92.5 -21.5z" />
    <glyph glyph-name="uni02A7" unicode="&#x2a7;" 
d="M370 -196q-52 0 -85 14l26 108q25 -7 39 -7q24 0 34.5 19t10.5 61v382h-174v-199q0 -79 51 -79q29 0 52 10l23 -107q-59 -18 -107 -18q-166 0 -166 192v201h-68v109l75 6l18 152h122v-152h174v24q0 85 43.5 139t138.5 54q43 0 74 -14l-26 -108q-17 7 -29 7q-30 0 -42 -19
t-12 -61v-515q0 -89 -41.5 -144t-130.5 -55z" />
    <glyph glyph-name="h.sups" unicode="&#x2b0;" 
d="M156 375v468h104v-117l-5 -61q50 48 107 48q107 0 107 -135v-203h-104v190q0 31 -10.5 45t-34.5 14q-27 0 -60 -30v-219h-104z" />
    <glyph glyph-name="j.sups" unicode="&#x2b2;" 
d="M230 247q-49 0 -97 23l30 73q31 -15 60 -15q33 0 46.5 15.5t13.5 51.5v229h-126v81h230v-307q0 -151 -157 -151zM332 749q-30 0 -49 17t-19 45t19 46t49 18q29 0 48.5 -18t19.5 -46q0 -27 -19 -44.5t-49 -17.5z" />
    <glyph glyph-name="r.sups" unicode="&#x2b3;" 
d="M214 375v330h86l8 -73h3q43 81 121 81q32 0 63 -14l-20 -87q-30 10 -59 10q-64 0 -98 -79v-168h-104z" />
    <glyph glyph-name="w.sups" unicode="&#x2b7;" 
d="M120 375l-82 329h102l30 -147l14 -100h3l19 100l38 147h83l40 -147l19 -100h3l15 100l30 147h95l-79 -329h-120l-29 127l-16 90h-2l-16 -90l-28 -127h-119z" />
    <glyph glyph-name="y.sups" unicode="&#x2b8;" 
d="M204 249q-24 0 -48 7l18 77l9 -2q9 -2 13 -2q42 0 58 40l5 16l-130 320h104l47 -137l8.5 -28.5t9.5 -34.5l8 -30h2l11.5 47.5t11.5 45.5l40 137h99l-116 -330q-23 -67 -57 -96.5t-93 -29.5z" />
    <glyph glyph-name="uni02B9" unicode="&#x2b9;" 
d="M230 355l21 331h147l-25 -145l-47 -186h-96z" />
    <glyph glyph-name="uni02BB" unicode="&#x2bb;" 
d="M301 290q-55 0 -86 42t-31 118q0 168 175 247l38 -78q-105 -49 -112 -140q11 3 21 3q40 0 65.5 -25t25.5 -66q0 -45 -27 -73t-69 -28z" />
    <glyph glyph-name="uni02BC" unicode="&#x2bc;" 
d="M241 290l-39 78q105 47 111 139q-9 -3 -19 -3q-41 0 -66.5 25.5t-25.5 66.5q0 45 27 73t69 28q56 0 86.5 -42.5t30.5 -117.5q0 -167 -174 -247z" />
    <glyph glyph-name="uni02BE" unicode="&#x2be;" 
d="M222 538v79q93 0 93 68t-93 68v79q103 3 151 -36.5t48 -110.5t-48 -110.5t-151 -36.5z" />
    <glyph glyph-name="uni02BF" unicode="&#x2bf;" 
d="M378 538q-103 -3 -151 36.5t-48 110.5t48 110.5t151 36.5v-79q-93 0 -93 -68t93 -68v-79z" />
    <glyph glyph-name="uni02C1" unicode="&#x2c1;" 
d="M260 451v80q-58 44 -85.5 79t-27.5 85q0 66 48.5 102t120.5 36q91 0 147 -61l-51 -64q-40 42 -86 42q-33 0 -54 -15.5t-21 -43.5q0 -33 25 -60t89 -64v-116h-105z" />
    <glyph glyph-name="circumflex" unicode="&#x2c6;" 
d="M173 561l-56 52l108 131h150l108 -131l-56 -52l-125 92h-4z" />
    <glyph glyph-name="caron" unicode="&#x2c7;" 
d="M225 577l-108 131l56 52l125 -92h4l125 92l56 -52l-108 -131h-150z" />
    <glyph glyph-name="uni02C8" unicode="&#x2c8;" 
d="M255 377l-31 363h152l-31 -363h-90z" />
    <glyph glyph-name="uni02C9" unicode="&#x2c9;" 
d="M152 592v93h296v-93h-296z" />
    <glyph glyph-name="uni02CA" unicode="&#x2ca;" 
d="M294 561l-72 72l153 182l100 -98z" />
    <glyph glyph-name="uni02CB" unicode="&#x2cb;" 
d="M306 561l-181 156l100 98l153 -182z" />
    <glyph glyph-name="uni02CC" unicode="&#x2cc;" 
d="M224 -265l31 363h90l31 -363h-152z" />
    <glyph glyph-name="uni02D0" unicode="&#x2d0;" 
d="M164 0l129 218h14l129 -218h-272zM293 316l-129 218h272l-129 -218h-14z" />
    <glyph glyph-name="uni02D1" unicode="&#x2d1;" 
d="M293 316l-129 218h272l-129 -218h-14z" />
    <glyph glyph-name="breve" unicode="&#x2d8;" 
d="M300 572q-82 0 -124.5 43.5t-44.5 113.5l84 14q5 -35 26 -57t59 -22t59 22t26 57l84 -14q-2 -70 -44.5 -113.5t-124.5 -43.5z" />
    <glyph glyph-name="dotaccent" unicode="&#x2d9;" 
d="M300 574q-43 0 -70.5 24.5t-27.5 64.5t27.5 66t70.5 26t70.5 -26t27.5 -66t-27.5 -64.5t-70.5 -24.5z" />
    <glyph glyph-name="ring" unicode="&#x2da;" 
d="M300 568q-63 0 -97.5 29.5t-34.5 74.5q0 44 34.5 73.5t97.5 29.5t97.5 -29.5t34.5 -73.5q0 -45 -34.5 -74.5t-97.5 -29.5zM300 623q18 0 30.5 14t12.5 35t-12.5 34.5t-30.5 13.5t-30.5 -13.5t-12.5 -34.5t12.5 -35t30.5 -14z" />
    <glyph glyph-name="ogonek" unicode="&#x2db;" 
d="M309 -227q-50 0 -81.5 25.5t-31.5 73.5q0 43 24.5 77t53.5 53h83q-62 -49 -62 -96q0 -23 15 -34.5t34 -11.5q32 0 50 14l31 -65q-44 -36 -116 -36z" />
    <glyph glyph-name="tilde" unicode="&#x2dc;" 
d="M366 573q-27 0 -52.5 16t-45 32t-31.5 16q-29 0 -35 -55l-92 5q4 152 124 152q27 0 52.5 -16t45 -32t31.5 -16q29 0 35 55l92 -5q-4 -152 -124 -152z" />
    <glyph glyph-name="hungarumlaut" unicode="&#x2dd;" 
d="M247 565l-78 35l88 181l98 -44zM426 565l-78 35l88 181l98 -44z" />
    <glyph glyph-name="uni02DE" unicode="&#x2de;" 
d="M335 226q-85 0 -117 97l-128 -55v105l188 81q23 -145 66 -145q21 0 41 11l30 -69q-40 -25 -80 -25z" />
    <glyph glyph-name="uni02E0" unicode="&#x2e0;" 
d="M303 237q-49 0 -78 27t-29 71q0 35 39 101l-104 268h104l42 -134q4 -14 12 -39t12 -39h3q5 17 14 42t12 36l41 134h99l-101 -267l22 -39.5t12.5 -29.5t5.5 -33q0 -44 -28.5 -71t-77.5 -27zM303 301q10 0 16.5 7.5t6.5 18.5q0 27 -23 66h-3q-20 -45 -20 -66q0 -26 23 -26z
" />
    <glyph glyph-name="l.sups" unicode="&#x2e1;" 
d="M378 367q-128 0 -128 138v257h-69v81h173v-342q0 -51 51 -51q14 0 44 10l17 -80q-56 -13 -88 -13z" />
    <glyph glyph-name="s.sups" unicode="&#x2e2;" 
d="M300 367q-86 0 -155 48l47 63q57 -35 110 -35q55 0 55 26q0 12 -17 20t-51 18q-7 2 -11 3q-50 16 -81 38.5t-31 59.5q0 47 40.5 76t109.5 29q66 0 137 -44l-47 -61q-44 27 -89 27q-48 0 -48 -23q0 -12 16.5 -19.5t47.5 -16.5l12 -3q52 -14 83.5 -36t31.5 -62
q0 -47 -42 -77.5t-118 -30.5z" />
    <glyph glyph-name="x.sups" unicode="&#x2e3;" 
d="M124 375l111 171l-104 159h111l31 -52q5 -11 33 -56h3q3 8 7.5 17.5l9.5 21t8 17.5l26 52h108l-105 -171l111 -159h-111l-34 52l-37 57h-2q-20 -38 -29 -57l-29 -52h-108z" />
    <glyph glyph-name="uni02E4" unicode="&#x2e4;" 
d="M260 375v169q-58 43 -85.5 78t-27.5 86q0 65 48.5 101t120.5 36q91 0 147 -60l-51 -65q-40 42 -86 42q-33 0 -54 -15t-21 -43q0 -33 25.5 -60.5t88.5 -63.5v-205h-105z" />
    <glyph glyph-name="uni0300" unicode="&#x300;" 
d="M306 561l-181 156l100 98l153 -182z" />
    <glyph glyph-name="uni0301" unicode="&#x301;" 
d="M294 561l-72 72l153 182l100 -98z" />
    <glyph glyph-name="uni0302" unicode="&#x302;" 
d="M173 561l-56 52l108 131h150l108 -131l-56 -52l-125 92h-4z" />
    <glyph glyph-name="uni0303" unicode="&#x303;" 
d="M366 573q-27 0 -52.5 16t-45 32t-31.5 16q-29 0 -35 -55l-92 5q4 152 124 152q27 0 52.5 -16t45 -32t31.5 -16q29 0 35 55l92 -5q-4 -152 -124 -152z" />
    <glyph glyph-name="uni0304" unicode="&#x304;" 
d="M152 592v93h296v-93h-296z" />
    <glyph glyph-name="uni0305" unicode="&#x305;" 
d="M152 592v93h296v-93h-296z" />
    <glyph glyph-name="uni0306" unicode="&#x306;" 
d="M300 572q-82 0 -124.5 43.5t-44.5 113.5l84 14q5 -35 26 -57t59 -22t59 22t26 57l84 -14q-2 -70 -44.5 -113.5t-124.5 -43.5z" />
    <glyph glyph-name="uni0307" unicode="&#x307;" 
d="M300 574q-43 0 -70.5 24.5t-27.5 64.5t27.5 66t70.5 26t70.5 -26t27.5 -66t-27.5 -64.5t-70.5 -24.5z" />
    <glyph glyph-name="uni0308" unicode="&#x308;" 
d="M189 571q-35 0 -57.5 23t-22.5 57q0 35 22.5 58t57.5 23t57.5 -23t22.5 -58q0 -34 -22.5 -57t-57.5 -23zM411 571q-35 0 -57.5 23t-22.5 57q0 35 22.5 58t57.5 23t57.5 -23t22.5 -58q0 -34 -22.5 -57t-57.5 -23z" />
    <glyph glyph-name="uni0309" unicode="&#x309;" 
d="M257 568l-12 58q45 9 45 35q0 36 -80 42l9 90q178 -4 178 -121q0 -48 -39 -73.5t-101 -30.5z" />
    <glyph glyph-name="uni030A" unicode="&#x30a;" 
d="M300 568q-63 0 -97.5 29.5t-34.5 74.5q0 44 34.5 73.5t97.5 29.5t97.5 -29.5t34.5 -73.5q0 -45 -34.5 -74.5t-97.5 -29.5zM300 623q18 0 30.5 14t12.5 35t-12.5 34.5t-30.5 13.5t-30.5 -13.5t-12.5 -34.5t12.5 -35t30.5 -14z" />
    <glyph glyph-name="uni030B" unicode="&#x30b;" 
d="M247 565l-78 35l88 181l98 -44zM426 565l-78 35l88 181l98 -44z" />
    <glyph glyph-name="uni030C" unicode="&#x30c;" 
d="M225 577l-108 131l56 52l125 -92h4l125 92l56 -52l-108 -131h-150z" />
    <glyph glyph-name="uni030F" unicode="&#x30f;" 
d="M174 565l-108 172l98 44l88 -181zM353 565l-108 172l98 44l88 -181z" />
    <glyph glyph-name="uni0310" unicode="&#x310;" 
d="M300 572q-85 0 -131 43.5t-50 113.5l76 14q6 -38 33.5 -63t71.5 -25q43 0 71 25t34 63l76 -14q-4 -70 -50 -113.5t-131 -43.5zM300 702q-33 0 -54.5 20t-21.5 53t21.5 54t54.5 21t54.5 -21t21.5 -54t-21.5 -53t-54.5 -20z" />
    <glyph glyph-name="uni0311" unicode="&#x311;" 
d="M215 565l-84 14q2 70 44.5 113.5t124.5 43.5t124.5 -43.5t44.5 -113.5l-84 -14q-5 35 -26.5 57.5t-58.5 22.5t-58.5 -22.5t-26.5 -57.5z" />
    <glyph glyph-name="uni0312" unicode="&#x312;" 
d="M310 562q-38 0 -60.5 25t-22.5 70q0 99 119 132l22 -48q-66 -21 -73 -57q10 5 18 5q26 0 44.5 -17t18.5 -46t-18.5 -46.5t-47.5 -17.5z" />
    <glyph glyph-name="uni0313" unicode="&#x313;" 
d="M254 562l-22 49q66 21 73 57q-10 -5 -18 -5q-26 0 -44.5 17t-18.5 46t19 46t47 17q38 0 60.5 -25t22.5 -69q0 -47 -30 -81.5t-89 -51.5z" />
    <glyph glyph-name="uni0318" unicode="&#x318;" 
d="M330 -257v66h-117v71h117v66h84v-203h-84z" />
    <glyph glyph-name="uni0319" unicode="&#x319;" 
d="M186 -257v203h84v-66h117v-71h-117v-66h-84z" />
    <glyph glyph-name="uni031A" unicode="&#x31a;" 
d="M321 574v79h-108v71h186v-150h-78z" />
    <glyph glyph-name="uni031B" unicode="&#x31b;" 
d="M301 427l-11 59q67 13 67 90q0 27 -16 57l109 47q30 -42 30 -94q0 -74 -50.5 -113.5t-128.5 -45.5z" />
    <glyph glyph-name="uni031C" unicode="&#x31c;" 
d="M368 -258q-166 -4 -166 102q0 107 166 101v-54q-68 0 -68 -47t68 -47v-55z" />
    <glyph glyph-name="uni031D" unicode="&#x31d;" 
d="M173 -229v71h85v104h84v-104h85v-71h-254z" />
    <glyph glyph-name="uni031E" unicode="&#x31e;" 
d="M258 -257v105h-85v70h254v-70h-85v-105h-84z" />
    <glyph glyph-name="uni031F" unicode="&#x31f;" 
d="M258 -257v66h-85v71h85v66h84v-66h85v-71h-85v-66h-84z" />
    <glyph glyph-name="uni0320" unicode="&#x320;" 
d="M173 -154v71h254v-71h-254z" />
    <glyph glyph-name="uni0323" unicode="&#x323;" 
d="M300 -246q-43 0 -70.5 24.5t-27.5 64.5t27.5 66t70.5 26t70.5 -26t27.5 -66t-27.5 -64.5t-70.5 -24.5z" />
    <glyph glyph-name="uni0324" unicode="&#x324;" 
d="M189 -232q-35 0 -57.5 23t-22.5 57q0 35 22.5 58t57.5 23t57.5 -23t22.5 -58q0 -34 -22.5 -57t-57.5 -23zM411 -232q-35 0 -57.5 23t-22.5 57q0 35 22.5 58t57.5 23t57.5 -23t22.5 -58q0 -34 -22.5 -57t-57.5 -23z" />
    <glyph glyph-name="uni0325" unicode="&#x325;" 
d="M300 -256q-63 0 -97.5 29.5t-34.5 74.5q0 44 34.5 73.5t97.5 29.5t97.5 -29.5t34.5 -73.5q0 -45 -34.5 -74.5t-97.5 -29.5zM300 -201q18 0 30.5 14t12.5 35t-12.5 34.5t-30.5 13.5t-30.5 -13.5t-12.5 -34.5t12.5 -35t30.5 -14z" />
    <glyph glyph-name="uni0326" unicode="&#x326;" 
d="M198 -239l-11 59q57 3 80 12t23 27q0 29 -64 35l28 54q78 -7 109.5 -26.5t31.5 -57.5q0 -97 -197 -103z" />
    <glyph glyph-name="uni0327" unicode="&#x327;" 
d="M198 -239l-11 59q58 3 80.5 13t22.5 31q0 32 -77 42l50 105h86l-30 -72q39 -9 57.5 -26.5t18.5 -48.5q0 -97 -197 -103z" />
    <glyph glyph-name="uni0328" unicode="&#x328;" 
d="M309 -227q-50 0 -81.5 25.5t-31.5 73.5q0 43 24.5 77t53.5 53h83q-62 -49 -62 -96q0 -23 15 -34.5t34 -11.5q32 0 50 14l31 -65q-44 -36 -116 -36z" />
    <glyph glyph-name="uni0329" unicode="&#x329;" 
d="M241 -269l6 205h106l6 -205h-118z" />
    <glyph glyph-name="uni032A" unicode="&#x32a;" 
d="M169 -220v142h262v-142h-76v71h-110v-71h-76z" />
    <glyph glyph-name="uni032C" unicode="&#x32c;" 
d="M225 -225l-108 131l56 52l125 -92h4l125 92l56 -52l-108 -131h-150z" />
    <glyph glyph-name="uni032E" unicode="&#x32e;" 
d="M300 -233q-82 0 -124.5 43.5t-44.5 113.5l84 14q5 -35 26 -57t59 -22t59 22t26 57l84 -14q-2 -70 -44.5 -113.5t-124.5 -43.5z" />
    <glyph glyph-name="uni032F" unicode="&#x32f;" 
d="M215 -247l-84 14q2 70 44.5 113.5t124.5 43.5t124.5 -43.5t44.5 -113.5l-84 -14q-5 35 -26.5 57.5t-58.5 22.5t-58.5 -22.5t-26.5 -57.5z" />
    <glyph glyph-name="uni0330" unicode="&#x330;" 
d="M366 -227q-27 0 -52.5 16t-45 32t-31.5 16q-29 0 -35 -55l-92 5q4 152 124 152q27 0 52.5 -16t45 -32t31.5 -16q29 0 35 55l92 -5q-4 -152 -124 -152z" />
    <glyph glyph-name="uni0331" unicode="&#x331;" 
d="M152 -188v93h296v-93h-296z" />
    <glyph glyph-name="uni0334" unicode="&#x334;" 
d="M416 166q-55 0 -123 32t-92 32q-29 0 -35 -52l-92 19q6 135 110 135q56 0 124 -32t92 -32q28 0 34 52l92 -18q-6 -136 -110 -136z" />
    <glyph glyph-name="uni0339" unicode="&#x339;" 
d="M232 -258v55q68 0 68 47t-68 47v54q166 6 166 -101q0 -106 -166 -102z" />
    <glyph glyph-name="uni033A" unicode="&#x33a;" 
d="M169 -214v142h76v-71h110v71h76v-142h-262z" />
    <glyph glyph-name="uni033B" unicode="&#x33b;" 
d="M169 -247v181h262v-181h-262zM245 -193h110v74h-110v-74z" />
    <glyph glyph-name="uni033C" unicode="&#x33c;" 
d="M191 -245l-83 10q-1 159 115 159q57 0 75 -53h4q18 53 75 53q60 0 88 -39t27 -120l-83 -10q0 45 -9 61.5t-29 16.5q-36 0 -36 -55v-22h-70v22q0 55 -37 55q-19 0 -28 -16.5t-9 -61.5z" />
    <glyph glyph-name="uni033D" unicode="&#x33d;" 
d="M235 566l-49 44l63 56l-63 57l49 44l65 -55l65 55l49 -44l-63 -57l63 -56l-49 -44l-65 55z" />
    <glyph glyph-name="uni0342" unicode="&#x342;" 
d="M366 573q-27 0 -52.5 16t-45 32t-31.5 16q-29 0 -35 -55l-92 5q4 152 124 152q27 0 52.5 -16t45 -32t31.5 -16q29 0 35 55l92 -5q-4 -152 -124 -152z" />
    <glyph glyph-name="uni0345" unicode="&#x345;" 
d="M354 -216q-111 0 -111 127v34h106q-2 -15 -2 -40q0 -33 37 -33q8 0 17 2l14 -79q-22 -11 -61 -11z" />
    <glyph glyph-name="uni035F" unicode="&#x35f;" 
d="M-208 -189v94h1016v-94h-1016z" />
    <glyph glyph-name="uni0361" unicode="&#x361;" 
d="M-119 536l-38 67q202 124 457 124t457 -124l-38 -67q-173 97 -419 97t-419 -97z" />
    <glyph glyph-name="uni0374" unicode="&#x374;" 
d="M232 388l19 298h147l-23 -127l-47 -171h-96z" />
    <glyph glyph-name="uni0375" unicode="&#x375;" 
d="M202 0l23 127l47 171h96l-19 -298h-147z" />
    <glyph glyph-name="uni037A" unicode="&#x37a;" 
d="M354 -216q-111 0 -111 127v34h106q-2 -15 -2 -40q0 -33 37 -33q8 0 17 2l14 -79q-22 -11 -61 -11z" />
    <glyph glyph-name="uni037E" unicode="&#x37e;" 
d="M300 311q-51 0 -83.5 33.5t-32.5 83.5t32.5 84t83.5 34t83.5 -34t32.5 -84t-32.5 -83.5t-83.5 -33.5zM219 -217l-37 86q133 46 130 142q-4 -1 -11 -1q-45 0 -76.5 27.5t-31.5 74.5q0 46 32.5 74.5t79.5 28.5q61 0 92.5 -45t31.5 -127q0 -96 -53.5 -162.5t-156.5 -97.5z
" />
    <glyph glyph-name="tonos" unicode="&#x384;" 
d="M344 558l-99 15l35 257l144 -22z" />
    <glyph glyph-name="dieresistonos" unicode="&#x385;" 
d="M164 584q-25 0 -42.5 17t-17.5 43q0 27 17.5 43.5t42.5 16.5t42.5 -16.5t17.5 -43.5q0 -26 -17.5 -43t-42.5 -17zM248 581l38 249l104 -17l-77 -243zM436 584q-25 0 -42.5 17t-17.5 43q0 27 17.5 43.5t42.5 16.5t42.5 -16.5t17.5 -43.5q0 -26 -17.5 -43t-42.5 -17z" />
    <glyph glyph-name="Alphatonos" unicode="&#x386;" 
d="M280 330l-13 -60h112l-13 60l-43 194h-4zM58 0l179 652h176l178 -652h-156l-32 155h-161l-33 -155h-151zM97 347l-94 17l45 326l126 -17z" />
    <glyph glyph-name="anoteleia" unicode="&#x387;" 
d="M300 292q-51 0 -83.5 33.5t-32.5 83.5t32.5 84t83.5 34t83.5 -34t32.5 -84t-32.5 -83.5t-83.5 -33.5z" />
    <glyph glyph-name="Epsilontonos" unicode="&#x388;" 
d="M210 0v652h314v-124h-183v-131h140v-123h-140v-150h193v-124h-324zM93 347l-94 17l45 326l126 -17z" />
    <glyph glyph-name="Etatonos" unicode="&#x389;" 
d="M197 0v652h131v-251h94v251h130v-652h-130v272h-94v-272h-131zM93 347l-94 17l45 326l126 -17z" />
    <glyph glyph-name="Iotatonos" unicode="&#x38a;" 
d="M200 0v124h89v404h-89v124h326v-124h-89v-404h89v-124h-326zM93 347l-94 17l45 326l126 -17z" />
    <glyph glyph-name="Omicrontonos" unicode="&#x38c;" 
d="M354 -12q-94 0 -151 91t-57 250q0 163 56.5 249t151.5 86t151.5 -86t56.5 -249t-56.5 -252t-151.5 -89zM354 115q69 0 69 214q0 113 -17.5 160.5t-51.5 47.5q-69 0 -69 -208q0 -214 69 -214zM93 347l-94 17l45 326l126 -17z" />
    <glyph glyph-name="Upsilontonos" unicode="&#x38e;" 
d="M348 0v220l-146 432h134l40 -157q7 -31 19.5 -80.5t16.5 -68.5h4q6 29 19.5 80l18.5 69l41 157h129l-146 -432v-220h-130zM105 347l-94 17l45 326l126 -17z" />
    <glyph glyph-name="Omegatonos" unicode="&#x38f;" 
d="M137 0v119h82v4q-72 116 -72 253q0 128 56.5 208t150.5 80q93 0 149.5 -80t56.5 -208q0 -137 -72 -253v-4h82v-119h-192v106q25 66 34.5 116t9.5 123q0 192 -68 192q-69 0 -69 -192q0 -73 9.5 -123t34.5 -116v-106h-192zM93 347l-94 17l45 326l126 -17z" />
    <glyph glyph-name="iotadieresistonos" unicode="&#x390;" 
d="M393 -12q-103 0 -145 52.5t-42 153.5v187h-145v115h293l-5.5 -146.5t-4.5 -161.5q0 -45 20.5 -63t66.5 -18q37 0 77 17l32 -108q-63 -28 -147 -28zM142 584q-25 0 -42.5 17t-17.5 43q0 27 17.5 43.5t42.5 16.5t42.5 -16.5t17.5 -43.5q0 -26 -17.5 -43t-42.5 -17zM226 581
l38 249l104 -17l-77 -243zM414 584q-25 0 -42.5 17t-17.5 43q0 27 17.5 43.5t42.5 16.5t42.5 -16.5t17.5 -43.5q0 -26 -17.5 -43t-42.5 -17z" />
    <glyph glyph-name="Alpha" unicode="&#x391;" 
d="M244 330l-15 -60h137l-15 60q-38 144 -52 210h-4q-31 -132 -51 -210zM9 0l203 652h176l203 -652h-156l-39 155h-197l-40 -155h-150z" />
    <glyph glyph-name="Beta" unicode="&#x392;" 
d="M74 0v652h219q239 0 239 -162q0 -47 -28.5 -87t-83.5 -54v-4q142 -26 142 -153q0 -95 -69 -143.5t-181 -48.5h-238zM221 390h65q102 0 102 80q0 36 -24.5 51.5t-76.5 15.5h-66v-147zM221 115h79q118 0 118 88q0 42 -28.5 61.5t-89.5 19.5h-79v-169z" />
    <glyph glyph-name="Gamma" unicode="&#x393;" 
d="M108 0v652h429v-124h-281v-528h-148z" />
    <glyph glyph-name="uni0394" unicode="&#x394;" 
d="M31 0v89l181 563h176l181 -563v-89h-538zM189 124h219l-57 205q-27 104 -52 211h-4l-51 -211z" />
    <glyph glyph-name="Epsilon" unicode="&#x395;" 
d="M92 0v652h432v-124h-284v-131h241v-123h-241v-150h294v-124h-442z" />
    <glyph glyph-name="Zeta" unicode="&#x396;" 
d="M56 0v89l305 440h-276v123h458v-89l-305 -439h309v-124h-491z" />
    <glyph glyph-name="Eta" unicode="&#x397;" 
d="M64 0v652h147v-251h178v251h147v-652h-147v272h-178v-272h-147z" />
    <glyph glyph-name="Theta" unicode="&#x398;" 
d="M300 -12q-118 0 -190 91.5t-72 249.5q0 157 71.5 246t190.5 89t190.5 -89t71.5 -246q0 -158 -72 -249.5t-190 -91.5zM300 115q51 0 81 58t30 156q0 97 -30 152.5t-81 55.5t-81 -55.5t-30 -152.5q0 -98 30 -156t81 -58zM232 272v129h136v-129h-136z" />
    <glyph glyph-name="Iota" unicode="&#x399;" 
d="M74 0v124h152v404h-152v124h452v-124h-152v-404h152v-124h-452z" />
    <glyph glyph-name="Kappa" unicode="&#x39a;" 
d="M68 0v652h149v-267h3l193 267h163l-196 -259l214 -393h-163l-139 277l-75 -99v-178h-149z" />
    <glyph glyph-name="Lambda" unicode="&#x39b;" 
d="M15 0l196 652h177l197 -652h-156l-78 304q-11 39 -27.5 109t-24.5 100h-4q-11 -39 -28 -108l-25 -101l-77 -304h-150z" />
    <glyph glyph-name="Mu" unicode="&#x39c;" 
d="M58 0v652h154l64 -231l22 -90h4l22 90l64 231h154v-652h-124v202q0 80 19 302h-3l-50 -174l-50 -157h-72l-51 157l-47 174h-3q19 -190 19 -302v-202h-122z" />
    <glyph glyph-name="Nu" unicode="&#x39d;" 
d="M66 0v652h151l137 -324l56 -144h4q-1 15 -7.5 69t-10 93.5t-3.5 74.5v231h141v-652h-151l-137 325l-56 142h-4q2 -20 8 -71t9.5 -91t3.5 -74v-231h-141z" />
    <glyph glyph-name="Xi" unicode="&#x39e;" 
d="M66 0v124h468v-124h-468zM134 274v123h332v-123h-332zM76 528v124h448v-124h-448z" />
    <glyph glyph-name="Omicron" unicode="&#x39f;" 
d="M300 -12q-119 0 -190.5 89t-71.5 252q0 160 71.5 247.5t190.5 87.5t190.5 -87.5t71.5 -247.5q0 -163 -71.5 -252t-190.5 -89zM300 115q52 0 81.5 55t29.5 159q0 100 -29.5 154t-81.5 54t-81.5 -54t-29.5 -154q0 -104 29.5 -159t81.5 -55z" />
    <glyph glyph-name="Pi" unicode="&#x3a0;" 
d="M64 0v652h472v-652h-147v528h-178v-528h-147z" />
    <glyph glyph-name="Rho" unicode="&#x3a1;" 
d="M75 0v652h231q116 0 185.5 -49.5t69.5 -160.5q0 -109 -72 -165t-183 -56h-84v-221h-147zM222 338h75q120 0 120 104q0 50 -30 71.5t-90 21.5h-75v-197z" />
    <glyph glyph-name="Sigma" unicode="&#x3a3;" 
d="M63 0v89l202 240l-199 234v89h447v-124h-263l163 -195l-166 -209h293v-124h-477z" />
    <glyph glyph-name="Tau" unicode="&#x3a4;" 
d="M226 0v528h-195v124h538v-124h-195v-528h-148z" />
    <glyph glyph-name="Upsilon" unicode="&#x3a5;" 
d="M226 0v220l-210 432h158l66 -157l59 -149h4l61 149l66 157h154l-210 -432v-220h-148z" />
    <glyph glyph-name="Phi" unicode="&#x3a6;" 
d="M454 329q0 61 -26 101t-70 49v-304q44 10 70 51t26 103zM146 329q0 -62 26 -103t70 -51v304q-44 -9 -70 -49t-26 -101zM242 -22v85q-105 10 -165.5 79.5t-60.5 186.5q0 116 60.5 183.5t165.5 77.5v84h116v-84q105 -10 165.5 -77.5t60.5 -183.5q0 -117 -60.5 -186.5
t-165.5 -79.5v-85h-116z" />
    <glyph glyph-name="Chi" unicode="&#x3a7;" 
d="M18 0l190 335l-179 317h165l63 -123l50 -105h4q26 65 44 105l58 123h158l-179 -324l190 -328h-164l-71 133q-26 48 -52 107h-4q-13 -33 -48 -107l-68 -133h-157z" />
    <glyph glyph-name="Psi" unicode="&#x3a8;" 
d="M238 0v218q-104 8 -160.5 67t-56.5 166v201h136v-193q0 -110 81 -124v317h124v-317q81 14 81 124v193h136v-201q0 -107 -56.5 -166t-160.5 -67v-218h-124z" />
    <glyph glyph-name="uni03A9" unicode="&#x3a9;" 
d="M31 0v119h100v4q-38 39 -65.5 100t-27.5 135q0 137 71.5 221.5t190.5 84.5t190.5 -84.5t71.5 -221.5q0 -74 -27.5 -135t-65.5 -100v-4h100v-119h-227v106q37 59 53 111t16 126q0 87 -29 140.5t-82 53.5t-82 -53.5t-29 -140.5q0 -74 16 -126t53 -111v-106h-227z" />
    <glyph glyph-name="Iotadieresis" unicode="&#x3aa;" 
d="M74 0v124h152v404h-152v124h452v-124h-152v-404h152v-124h-452zM189 700q-31 0 -52 21t-21 52t21 52t52 21q32 0 53 -20.5t21 -52.5q0 -31 -21 -52t-53 -21zM411 700q-32 0 -53 21t-21 52q0 32 21 52.5t53 20.5q31 0 52 -21t21 -52t-21 -52t-52 -21z" />
    <glyph glyph-name="Upsilondieresis" unicode="&#x3ab;" 
d="M226 0v220l-210 432h158l66 -157l59 -149h4l61 149l66 157h154l-210 -432v-220h-148zM189 700q-31 0 -52 21t-21 52t21 52t52 21q32 0 53 -20.5t21 -52.5q0 -31 -21 -52t-53 -21zM411 700q-32 0 -53 21t-21 52q0 32 21 52.5t53 20.5q31 0 52 -21t21 -52t-21 -52t-52 -21z
" />
    <glyph glyph-name="alphatonos" unicode="&#x3ac;" 
d="M238 -12q-89 0 -142.5 69t-53.5 189q0 118 62 190t146 72q98 0 142 -99h3l16 87h145q-1 -5 -15.5 -68.5l-19 -84t-13.5 -67t-12.5 -74.5t-3.5 -50q0 -45 48 -45q16 0 32 6l18 -108q-34 -17 -87 -17t-84 19t-44 63h-3q-51 -82 -134 -82zM273 108q32 0 57.5 31.5t29.5 75.5
l6 86q-14 42 -37.5 64.5t-47.5 22.5q-36 0 -62 -36t-26 -105q0 -139 80 -139zM372 558l-99 15l35 257l144 -22z" />
    <glyph glyph-name="epsilontonos" unicode="&#x3ad;" 
d="M330 -12q-120 0 -190 39t-70 114q0 48 29 75.5t85 42.5v4q-45 14 -69 42.5t-24 60.5q0 71 65.5 106.5t176.5 35.5q114 0 202 -59l-54 -95q-60 42 -140 42q-106 0 -106 -50q0 -43 100 -43q34 0 70 3v-105q-44 3 -86 3q-55 0 -80 -11t-25 -37q0 -56 130 -56q80 0 144 47
l58 -94q-93 -65 -216 -65zM376 558l-99 15l35 257l144 -22z" />
    <glyph glyph-name="etatonos" unicode="&#x3ae;" 
d="M383 -177q10 312 10 466q0 53 -15 73.5t-53 20.5q-53 0 -102 -70v-313h-147v344q0 86 -11 152h130l11 -84h4q38 47 76.5 71.5t89.5 24.5q82 0 118.5 -51t36.5 -149v-485h-148zM366 558l-99 15l35 257l144 -22z" />
    <glyph glyph-name="iotatonos" unicode="&#x3af;" 
d="M393 -12q-103 0 -145 52.5t-42 153.5v187h-145v115h293l-5.5 -146.5t-4.5 -161.5q0 -45 20.5 -63t66.5 -18q37 0 77 17l32 -108q-63 -28 -147 -28zM322 558l-99 15l35 257l144 -22z" />
    <glyph glyph-name="upsilondieresistonos" unicode="&#x3b0;" 
d="M294 -12q-114 0 -169.5 59.5t-55.5 163.5q0 22 2 66.5t2 66.5q0 93 -11 152h142q10 -43 10 -122q0 -17 -3 -79t-3 -96q0 -44 24 -68t62 -24q96 0 96 158q0 92 -32 212l142 31q38 -138 38 -236q0 -134 -63 -209t-181 -75zM156 584q-25 0 -42.5 17t-17.5 43q0 27 17.5 43.5
t42.5 16.5t42.5 -16.5t17.5 -43.5q0 -26 -17.5 -43t-42.5 -17zM240 581l38 249l104 -17l-77 -243zM428 584q-25 0 -42.5 17t-17.5 43q0 27 17.5 43.5t42.5 16.5t42.5 -16.5t17.5 -43.5q0 -26 -17.5 -43t-42.5 -17z" />
    <glyph glyph-name="alpha" unicode="&#x3b1;" 
d="M238 -12q-89 0 -142.5 69t-53.5 189q0 118 62 190t146 72q98 0 142 -99h3l16 87h145q-1 -5 -15.5 -68.5l-19 -84t-13.5 -67t-12.5 -74.5t-3.5 -50q0 -45 48 -45q16 0 32 6l18 -108q-34 -17 -87 -17t-84 19t-44 63h-3q-51 -82 -134 -82zM273 108q32 0 57.5 31.5t29.5 75.5
l6 86q-14 42 -37.5 64.5t-47.5 22.5q-36 0 -62 -36t-26 -105q0 -139 80 -139z" />
    <glyph glyph-name="beta" unicode="&#x3b2;" 
d="M72 -177v651q0 107 55.5 173t163.5 66q89 0 152 -47t63 -135q0 -97 -85 -150v-4q59 -12 98 -60.5t39 -116.5q0 -102 -58.5 -157t-137.5 -55q-89 0 -151 67q6 -151 10 -232h-149zM319 108q41 0 68 26t27 75q0 41 -22.5 68t-62.5 27q-22 0 -40 -6l-18 107q94 15 94 112
q0 38 -21 59t-52 21q-73 0 -78 -140q-5 -242 -5 -288q47 -61 110 -61z" />
    <glyph glyph-name="gamma" unicode="&#x3b3;" 
d="M218 -177q7 57 7 136q0 94 -60.5 248.5t-143.5 268.5l150 32q37 -54 77 -147t67 -195h4q84 164 96 330h146q-24 -133 -66 -235t-138 -248q13 -73 13 -190h-152z" />
    <glyph glyph-name="delta" unicode="&#x3b4;" 
d="M297 -12q-103 0 -173.5 62t-70.5 166q0 138 161 207q-113 77 -113 168q0 52 48.5 87t141.5 35q106 0 237 -42l-33 -109q-128 42 -204 42q-50 0 -50 -27q0 -7 3.5 -14.5t12 -16t16.5 -15.5t24 -17.5l27 -17.5l33 -20.5t35 -22.5q82 -52 118.5 -103t36.5 -127
q0 -106 -67 -170.5t-183 -64.5zM301 107q48 0 76 29t28 88q0 41 -23.5 71.5t-67.5 61.5q-122 -29 -122 -139q0 -52 31.5 -81.5t77.5 -29.5z" />
    <glyph glyph-name="epsilon" unicode="&#x3b5;" 
d="M330 -12q-120 0 -190 39t-70 114q0 48 29 75.5t85 42.5v4q-45 14 -69 42.5t-24 60.5q0 71 65.5 106.5t176.5 35.5q114 0 202 -59l-54 -95q-60 42 -140 42q-106 0 -106 -50q0 -43 100 -43q34 0 70 3v-105q-44 3 -86 3q-55 0 -80 -11t-25 -37q0 -56 130 -56q80 0 144 47
l58 -94q-93 -65 -216 -65z" />
    <glyph glyph-name="zeta" unicode="&#x3b6;" 
d="M474 -187l-115 38l25.5 35.5t13.5 24.5t7 27q0 19 -21.5 28.5t-94.5 25.5q-43 9 -75.5 23.5t-63.5 40.5t-47.5 69.5t-16.5 102.5q0 94 73 188t205 178q-15 -1 -66 -2t-100 -2.5t-81 -4.5v116h410v-116h-6q-122 -59 -203.5 -162.5t-81.5 -186.5q0 -60 29.5 -87t109.5 -42
q88 -18 123.5 -46t35.5 -84q0 -71 -60 -164z" />
    <glyph glyph-name="eta" unicode="&#x3b7;" 
d="M383 -177q10 312 10 466q0 53 -15 73.5t-53 20.5q-53 0 -102 -70v-313h-147v344q0 86 -11 152h130l11 -84h4q38 47 76.5 71.5t89.5 24.5q82 0 118.5 -51t36.5 -149v-485h-148z" />
    <glyph glyph-name="theta" unicode="&#x3b8;" 
d="M300 -12q-113 0 -179 93t-66 271t65.5 269.5t179.5 91.5t179.5 -91.5t65.5 -269.5t-66 -271t-179 -93zM300 594q-45 0 -71 -42t-31 -151h204q-5 109 -31 151t-71 42zM300 107q44 0 70.5 43.5t31.5 153.5h-204q5 -110 31.5 -153.5t70.5 -43.5z" />
    <glyph glyph-name="iota" unicode="&#x3b9;" 
d="M393 -12q-103 0 -145 52.5t-42 153.5v187h-145v115h293l-5.5 -146.5t-4.5 -161.5q0 -45 20.5 -63t66.5 -18q37 0 77 17l32 -108q-63 -28 -147 -28z" />
    <glyph glyph-name="kappa" unicode="&#x3ba;" 
d="M420 -11q-75 96 -134 212q-3 -4 -10.5 -11.5t-10.5 -11.5q-42 -45 -42 -149v-29h-138v344q0 90 -12 152h146q9 -41 9 -122v-93h4q132 205 293 227l12 -137q-79 -16 -154 -79q38 -72 94.5 -153.5t108.5 -138.5z" />
    <glyph glyph-name="lambda" unicode="&#x3bb;" 
d="M193 -11l-159 11l216 498l-3 15q-20 76 -93 76q-36 0 -71 -16l-32 119q53 21 120 21q86 0 138.5 -49t85.5 -159l181 -505h-159l-99 334h-4z" />
    <glyph glyph-name="uni03BC" unicode="&#x3bc;" 
d="M64 -196v692h147v-287q0 -52 16.5 -74t50.5 -22q58 0 98 75v308h148q-10 -232 -10 -348q0 -41 35 -41q10 0 18 2l18 -109q-27 -12 -74 -12q-94 0 -119 93h-3q-42 -88 -118 -88q-49 0 -69 25q2 -125 10 -214h-148z" />
    <glyph glyph-name="nu" unicode="&#x3bd;" 
d="M222 0q-36 234 -197 476l150 32q43 -70 84 -174.5t56 -183.5h4q81 177 94 346h146q-22 -130 -67.5 -242.5t-130.5 -253.5h-139z" />
    <glyph glyph-name="xi" unicode="&#x3be;" 
d="M474 -187l-115 38q19 24 26.5 34.5t14 25t6.5 26.5q0 20 -22 30t-94 25q-98 21 -151.5 63.5t-53.5 128.5q0 62 42 111t104 70v4q-48 19 -74.5 53.5t-26.5 79.5q0 59 47 92q-69 -4 -118 -9v115h468v-115h-141q-50 0 -79.5 -24t-29.5 -64q0 -36 29 -63t76 -27q57 0 91 9
v-116q-37 9 -100 9q-59 0 -98.5 -28.5t-39.5 -72.5q0 -48 31.5 -66t117.5 -35q90 -18 120.5 -45t30.5 -85q0 -75 -61 -164z" />
    <glyph glyph-name="omicron" unicode="&#x3bf;" 
d="M300 -12q-103 0 -176 70.5t-73 189.5t73 189.5t176 70.5t176 -70.5t73 -189.5t-73 -189.5t-176 -70.5zM300 107q48 0 73 37.5t25 103.5t-25 103.5t-73 37.5t-73 -37.5t-25 -103.5t25 -103.5t73 -37.5z" />
    <glyph glyph-name="pi" unicode="&#x3c0;" 
d="M511 -12q-79 0 -113.5 44t-34.5 126q0 8 2 91t2 131h-122q0 -158 -14 -389l-147 9q24 191 24 380h-98v110l75 6h505v-116h-82q-7 -101 -7 -228q0 -45 45 -45q3 0 23 4l18 -108q-32 -15 -76 -15z" />
    <glyph glyph-name="rho" unicode="&#x3c1;" 
d="M72 -177v414q0 135 67 203t176 68q112 0 175 -66.5t63 -185.5q0 -122 -63 -195t-149 -73q-85 0 -130 55q5 -134 10 -220h-149zM307 108q42 0 68.5 36.5t26.5 109.5q0 134 -92 134q-43 0 -71 -37.5t-28 -99.5v-103q36 -40 96 -40z" />
    <glyph glyph-name="uni03C2" unicode="&#x3c2;" 
d="M460 -186l-115 38q20 26 26.5 36t14.5 26.5t8 28.5q0 24 -19 37.5t-72 26.5q-47 11 -83.5 27.5t-72 44.5t-55 73.5t-19.5 104.5q0 114 84 182.5t201 68.5q115 0 180 -67l-67 -91q-46 39 -103 39q-64 0 -104.5 -36.5t-40.5 -95.5q0 -58 34 -87t107 -45q92 -21 125.5 -51.5
t33.5 -92.5q0 -29 -16 -75.5t-47 -91.5z" />
    <glyph glyph-name="sigma" unicode="&#x3c3;" 
d="M284 -12q-102 0 -169.5 67.5t-67.5 186.5q0 122 71.5 188t172.5 66h285v-121q-90 10 -142 11v-4q79 -43 79 -163q0 -106 -63.5 -168.5t-165.5 -62.5zM286 107q41 0 64 33.5t23 93.5q0 61 -23 102t-64 41q-88 0 -88 -135q0 -64 23.5 -99.5t64.5 -35.5z" />
    <glyph glyph-name="tau" unicode="&#x3c4;" 
d="M385 -12q-85 0 -122 46.5t-37 134.5v212h-176v109l74 6h426v-115h-180q-5 -135 -5 -218q0 -56 58 -56q30 0 66 13l19 -110q-59 -22 -123 -22z" />
    <glyph glyph-name="upsilon" unicode="&#x3c5;" 
d="M294 -12q-114 0 -169.5 59.5t-55.5 163.5q0 22 2 66.5t2 66.5q0 93 -11 152h142q10 -43 10 -122q0 -17 -3 -79t-3 -96q0 -44 24 -68t62 -24q96 0 96 158q0 92 -32 212l142 31q38 -138 38 -236q0 -134 -63 -209t-181 -75z" />
    <glyph glyph-name="phi" unicode="&#x3c6;" 
d="M154 248q0 -66 22.5 -103.5t61.5 -41.5v290q-39 -4 -61.5 -41.5t-22.5 -103.5zM446 248q0 66 -22.5 103.5t-61.5 41.5v-290q39 4 61.5 41.5t22.5 103.5zM238 -177v170q-90 6 -151.5 74t-61.5 181t61.5 181t151.5 74v125h124v-125q90 -6 151.5 -74t61.5 -181t-61.5 -181
t-151.5 -74v-170h-124z" />
    <glyph glyph-name="chi" unicode="&#x3c7;" 
d="M193 -189l-151 12l192 342l-193 311l145 32l119 -214h4l91 202h153l-174 -328l201 -325l-145 -32l-126 237h-4z" />
    <glyph glyph-name="psi" unicode="&#x3c8;" 
d="M239 -177v165q-110 4 -159.5 67.5t-49.5 165.5v123q0 85 -11 152h135q9 -44 9 -122q0 -23 -1 -84t-1 -81q0 -106 78 -106v525h123v-525q42 3 62.5 39t20.5 115q0 112 -33 220l131 31q38 -114 38 -244q0 -131 -56 -202t-163 -74v-165h-123z" />
    <glyph glyph-name="omega" unicode="&#x3c9;" 
d="M196 -12q-81 0 -127.5 69t-46.5 196q0 60 21.5 129.5t56.5 125.5l131 -52q-75 -125 -75 -232q0 -117 47 -117q45 0 45 93q0 32 -12 131h124q-12 -99 -12 -131q0 -51 10 -72t31 -21t34 36.5t13 102.5q0 61 -13.5 107.5t-49.5 105.5l131 49q74 -119 74 -251
q0 -128 -44 -198.5t-125 -70.5q-79 0 -109 77h-4q-30 -77 -100 -77z" />
    <glyph glyph-name="iotadieresis" unicode="&#x3ca;" 
d="M393 -12q-103 0 -145 52.5t-42 153.5v187h-145v115h293l-5.5 -146.5t-4.5 -161.5q0 -45 20.5 -63t66.5 -18q37 0 77 17l32 -108q-63 -28 -147 -28zM167 571q-35 0 -57.5 23t-22.5 57q0 35 22.5 58t57.5 23t57.5 -23t22.5 -58q0 -34 -22.5 -57t-57.5 -23zM389 571
q-35 0 -57.5 23t-22.5 57q0 35 22.5 58t57.5 23t57.5 -23t22.5 -58q0 -34 -22.5 -57t-57.5 -23z" />
    <glyph glyph-name="upsilondieresis" unicode="&#x3cb;" 
d="M294 -12q-114 0 -169.5 59.5t-55.5 163.5q0 22 2 66.5t2 66.5q0 93 -11 152h142q10 -43 10 -122q0 -17 -3 -79t-3 -96q0 -44 24 -68t62 -24q96 0 96 158q0 92 -32 212l142 31q38 -138 38 -236q0 -134 -63 -209t-181 -75zM181 571q-35 0 -57.5 23t-22.5 57q0 35 22.5 58
t57.5 23t57.5 -23t22.5 -58q0 -34 -22.5 -57t-57.5 -23zM403 571q-35 0 -57.5 23t-22.5 57q0 35 22.5 58t57.5 23t57.5 -23t22.5 -58q0 -34 -22.5 -57t-57.5 -23z" />
    <glyph glyph-name="omicrontonos" unicode="&#x3cc;" 
d="M300 -12q-103 0 -176 70.5t-73 189.5t73 189.5t176 70.5t176 -70.5t73 -189.5t-73 -189.5t-176 -70.5zM300 107q48 0 73 37.5t25 103.5t-25 103.5t-73 37.5t-73 -37.5t-25 -103.5t25 -103.5t73 -37.5zM344 558l-99 15l35 257l144 -22z" />
    <glyph glyph-name="upsilontonos" unicode="&#x3cd;" 
d="M294 -12q-114 0 -169.5 59.5t-55.5 163.5q0 22 2 66.5t2 66.5q0 93 -11 152h142q10 -43 10 -122q0 -17 -3 -79t-3 -96q0 -44 24 -68t62 -24q96 0 96 158q0 92 -32 212l142 31q38 -138 38 -236q0 -134 -63 -209t-181 -75zM336 558l-99 15l35 257l144 -22z" />
    <glyph glyph-name="omegatonos" unicode="&#x3ce;" 
d="M196 -12q-81 0 -127.5 69t-46.5 196q0 60 21.5 129.5t56.5 125.5l131 -52q-75 -125 -75 -232q0 -117 47 -117q45 0 45 93q0 32 -12 131h124q-12 -99 -12 -131q0 -51 10 -72t31 -21t34 36.5t13 102.5q0 61 -13.5 107.5t-49.5 105.5l131 49q74 -119 74 -251
q0 -128 -44 -198.5t-125 -70.5q-79 0 -109 77h-4q-30 -77 -100 -77zM344 558l-99 15l35 257l144 -22z" />
    <glyph glyph-name="uni03D0" unicode="&#x3d0;" 
d="M327 -12q-106 0 -180.5 62t-74.5 188v236q0 107 56.5 172t166.5 65q87 0 149 -46t62 -134q0 -50 -23.5 -89.5t-64.5 -60.5v-4q59 -8 99.5 -59t40.5 -120q0 -102 -65.5 -156t-165.5 -54zM214 457q-1 -26 -3 -74q91 19 122.5 49.5t31.5 84.5q0 38 -21 59t-50 21
q-40 0 -58.5 -35.5t-21.5 -104.5zM322 115q40 0 66 24.5t26 68.5q0 42 -22.5 69t-63.5 27q-29 0 -119 -27v-23q0 -72 33.5 -105.5t79.5 -33.5z" />
    <glyph glyph-name="uni03D1" unicode="&#x3d1;" 
d="M191 513q0 -25 8.5 -45t31.5 -39t64 -23t106 2q-6 99 -38.5 143.5t-82.5 42.5q-41 -1 -65 -24t-24 -57zM299 -12q-110 0 -164 53t-54 137q0 75 -9 105h139q9 -18 9 -84q0 -92 85 -92q46 0 70 45.5t28 166.5q-84 -12 -144.5 -0.5t-99.5 31.5t-61.5 52t-31.5 60.5t-9 56.5
q0 83 62 138.5t154 55.5q130 0 201 -96t71 -262q0 -367 -246 -367z" />
    <glyph glyph-name="uni03D5" unicode="&#x3d5;" 
d="M238 -177v170q-92 6 -153.5 76t-61.5 189q0 64 28.5 134.5t75.5 123.5l98 -85q-74 -95 -74 -187q0 -126 87 -142v156q0 129 46 189.5t125 60.5q80 0 124 -64t44 -180q0 -119 -62 -191.5t-150 -79.5q4 -114 7 -170h-134zM361 280q0 -58 2 -178q86 15 86 152q0 134 -45 134
q-43 0 -43 -108z" />
    <glyph glyph-name="uni03D7" unicode="&#x3d7;" 
d="M456 -188l-173 11q84 91 136 168q-74 92 -133 210q-3 -4 -10.5 -11.5t-10.5 -11.5q-42 -45 -42 -149v-29h-138v344q0 90 -12 152h146q9 -41 9 -122v-93h4q132 205 293 227l12 -137q-79 -16 -154 -79q38 -72 94.5 -153.5t108.5 -138.5q-73 -117 -130 -188z" />
    <glyph glyph-name="uni03D9" unicode="&#x3d9;" 
d="M300 100q51 0 76.5 39t25.5 109q0 66 -25.5 103.5t-76.5 37.5t-76.5 -37.5t-25.5 -103.5q0 -70 25.5 -109t76.5 -39zM232 -177v174q-81 21 -132.5 87t-51.5 164q0 119 74 189.5t178 70.5t178 -70.5t74 -189.5q0 -97 -50.5 -162.5t-129.5 -87.5l9 -175h-149z" />
    <glyph glyph-name="uni03DB" unicode="&#x3db;" 
d="M460 -186l-114 38q48 61 48 87q0 25 -17 39t-74 29q-229 57 -229 237q0 122 78 187t201 65h178v-121q-53 2 -166 2q-140 0 -140 -133q0 -46 32.5 -74t106.5 -45q92 -21 125.5 -51.5t33.5 -92.5q0 -29 -16 -75.5t-47 -91.5z" />
    <glyph glyph-name="uni03DD" unicode="&#x3dd;" 
d="M116 -177v673h411v-115h-275l2 -159h249v-97h-247q0 -124 8 -302h-148z" />
    <glyph glyph-name="uni03E1" unicode="&#x3e1;" 
d="M534 -181l-143 17q18 99 18 185q0 33 -3 65q-98 -45 -213 -109l-60 123l252 112q-11 44 -32 95q-120 -54 -252 -126l-60 123l251 111q-69 101 -183 177l95 108q171 -118 260.5 -293.5t89.5 -387.5q0 -95 -20 -200z" />
    <glyph glyph-name="uni0400" unicode="&#x400;" 
d="M92 0v652h432v-124h-284v-131h241v-123h-241v-150h294v-124h-442zM360 680l-184 119l78 95l171 -140z" />
    <glyph glyph-name="uni0401" unicode="&#x401;" 
d="M92 0v652h432v-124h-284v-131h241v-123h-241v-150h294v-124h-442zM212 700q-31 0 -52 21t-21 52t20.5 52t52.5 21t53 -20.5t21 -52.5q0 -31 -21 -52t-53 -21zM434 700q-32 0 -53 21t-21 52q0 32 21 52.5t53 20.5t52.5 -21t20.5 -52t-21 -52t-52 -21z" />
    <glyph glyph-name="uni0402" unicode="&#x402;" 
d="M415 -12q-42 0 -69 10l23 112q13 -5 24 -5q39 0 39 85q0 50 -21 75t-58 25q-23 0 -48 -7v-283h-147v528h-136v124h446v-124h-163v-128q46 8 71 8q84 0 139 -53.5t55 -162.5q0 -204 -155 -204z" />
    <glyph glyph-name="uni0403" unicode="&#x403;" 
d="M108 0v652h429v-124h-281v-528h-148zM263 680l-65 74l171 140l78 -95z" />
    <glyph glyph-name="uni0404" unicode="&#x404;" 
d="M359 -12q-135 0 -219.5 84t-84.5 250t87 254t221 88q113 0 196 -85l-78 -94q-55 52 -115 52q-62 0 -103.5 -35t-55.5 -105h224v-123h-227q18 -159 160 -159q70 0 127 61l78 -92q-82 -96 -210 -96z" />
    <glyph glyph-name="uni0405" unicode="&#x405;" 
d="M298 -12q-142 0 -248 94l85 101q83 -68 173 -68q46 0 69 15.5t23 41.5q0 29 -19.5 43.5t-66.5 34.5l-15 6l-84 36q-61 23 -100 67.5t-39 110.5q0 82 67.5 138t171.5 56q126 0 217 -86l-75 -93q-71 52 -150 52q-37 0 -59.5 -15.5t-22.5 -43.5q0 -14 6.5 -24.5t25 -20.5
t31 -15l44.5 -17l79 -34q140 -52 140 -177q0 -85 -68 -143.5t-185 -58.5z" />
    <glyph glyph-name="uni0406" unicode="&#x406;" 
d="M74 0v124h152v404h-152v124h452v-124h-152v-404h152v-124h-452z" />
    <glyph glyph-name="uni0407" unicode="&#x407;" 
d="M74 0v124h152v404h-152v124h452v-124h-152v-404h152v-124h-452zM189 700q-31 0 -52 21t-21 52t21 52t52 21q32 0 53 -20.5t21 -52.5q0 -31 -21 -52t-53 -21zM411 700q-32 0 -53 21t-21 52q0 32 21 52.5t53 20.5q31 0 52 -21t21 -52t-21 -52t-52 -21z" />
    <glyph glyph-name="uni0408" unicode="&#x408;" 
d="M273 -12q-137 0 -214 108l85 91q57 -72 124 -72q52 0 76.5 27t24.5 92v295h-255v123h402v-430q0 -105 -58 -169.5t-185 -64.5z" />
    <glyph glyph-name="uni0409" unicode="&#x409;" 
d="M43 -12q-31 0 -58 8l26 134q12 -4 18 -4q9 0 14 7.5t11 35t14 85.5q20 155 26 398h287v-238h11q87 0 138 -49t51 -151q0 -112 -54.5 -163t-145.5 -51h-124v528h-50q-7 -168 -21 -304q-13 -133 -44.5 -184.5t-98.5 -51.5zM381 117h8q75 0 75 95q0 85 -76 85h-7v-180z" />
    <glyph glyph-name="uni040A" unicode="&#x40a;" 
d="M30 0v652h130v-252h86v252h131v-238h15q87 0 138 -49t51 -151q0 -112 -52 -163t-139 -51h-144v272h-86v-272h-130zM377 117h12q34 0 50.5 21t16.5 74q0 46 -16.5 65.5t-51.5 19.5h-11v-180z" />
    <glyph glyph-name="uni040B" unicode="&#x40b;" 
d="M158 0v528h-137v124h446v-124h-162v-128q50 8 72 8q191 0 191 -190v-218h-144v218q0 72 -72 72q-22 0 -47 -7v-283h-147z" />
    <glyph glyph-name="uni040C" unicode="&#x40c;" 
d="M69 0v652h147v-255h58l76 149q32 66 73 92t99 26q35 0 53 -9l-24 -133q-11 4 -28 4q-23 0 -39.5 -12.5t-33.5 -46.5l-59 -119l203 -348h-158l-160 274h-60v-274h-147zM289 680l-65 74l171 140l78 -95z" />
    <glyph glyph-name="uni040D" unicode="&#x40d;" 
d="M64 0v652h133v-231q0 -50 -19 -237h3l56 144l148 324h151v-652h-133v231q0 41 19 236h-3l-56 -142l-148 -325h-151zM341 680l-184 119l78 95l171 -140z" />
    <glyph glyph-name="uni040E" unicode="&#x40e;" 
d="M179 -12q-51 0 -82 13l26 128q24 -8 49 -8q46 0 63 30l9 19l-221 482h156l76 -190l54 -156h4l52 156l69 190h148l-201 -504q-65 -160 -202 -160zM308 697q-171 0 -178 132l124 6q3 -64 54 -64t54 64l124 -6q-7 -132 -178 -132z" />
    <glyph glyph-name="uni040F" unicode="&#x40f;" 
d="M63 0v652h147v-528h180v528h147v-652h-164l-11 -188h-122v188h-177z" />
    <glyph glyph-name="uni0410" unicode="&#x410;" 
d="M244 330l-15 -60h137l-15 60q-38 144 -52 210h-4q-31 -132 -51 -210zM9 0l203 652h176l203 -652h-156l-39 155h-197l-40 -155h-150z" />
    <glyph glyph-name="uni0411" unicode="&#x411;" 
d="M74 0v652h446v-124h-299v-131h91q54 0 97.5 -10t78.5 -31t54.5 -59t19.5 -90q0 -106 -67.5 -156.5t-178.5 -50.5h-242zM221 115h80q60 0 88.5 21.5t28.5 67.5q0 45 -29 64t-89 19h-79v-172z" />
    <glyph glyph-name="uni0412" unicode="&#x412;" 
d="M74 0v652h219q239 0 239 -162q0 -47 -28.5 -87t-83.5 -54v-4q142 -26 142 -153q0 -95 -69 -143.5t-181 -48.5h-238zM221 390h65q102 0 102 80q0 36 -24.5 51.5t-76.5 15.5h-66v-147zM221 115h79q118 0 118 88q0 42 -28.5 61.5t-89.5 19.5h-79v-169z" />
    <glyph glyph-name="uni0413" unicode="&#x413;" 
d="M108 0v652h429v-124h-281v-528h-148z" />
    <glyph glyph-name="uni0414" unicode="&#x414;" 
d="M24 -188l-12 220v92h29q39 13 76 225q33 198 47 303h345v-528h79v-92l-12 -220h-132v188h-288v-188h-132zM248 330q-23 -137 -60 -206h174v404h-85q-4 -26 -12.5 -87.5t-16.5 -110.5z" />
    <glyph glyph-name="uni0415" unicode="&#x415;" 
d="M92 0v652h432v-124h-284v-131h241v-123h-241v-150h294v-124h-442z" />
    <glyph glyph-name="uni0416" unicode="&#x416;" 
d="M1 0l113 347l-26 128q-12 49 -42 49q-8 0 -22 -4l-22 137q28 7 47 7q49 0 81 -25t48 -88l38 -154h24v255h120v-255h24l38 154q16 63 47.5 88t80.5 25q20 0 48 -7l-22 -137q-14 4 -22 4q-30 0 -42 -49l-26 -128l113 -347h-136l-66 274h-37v-274h-120v274h-37l-66 -274
h-136z" />
    <glyph glyph-name="uni0417" unicode="&#x417;" 
d="M293 -12q-147 0 -247 93l78 102q74 -68 167 -68q55 0 88 23.5t33 64.5t-30.5 60t-94.5 19h-87v109h67q114 0 114 74q0 72 -99 72q-69 0 -140 -54l-75 98q94 83 220 83q114 0 176 -46.5t62 -128.5q0 -48 -21.5 -85.5t-61.5 -55.5v-4q50 -14 82 -54.5t32 -97.5
q0 -97 -73.5 -150.5t-189.5 -53.5z" />
    <glyph glyph-name="uni0418" unicode="&#x418;" 
d="M64 0v652h133v-231q0 -50 -19 -237h3l56 144l148 324h151v-652h-133v231q0 41 19 236h-3l-56 -142l-148 -325h-151z" />
    <glyph glyph-name="uni0419" unicode="&#x419;" 
d="M64 0v652h133v-231q0 -50 -19 -237h3l56 144l148 324h151v-652h-133v231q0 41 19 236h-3l-56 -142l-148 -325h-151zM304 697q-171 0 -178 132l124 6q3 -64 54 -64t54 64l124 -6q-7 -132 -178 -132z" />
    <glyph glyph-name="uni041A" unicode="&#x41a;" 
d="M69 0v652h147v-255h58l76 149q32 66 73 92t99 26q35 0 53 -9l-24 -133q-11 4 -28 4q-23 0 -39.5 -12.5t-33.5 -46.5l-59 -119l203 -348h-158l-160 274h-60v-274h-147z" />
    <glyph glyph-name="uni041B" unicode="&#x41b;" 
d="M71 -12q-50 0 -76 10l26 132q18 -4 28 -4q23 0 37.5 28t35.5 128q17 77 40 212.5t27 157.5h347v-652h-147v528h-87q-28 -183 -44 -262q-32 -162 -72 -220t-115 -58z" />
    <glyph glyph-name="uni041C" unicode="&#x41c;" 
d="M58 0v652h154l64 -231l22 -90h4l22 90l64 231h154v-652h-124v202q0 80 19 302h-3l-50 -174l-50 -157h-72l-51 157l-47 174h-3q19 -190 19 -302v-202h-122z" />
    <glyph glyph-name="uni041D" unicode="&#x41d;" 
d="M64 0v652h147v-251h178v251h147v-652h-147v272h-178v-272h-147z" />
    <glyph glyph-name="uni041E" unicode="&#x41e;" 
d="M300 -12q-119 0 -190.5 89t-71.5 252q0 160 71.5 247.5t190.5 87.5t190.5 -87.5t71.5 -247.5q0 -163 -71.5 -252t-190.5 -89zM300 115q52 0 81.5 55t29.5 159q0 100 -29.5 154t-81.5 54t-81.5 -54t-29.5 -154q0 -104 29.5 -159t81.5 -55z" />
    <glyph glyph-name="uni041F" unicode="&#x41f;" 
d="M64 0v652h472v-652h-147v528h-178v-528h-147z" />
    <glyph glyph-name="uni0420" unicode="&#x420;" 
d="M75 0v652h231q116 0 185.5 -49.5t69.5 -160.5q0 -109 -72 -165t-183 -56h-84v-221h-147zM222 338h75q120 0 120 104q0 50 -30 71.5t-90 21.5h-75v-197z" />
    <glyph glyph-name="uni0421" unicode="&#x421;" 
d="M356 -12q-128 0 -215 88.5t-87 245.5q0 158 88 250t223 92q110 0 195 -83l-81 -91q-52 47 -114 47q-70 0 -115 -57t-45 -153q0 -99 45.5 -155.5t120.5 -56.5q65 0 118 58l81 -89q-81 -96 -214 -96z" />
    <glyph glyph-name="uni0422" unicode="&#x422;" 
d="M226 0v528h-195v124h538v-124h-195v-528h-148z" />
    <glyph glyph-name="uni0423" unicode="&#x423;" 
d="M179 -12q-51 0 -82 13l26 128q24 -8 49 -8q46 0 63 30l9 19l-221 482h156l76 -190l54 -156h4l52 156l69 190h148l-201 -504q-65 -160 -202 -160z" />
    <glyph glyph-name="uni0424" unicode="&#x424;" 
d="M146 329q0 -123 96 -141v279q-96 -18 -96 -138zM454 329q0 120 -96 138v-279q96 18 96 141zM242 -12v90q-109 11 -167.5 74.5t-58.5 176.5q0 223 226 247v88h116v-88q226 -24 226 -247q0 -113 -58.5 -176.5t-167.5 -74.5v-90h-116z" />
    <glyph glyph-name="uni0425" unicode="&#x425;" 
d="M18 0l190 335l-179 317h165l63 -123l50 -105h4q26 65 44 105l58 123h158l-179 -324l190 -328h-164l-71 133q-26 48 -52 107h-4q-13 -33 -48 -107l-68 -133h-157z" />
    <glyph glyph-name="uni0426" unicode="&#x426;" 
d="M64 0v652h147v-528h173v528h147v-528h75v-92l-13 -220h-122v188h-407z" />
    <glyph glyph-name="uni0427" unicode="&#x427;" 
d="M392 0v264q-41 -7 -100 -7q-121 0 -184 56t-63 183v156h144v-156q0 -67 28 -94.5t91 -27.5q47 0 84 7v271h148v-652h-148z" />
    <glyph glyph-name="uni0428" unicode="&#x428;" 
d="M30 0v652h131v-528h79v528h120v-528h79v528h131v-652h-540z" />
    <glyph glyph-name="uni0429" unicode="&#x429;" 
d="M29 0v652h126v-528h75v528h116v-528h75v528h126v-528h59v-92l-12 -220h-115v188h-450z" />
    <glyph glyph-name="uni042A" unicode="&#x42a;" 
d="M166 0v528h-140v124h287v-238h27q99 0 164 -50.5t65 -150.5q0 -111 -61 -162t-163 -51h-179zM313 117h23q94 0 94 94q0 86 -99 86h-18v-180z" />
    <glyph glyph-name="uni042B" unicode="&#x42b;" 
d="M34 0v652h131v-238h16q93 0 147.5 -49t54.5 -152q0 -111 -56 -162t-149 -51h-144zM165 117h13q81 0 81 94q0 86 -82 86h-12v-180zM435 0v652h131v-652h-131z" />
    <glyph glyph-name="uni042C" unicode="&#x42c;" 
d="M74 0v652h147v-238h86q117 0 186 -49t69 -152q0 -111 -70 -162t-188 -51h-230zM221 117h74q123 0 123 94q0 86 -123 86h-74v-180z" />
    <glyph glyph-name="uni042D" unicode="&#x42d;" 
d="M249 -12q-128 0 -218 96l78 92q63 -61 138 -61q131 0 149 159h-227v123h225q-23 140 -151 140q-64 0 -124 -52l-78 94q91 85 210 85q131 0 212.5 -87.5t81.5 -254.5q0 -165 -83 -249.5t-213 -84.5z" />
    <glyph glyph-name="uni042E" unicode="&#x42e;" 
d="M386 -12q-75 0 -120 71t-53 213h-49v-272h-133v652h133v-252h50q19 264 172 264q194 0 194 -335q0 -341 -194 -341zM386 115q27 0 39.5 46.5t12.5 167.5q0 120 -12.5 164t-39.5 44q-18 0 -28.5 -16.5t-17 -63t-6.5 -128.5q0 -120 13 -167t39 -47z" />
    <glyph glyph-name="uni042F" unicode="&#x42f;" 
d="M384 0v235h-73l-139 -235h-169l168 257q-126 49 -126 192q0 203 251 203h235v-652h-147zM308 352h76v183h-76q-60 0 -89.5 -20t-29.5 -66q0 -97 119 -97z" />
    <glyph glyph-name="uni0430" unicode="&#x430;" 
d="M224 -12q-73 0 -118 43t-45 107q0 84 76.5 127.5t250.5 53.5q-8 72 -106 72q-59 0 -151 -46l-52 96q117 67 232 67q107 0 165.5 -56t58.5 -168v-284h-120l-11 56h-4q-89 -68 -176 -68zM271 102q56 0 117 47v82q-103 -6 -144.5 -26.5t-41.5 -55.5q0 -47 69 -47z" />
    <glyph glyph-name="uni0431" unicode="&#x431;" 
d="M307 -12q-118 0 -182.5 85t-64.5 237q0 87 15.5 152t41.5 106t67.5 69t85.5 42t105 22q77 10 120 29l28 -128q-34 -26 -118 -37l-43.5 -6t-36.5 -6t-31.5 -8l-24.5 -10t-21.5 -13.5l-15.5 -18t-13 -24t-8 -30.5t-6 -39q53 61 144 61q83 0 138 -60t55 -169
q0 -114 -65.5 -184t-169.5 -70zM306 107q42 0 63.5 35.5t21.5 99.5q0 121 -86 121q-63 0 -105 -62v-26q0 -83 28 -125.5t78 -42.5z" />
    <glyph glyph-name="uni0432" unicode="&#x432;" 
d="M84 0v496h234q210 0 210 -131q0 -34 -21 -62.5t-63 -39.5v-4q103 -27 103 -116q0 -72 -60 -107.5t-156 -35.5h-247zM228 303h81q78 0 78 47t-77 47h-82v-94zM228 99h94q82 0 82 54q0 51 -83 51h-93v-105z" />
    <glyph glyph-name="uni0433" unicode="&#x433;" 
d="M116 0v496h411v-115h-264v-381h-147z" />
    <glyph glyph-name="uni0434" unicode="&#x434;" 
d="M233 266q-10 -94 -41 -151h164v266h-110zM31 -172l-13 191v96h31q19 11 32.5 49t25.5 135l23 197h373v-381h79v-96l-14 -191h-126v172h-284v-172h-127z" />
    <glyph glyph-name="uni0435" unicode="&#x435;" 
d="M330 -12q-120 0 -197.5 69.5t-77.5 190.5q0 117 76.5 188.5t181.5 71.5q111 0 172.5 -66.5t61.5 -171.5q0 -24 -7 -66h-338q20 -104 148 -104q61 0 128 35l49 -89q-92 -58 -197 -58zM318 396q-92 0 -114 -93h212q-11 93 -98 93z" />
    <glyph glyph-name="uni0436" unicode="&#x436;" 
d="M2 0l113 267l-21 60q-14 42 -47 42q-8 0 -20 -4l-18 137q13 6 36 6q49 0 81 -22t52 -78l36 -105h30v193h112v-193h30l36 105q20 56 52 78t81 22q23 0 36 -6l-18 -137q-12 4 -20 4q-33 0 -47 -42l-21 -60l113 -267h-135l-65 204h-42v-204h-112v204h-42l-65 -204h-135z" />
    <glyph glyph-name="uni0437" unicode="&#x437;" 
d="M279 -12q-129 0 -231 72l57 93q77 -53 159 -53q132 0 132 56q0 48 -91 48h-120v99h111q83 0 83 47q0 46 -112 46q-85 0 -156 -47l-54 95q97 64 220 64q113 0 178 -35t65 -107q0 -78 -88 -103v-4q56 -13 82 -41t26 -77q0 -73 -72.5 -113t-188.5 -40z" />
    <glyph glyph-name="uni0438" unicode="&#x438;" 
d="M73 0v496h142v-138q0 -30 -12 -176h3q7 14 28.5 51t29.5 53l129 210h134v-496h-142v138q0 44 13 176h-4l-57 -104l-130 -210h-134z" />
    <glyph glyph-name="uni0439" unicode="&#x439;" 
d="M73 0v496h142v-138q0 -30 -12 -176h3q7 14 28.5 51t29.5 53l129 210h134v-496h-142v138q0 44 13 176h-4l-57 -104l-130 -210h-134zM318 572q-167 0 -172 158l114 6q2 -44 14.5 -65t43.5 -21t43.5 21t14.5 65l114 -6q-5 -158 -172 -158z" />
    <glyph glyph-name="uni043A" unicode="&#x43a;" 
d="M77 0v496h147v-183h79l45 91q29 60 65 82t92 22q25 0 48 -9l-23 -135q-13 5 -27 5q-20 0 -34 -10t-29 -40l-29 -59l171 -260h-161l-118 198h-79v-198h-147z" />
    <glyph glyph-name="uni043B" unicode="&#x43b;" 
d="M73 -12q-31 0 -59 11l24 132q16 -4 25 -4q44 0 54 74q8 57 34 295h374v-496h-147v381h-111q-13 -119 -27 -221q-26 -172 -167 -172z" />
    <glyph glyph-name="uni043C" unicode="&#x43c;" 
d="M37 0v496h169l59 -170q6 -22 18 -58.5l17 -52.5h4q4 13 17 50.5t19 60.5l55 170h168v-496h-131v127q0 65 16 214h-4q-8 -24 -25.5 -72.5t-23.5 -66.5l-54 -159h-81l-57 159l-48 139h-4q16 -179 16 -214v-127h-130z" />
    <glyph glyph-name="uni043D" unicode="&#x43d;" 
d="M72 0v496h147v-179h162v179h147v-496h-147v189h-162v-189h-147z" />
    <glyph glyph-name="uni043E" unicode="&#x43e;" 
d="M300 -12q-104 0 -178.5 70.5t-74.5 189.5t74.5 189.5t178.5 70.5t178.5 -70.5t74.5 -189.5t-74.5 -189.5t-178.5 -70.5zM300 107q50 0 76 37.5t26 103.5t-26 103.5t-76 37.5t-76 -37.5t-26 -103.5t26 -103.5t76 -37.5z" />
    <glyph glyph-name="uni043F" unicode="&#x43f;" 
d="M72 0v496h456v-496h-147v381h-162v-381h-147z" />
    <glyph glyph-name="uni0440" unicode="&#x440;" 
d="M72 -184v680h120l11 -50h3q69 62 148 62q92 0 145.5 -68.5t53.5 -183.5q0 -122 -63.5 -195t-151.5 -73q-68 0 -122 54h-4l7 -81v-145h-147zM304 108q44 0 71 36.5t27 109.5q0 134 -91 134q-47 0 -92 -46v-201q39 -33 85 -33z" />
    <glyph glyph-name="uni0441" unicode="&#x441;" 
d="M343 -12q-121 0 -198.5 69.5t-77.5 190.5q0 119 83.5 189.5t203.5 70.5q114 0 186 -67l-68 -91q-55 39 -110 39q-64 0 -104 -38.5t-40 -102.5t38.5 -102.5t100.5 -38.5q63 0 131 47l59 -93q-88 -73 -204 -73z" />
    <glyph glyph-name="uni0442" unicode="&#x442;" 
d="M226 0v381h-176v115h500v-115h-176v-381h-148z" />
    <glyph glyph-name="uni0443" unicode="&#x443;" 
d="M143 -194q-41 0 -76 10l26 112q19 -6 39 -6q77 0 104 65l10 26l-215 483h146l83 -213q21 -55 50 -149h4q4 15 45 149l73 213h139l-196 -501q-38 -99 -90 -144t-142 -45z" />
    <glyph glyph-name="uni0444" unicode="&#x444;" 
d="M238 -184v127l5 75q-44 -30 -75 -30q-67 0 -106.5 69.5t-39.5 190.5q0 116 43.5 188t102.5 72q36 0 75 -27l-5 72v147h124v-147l-5 -76q47 31 85 31q62 0 99 -68.5t37 -183.5q0 -122 -44 -195t-105 -73q-32 0 -72 27l5 -72v-127h-124zM209 108q19 0 34 22v239
q-17 19 -38 19q-24 0 -39.5 -35.5t-15.5 -103.5q0 -141 59 -141zM392 108q58 0 58 146q0 134 -55 134q-19 0 -38 -21v-239q18 -20 35 -20z" />
    <glyph glyph-name="uni0445" unicode="&#x445;" 
d="M37 0l172 258l-161 238h158l51 -80q9 -17 29.5 -49t22.5 -36h4l41 85l44 80h154l-162 -255l172 -241h-158l-57 82l-57 86h-4l-46 -86l-49 -82h-154z" />
    <glyph glyph-name="uni0446" unicode="&#x446;" 
d="M72 0v496h147v-381h140v381h147v-381h79v-96l-14 -191h-126v172h-373z" />
    <glyph glyph-name="uni0447" unicode="&#x447;" 
d="M373 0v169q-40 -8 -97 -8q-212 0 -212 202v133h147v-133q0 -46 22.5 -66.5t74.5 -20.5q36 0 65 7v213h147v-496h-147z" />
    <glyph glyph-name="uni0448" unicode="&#x448;" 
d="M35 0v496h132v-381h73v381h120v-381h73v381h132v-496h-530z" />
    <glyph glyph-name="uni0449" unicode="&#x449;" 
d="M35 0v496h128v-381h70v381h117v-381h70v381h128v-381h59v-96l-14 -191h-113v172h-445z" />
    <glyph glyph-name="uni044A" unicode="&#x44a;" 
d="M166 0v381h-136v115h283v-158h38q212 0 212 -166q0 -172 -212 -172h-185zM313 112h31q78 0 78 60q0 57 -78 57h-31v-117z" />
    <glyph glyph-name="uni044B" unicode="&#x44b;" 
d="M38 0v496h131v-158h36q82 0 131 -39.5t49 -126.5q0 -172 -180 -172h-167zM169 112h29q63 0 63 60q0 57 -63 57h-29v-117zM431 0v496h131v-496h-131z" />
    <glyph glyph-name="uni044C" unicode="&#x44c;" 
d="M81 0v496h147v-158h105q221 0 221 -166q0 -172 -221 -172h-252zM228 112h99q86 0 86 60q0 57 -86 57h-99v-117z" />
    <glyph glyph-name="uni044D" unicode="&#x44d;" 
d="M253 -12q-130 0 -200 65l55 86q50 -39 128 -39q134 0 156 104h-207v99h205q-25 93 -147 93q-70 0 -120 -35l-63 85q32 28 83.5 45t108.5 17q123 0 202 -67t79 -193q0 -125 -77.5 -192.5t-202.5 -67.5z" />
    <glyph glyph-name="uni044E" unicode="&#x44e;" 
d="M396 -12q-68 0 -114.5 51.5t-58.5 148.5h-52v-188h-140v496h140v-180h53q13 93 59 142.5t113 49.5q86 0 135 -66t49 -194t-49 -194t-135 -66zM386 107q52 0 52 141q0 142 -52 142q-53 0 -53 -142q0 -141 53 -141z" />
    <glyph glyph-name="uni044F" unicode="&#x44f;" 
d="M379 0v161h-71l-109 -161h-165l133 183q-98 45 -98 149q0 164 205 164h252v-496h-147zM293 261h86v127h-86q-79 0 -79 -60q0 -31 20 -49t59 -18z" />
    <glyph glyph-name="uni0450" unicode="&#x450;" 
d="M330 -12q-120 0 -197.5 69.5t-77.5 190.5q0 117 76.5 188.5t181.5 71.5q111 0 172.5 -66.5t61.5 -171.5q0 -24 -7 -66h-338q20 -104 148 -104q61 0 128 35l49 -89q-92 -58 -197 -58zM318 396q-92 0 -114 -93h212q-11 93 -98 93zM318 561l-181 156l100 98l153 -182z" />
    <glyph glyph-name="uni0451" unicode="&#x451;" 
d="M330 -12q-120 0 -197.5 69.5t-77.5 190.5q0 117 76.5 188.5t181.5 71.5q111 0 172.5 -66.5t61.5 -171.5q0 -24 -7 -66h-338q20 -104 148 -104q61 0 128 35l49 -89q-92 -58 -197 -58zM318 396q-92 0 -114 -93h212q-11 93 -98 93zM201 571q-35 0 -57.5 23t-22.5 57
q0 35 22.5 58t57.5 23t57.5 -23t22.5 -58q0 -34 -22.5 -57t-57.5 -23zM423 571q-35 0 -57.5 23t-22.5 57q0 35 22.5 58t57.5 23t57.5 -23t22.5 -58q0 -34 -22.5 -57t-57.5 -23z" />
    <glyph glyph-name="uni0452" unicode="&#x452;" 
d="M317 -196q-47 0 -78 14l26 108q23 -7 37 -7q97 0 97 243q0 111 -23 156t-70 45q-38 0 -87 -52v-311h-147v554h-66v69l66 5v72h147v-71h182v-75h-182v-44l-9 -94h4q68 72 147 72q91 0 140 -81.5t49 -226.5q0 -204 -59.5 -290t-173.5 -86z" />
    <glyph glyph-name="uni0453" unicode="&#x453;" 
d="M116 0v496h411v-115h-264v-381h-147zM329 561l-72 72l153 182l100 -98z" />
    <glyph glyph-name="uni0454" unicode="&#x454;" 
d="M347 -12q-125 0 -202.5 67.5t-77.5 192.5q0 124 83.5 192t208.5 68q111 0 181 -59l-63 -89q-47 36 -118 36q-121 0 -148 -93h202v-99h-205q23 -104 156 -104q73 0 129 42l52 -89q-74 -65 -198 -65z" />
    <glyph glyph-name="uni0455" unicode="&#x455;" 
d="M296 -12q-129 0 -243 76l63 92q95 -59 200 -59q79 0 79 42q0 21 -24 32t-98 27q-100 21 -144.5 58.5t-44.5 96.5q0 70 61.5 112.5t166.5 42.5q108 0 215 -68l-66 -88q-78 47 -162 47q-69 0 -69 -39q0 -19 21.5 -28t93.5 -25q112 -26 153.5 -61t41.5 -98q0 -70 -64.5 -115
t-179.5 -45z" />
    <glyph glyph-name="uni0456" unicode="&#x456;" 
d="M278 0v381h-199v115h346v-496h-147zM345 574q-43 0 -70.5 24.5t-27.5 64.5t27.5 66t70.5 26t70.5 -26t27.5 -66t-27.5 -64.5t-70.5 -24.5z" />
    <glyph glyph-name="uni0457" unicode="&#x457;" 
d="M278 0v381h-199v115h346v-496h-147zM234 571q-35 0 -57.5 23t-22.5 57q0 35 22.5 58t57.5 23t57.5 -23t22.5 -58q0 -34 -22.5 -57t-57.5 -23zM456 571q-35 0 -57.5 23t-22.5 57q0 35 22.5 58t57.5 23t57.5 -23t22.5 -58q0 -34 -22.5 -57t-57.5 -23z" />
    <glyph glyph-name="uni0458" unicode="&#x458;" 
d="M195 -196q-80 0 -153 34l43 105q53 -24 101 -24q52 0 72 24.5t20 80.5v357h-199v115h346v-466q0 -226 -230 -226zM345 574q-43 0 -70.5 24.5t-27.5 64.5t27.5 66t70.5 26t70.5 -26t27.5 -66t-27.5 -64.5t-70.5 -24.5z" />
    <glyph glyph-name="uni0459" unicode="&#x459;" 
d="M46 -12q-31 0 -59 11l24 132q12 -4 20 -4q29 0 40 75q15 102 26 294h283v-158h12q184 0 184 -166q0 -172 -184 -172h-135v381h-51q-13 -178 -24 -249q-25 -144 -136 -144zM380 112h5q74 0 74 60q0 57 -74 57h-5v-117z" />
    <glyph glyph-name="uni045A" unicode="&#x45a;" 
d="M36 0v496h131v-179h79v179h130v-158h15q184 0 184 -166q0 -172 -184 -172h-145v189h-79v-189h-131zM376 112h8q67 0 67 60q0 57 -67 57h-8v-117z" />
    <glyph glyph-name="uni045B" unicode="&#x45b;" 
d="M72 0v553h-66v70l66 5v72h147v-71h182v-76h-182v-43l-9 -96h4q72 74 165 74q81 0 121 -53t40 -149v-286h-147v267q0 50 -16.5 73t-56.5 23q-28 0 -50.5 -12t-50.5 -40v-311h-147z" />
    <glyph glyph-name="uni045C" unicode="&#x45c;" 
d="M77 0v496h147v-183h79l45 91q29 60 65 82t92 22q25 0 48 -9l-23 -135q-13 5 -27 5q-20 0 -34 -10t-29 -40l-29 -59l171 -260h-161l-118 198h-79v-198h-147zM314 561l-72 72l153 182l100 -98z" />
    <glyph glyph-name="uni045D" unicode="&#x45d;" 
d="M73 0v496h142v-138q0 -30 -12 -176h3q7 14 28.5 51t29.5 53l129 210h134v-496h-142v138q0 44 13 176h-4l-57 -104l-130 -210h-134zM324 561l-181 156l100 98l153 -182z" />
    <glyph glyph-name="uni045E" unicode="&#x45e;" 
d="M143 -194q-41 0 -76 10l26 112q19 -6 39 -6q77 0 104 65l10 26l-215 483h146l83 -213q21 -55 50 -149h4q4 15 45 149l73 213h139l-196 -501q-38 -99 -90 -144t-142 -45zM308 572q-167 0 -172 158l114 6q2 -44 14.5 -65t43.5 -21t43.5 21t14.5 65l114 -6
q-5 -158 -172 -158z" />
    <glyph glyph-name="uni045F" unicode="&#x45f;" 
d="M75 0v496h147v-381h156v381h147v-496h-150l-16 -172h-126l-5 172h-153z" />
    <glyph glyph-name="uni0462" unicode="&#x462;" 
d="M133 0v483h-119v117h119v96h147v-96h212v-117h-212v-95h37q115 0 185 -43t70 -136q0 -209 -250 -209h-189zM280 114h33q58 0 86.5 20.5t28.5 69.5q0 42 -28.5 61t-91.5 19h-28v-170z" />
    <glyph glyph-name="uni0463" unicode="&#x463;" 
d="M164 0v425h-132v116h132v87h147v-87h156v-116h-156v-87h38q213 0 213 -167q0 -171 -213 -171h-185zM311 112h31q79 0 79 60q0 57 -79 57h-31v-117z" />
    <glyph glyph-name="uni0472" unicode="&#x472;" 
d="M300 -12q-119 0 -190.5 89.5t-71.5 251.5t71 248.5t191 86.5q119 0 190.5 -87t71.5 -248q0 -162 -71.5 -251.5t-190.5 -89.5zM300 543q-46 0 -75 -38t-38 -111h226q-9 73 -38 111t-75 38zM300 109q48 0 77.5 43t36.5 125h-228q7 -83 36.5 -125.5t77.5 -42.5z" />
    <glyph glyph-name="uni0473" unicode="&#x473;" 
d="M300 -12q-106 0 -179.5 69t-73.5 191t73.5 191t179.5 69t179.5 -69t73.5 -191t-73.5 -191t-179.5 -69zM300 399q-89 0 -111 -96h222q-22 96 -111 96zM300 98q95 0 113 106h-226q18 -106 113 -106z" />
    <glyph glyph-name="uni0474" unicode="&#x474;" 
d="M203 0l-197 652h156l79 -304l16 -66.5l18.5 -76t17.5 -66.5h4q5 22 20 95t25 114l37 141q23 93 62.5 134t110.5 41q41 0 71 -12l-27 -132q-21 6 -30 6q-40 0 -57 -64l-121 -462h-185z" />
    <glyph glyph-name="uni0475" unicode="&#x475;" 
d="M214 0l-177 496h147l75 -234q4 -13 39 -153h4q4 23 10.5 49l14.5 56.5t12 47.5l21 72q23 91 58 132.5t98 41.5q40 0 71 -11l-24 -124q-24 6 -29 6q-31 0 -50 -64l-93 -315h-177z" />
    <glyph glyph-name="uni0490" unicode="&#x490;" 
d="M108 0v652h285l20 172h127l-11 -296h-273v-528h-148z" />
    <glyph glyph-name="uni0491" unicode="&#x491;" 
d="M120 0v496h268l21 172h119l-9 -287h-252v-381h-147z" />
    <glyph glyph-name="uni0492" unicode="&#x492;" 
d="M126 0v281h-76v70l76 5v296h409v-124h-262v-172h145v-75h-145v-281h-147z" />
    <glyph glyph-name="uni0493" unicode="&#x493;" 
d="M130 0v192h-83v69l83 5v230h397v-115h-250v-114h152v-75h-152v-192h-147z" />
    <glyph glyph-name="uni0496" unicode="&#x496;" 
d="M502 -188v188h-39l-66 274h-37v-274h-120v274h-37l-66 -274h-136l113 347l-26 128q-12 49 -42 49q-8 0 -22 -4l-22 137q28 7 47 7q49 0 81 -25t48 -88l38 -154h24v255h120v-255h24l38 154q16 63 47.5 88t80.5 25q20 0 48 -7l-22 -137q-14 4 -22 4q-30 0 -42 -49l-26 -128
l73 -223h54v-92l-13 -220h-98z" />
    <glyph glyph-name="uni0497" unicode="&#x497;" 
d="M500 -172v172h-37l-65 204h-42v-204h-112v204h-42l-65 -204h-135l113 267l-21 60q-14 42 -47 42q-8 0 -20 -4l-18 137q13 6 36 6q49 0 81 -22t52 -78l36 -105h30v193h112v-193h30l36 105q20 56 52 78t81 22q23 0 36 -6l-18 -137q-12 4 -20 4q-33 0 -47 -42l-21 -60
l64 -152h62v-96l-14 -191h-97z" />
    <glyph glyph-name="uni0498" unicode="&#x498;" 
d="M234 -188v180q-109 16 -188 89l78 102q74 -68 167 -68q55 0 88 23.5t33 64.5t-30.5 60t-94.5 19h-87v109h67q114 0 114 74q0 72 -99 72q-69 0 -140 -54l-75 98q94 83 220 83q114 0 176 -46.5t62 -128.5q0 -48 -21.5 -85.5t-61.5 -55.5v-4q50 -14 82 -54.5t32 -97.5
q0 -78 -48.5 -128.5t-131.5 -67.5l-11 -184h-131z" />
    <glyph glyph-name="uni0499" unicode="&#x499;" 
d="M223 -172l-5 164q-89 11 -170 68l57 93q77 -53 159 -53q132 0 132 56q0 48 -91 48h-120v99h111q83 0 83 47q0 46 -112 46q-85 0 -156 -47l-54 95q97 64 220 64q113 0 178 -35t65 -107q0 -78 -88 -103v-4q56 -13 82 -41t26 -77q0 -59 -48 -97t-129 -50l-16 -166h-124z" />
    <glyph glyph-name="uni049A" unicode="&#x49a;" 
d="M478 -188v188h-42l-160 274h-60v-274h-147v652h147v-255h58l76 149q32 66 73 92t99 26q35 0 53 -9l-24 -133q-11 4 -28 4q-23 0 -39.5 -12.5t-33.5 -46.5l-59 -119l131 -224h83v-92l-12 -220h-115z" />
    <glyph glyph-name="uni049B" unicode="&#x49b;" 
d="M472 -172v172h-51l-118 198h-79v-198h-147v496h147v-183h79l45 91q29 60 65 82t92 22q25 0 48 -9l-23 -135q-13 5 -27 5q-20 0 -34 -10t-29 -40l-29 -59l95 -145h88v-96l-14 -191h-108z" />
    <glyph glyph-name="uni04A0" unicode="&#x4a0;" 
d="M174 0v528h-148v124h279v-255h49l51 149q23 69 54.5 93.5t83.5 24.5q22 0 45 -9l-24 -131q-6 2 -19 2q-25 0 -46 -59l-44 -124l145 -343h-134l-112 274h-49v-274h-131z" />
    <glyph glyph-name="uni04A1" unicode="&#x4a1;" 
d="M173 0v381h-144v115h275v-183h51l32 91q21 61 54 82.5t86 21.5q22 0 40 -7l-23 -136q-12 4 -19 4q-15 0 -26 -10t-21 -40l-23 -69l140 -250h-136l-104 198h-51v-198h-131z" />
    <glyph glyph-name="uni04A2" unicode="&#x4a2;" 
d="M64 0v652h147v-251h173v251h147v-528h75v-92l-13 -220h-112v188h-97v272h-173v-272h-147z" />
    <glyph glyph-name="uni04A3" unicode="&#x4a3;" 
d="M72 0v496h147v-179h140v179h147v-381h79v-96l-14 -191h-126v172h-86v189h-140v-189h-147z" />
    <glyph glyph-name="uni04AA" unicode="&#x4aa;" 
d="M289 -188v183q-104 22 -169.5 107t-65.5 220q0 158 88 250t223 92q110 0 195 -83l-81 -91q-52 47 -114 47q-70 0 -115 -57t-45 -153q0 -99 45.5 -155.5t120.5 -56.5q65 0 118 58l81 -89q-55 -66 -139 -87l-11 -185h-131z" />
    <glyph glyph-name="uni04AB" unicode="&#x4ab;" 
d="M276 -172l-5 167q-92 19 -148 85.5t-56 167.5q0 119 83.5 189.5t203.5 70.5q114 0 186 -67l-68 -91q-55 39 -110 39q-64 0 -104 -38.5t-40 -102.5t38.5 -102.5t100.5 -38.5q63 0 131 47l59 -93q-57 -46 -130 -64l-16 -169h-125z" />
    <glyph glyph-name="uni04AE" unicode="&#x4ae;" 
d="M226 0v220l-210 432h158l66 -157l59 -149h4l61 149l66 157h154l-210 -432v-220h-148z" />
    <glyph glyph-name="uni04AF" unicode="&#x4af;" 
d="M230 -184v175l-199 505h148l80 -228q7 -20 43 -145h4q26 96 42 145l80 228h141l-192 -505v-175h-147z" />
    <glyph glyph-name="uni04B0" unicode="&#x4b0;" 
d="M81 208v70l95 5h19l-179 369h158l66 -157l59 -149h4l61 149l66 157h154l-179 -369h114v-75h-145v-208h-148v208h-145z" />
    <glyph glyph-name="uni04B1" unicode="&#x4b1;" 
d="M84 0v69l77 6h39l-168 421h147l80 -228q7 -20 43 -145h4q26 96 42 145l80 228h140l-162 -421h110v-75h-139v-184h-147v184h-146z" />
    <glyph glyph-name="uni04B2" unicode="&#x4b2;" 
d="M473 -188v188h-55l-71 133q-26 48 -52 107h-4q-13 -33 -48 -107l-68 -133h-157l190 335l-179 317h165l63 -123l50 -105h4q26 65 44 105l58 123h158l-179 -324l118 -204h87v-92l-12 -220h-112z" />
    <glyph glyph-name="uni04B3" unicode="&#x4b3;" 
d="M439 -172v172h-35l-57 82l-57 86h-4l-46 -86l-49 -82h-154l172 258l-161 238h158l51 -80q9 -17 29.5 -49t22.5 -36h4l41 85l44 80h154l-162 -255l90 -126h97v-96l-14 -191h-124z" />
    <glyph glyph-name="uni04B6" unicode="&#x4b6;" 
d="M382 0v264q-39 -7 -95 -7q-119 0 -181 56t-62 183v156h144v-156q0 -67 27 -94.5t87 -27.5q45 0 80 7v271h147v-528h75v-92l-13 -220h-123v188h-86z" />
    <glyph glyph-name="uni04B7" unicode="&#x4b7;" 
d="M360 0v169q-45 -8 -90 -8q-96 0 -151 47t-55 147v141h147v-141q0 -40 21.5 -59.5t69.5 -19.5q25 0 58 7v213h147v-381h79v-96l-14 -191h-125v172h-87z" />
    <glyph glyph-name="uni04BA" unicode="&#x4ba;" 
d="M62 0v652h147v-237q42 7 99 7q120 0 183 -56t63 -182v-184h-144v184q0 66 -27.5 93.5t-90.5 27.5q-46 0 -83 -7v-298h-147z" />
    <glyph glyph-name="uni04BB" unicode="&#x4bb;" 
d="M72 0v701h147v-172l-8 -95h3q72 74 165 74q81 0 121 -53t40 -149v-306h-147v287q0 50 -16.5 73t-56.5 23q-28 0 -50.5 -12t-50.5 -40v-331h-147z" />
    <glyph glyph-name="uni04C0" unicode="&#x4c0;" 
d="M74 0v124h152v404h-152v124h452v-124h-152v-404h152v-124h-452z" />
    <glyph glyph-name="uni04C1" unicode="&#x4c1;" 
d="M1 0l113 347l-26 128q-12 49 -42 49q-8 0 -22 -4l-22 137q28 7 47 7q49 0 81 -25t48 -88l38 -154h24v255h120v-255h24l38 154q16 63 47.5 88t80.5 25q20 0 48 -7l-22 -137q-14 4 -22 4q-30 0 -42 -49l-26 -128l113 -347h-136l-66 274h-37v-274h-120v274h-37l-66 -274
h-136zM300 697q-171 0 -178 132l124 6q3 -64 54 -64t54 64l124 -6q-7 -132 -178 -132z" />
    <glyph glyph-name="uni04C2" unicode="&#x4c2;" 
d="M2 0l113 267l-21 60q-14 42 -47 42q-8 0 -20 -4l-18 137q13 6 36 6q49 0 81 -22t52 -78l36 -105h30v193h112v-193h30l36 105q20 56 52 78t81 22q23 0 36 -6l-18 -137q-12 4 -20 4q-33 0 -47 -42l-21 -60l113 -267h-135l-65 204h-42v-204h-112v204h-42l-65 -204h-135z
M300 572q-167 0 -172 158l114 6q2 -44 14.5 -65t43.5 -21t43.5 21t14.5 65l114 -6q-5 -158 -172 -158z" />
    <glyph glyph-name="uni04CF" unicode="&#x4cf;" 
d="M395 -12q-91 0 -140 55t-49 151v391h-145v116h292v-513q0 -43 23 -62t58 -19q37 0 77 16l33 -108q-83 -27 -149 -27z" />
    <glyph glyph-name="uni04D0" unicode="&#x4d0;" 
d="M244 330l-15 -60h137l-15 60q-38 144 -52 210h-4q-31 -132 -51 -210zM9 0l203 652h176l203 -652h-156l-39 155h-197l-40 -155h-150zM300 697q-171 0 -178 132l124 6q3 -64 54 -64t54 64l124 -6q-7 -132 -178 -132z" />
    <glyph glyph-name="uni04D1" unicode="&#x4d1;" 
d="M224 -12q-73 0 -118 43t-45 107q0 84 76.5 127.5t250.5 53.5q-8 72 -106 72q-59 0 -151 -46l-52 96q117 67 232 67q107 0 165.5 -56t58.5 -168v-284h-120l-11 56h-4q-89 -68 -176 -68zM271 102q56 0 117 47v82q-103 -6 -144.5 -26.5t-41.5 -55.5q0 -47 69 -47zM320 572
q-167 0 -172 158l114 6q2 -44 14.5 -65t43.5 -21t43.5 21t14.5 65l114 -6q-5 -158 -172 -158z" />
    <glyph glyph-name="uni04D4" unicode="&#x4d4;" 
d="M255 356l-28 -93h84v278h-3q-10 -38 -29 -103.5t-24 -81.5zM-3 0l218 652h371v-124h-145v-129h118v-124h-118v-151h154v-124h-284v149h-118l-45 -149h-151z" />
    <glyph glyph-name="uni04D5" unicode="&#x4d5;" 
d="M149 -12q-59 0 -96 40t-37 102q0 78 55.5 122.5t170.5 61.5q-6 77 -61 77q-43 0 -100 -34l-52 96q92 55 162 55q78 0 119 -73q47 73 126 73q75 0 116 -68t41 -171q0 -23 -6 -65h-232q8 -50 33.5 -75.5t62.5 -25.5t76 27l51 -95q-60 -47 -133 -47q-96 0 -152 74
q-69 -74 -144 -74zM194 102q30 0 62 32q-13 39 -13 88v5q-96 -16 -96 -79q0 -22 13 -34t34 -12zM424 396q-24 0 -43.5 -24.5t-25.5 -74.5h123q-2 52 -15 75.5t-39 23.5z" />
    <glyph glyph-name="uni04D6" unicode="&#x4d6;" 
d="M92 0v652h432v-124h-284v-131h241v-123h-241v-150h294v-124h-442zM323 697q-171 0 -178 132l124 6q3 -64 54 -64t54 64l124 -6q-7 -132 -178 -132z" />
    <glyph glyph-name="uni04D7" unicode="&#x4d7;" 
d="M330 -12q-120 0 -197.5 69.5t-77.5 190.5q0 117 76.5 188.5t181.5 71.5q111 0 172.5 -66.5t61.5 -171.5q0 -24 -7 -66h-338q20 -104 148 -104q61 0 128 35l49 -89q-92 -58 -197 -58zM318 396q-92 0 -114 -93h212q-11 93 -98 93zM312 572q-167 0 -172 158l114 6
q2 -44 14.5 -65t43.5 -21t43.5 21t14.5 65l114 -6q-5 -158 -172 -158z" />
    <glyph glyph-name="uni04D8" unicode="&#x4d8;" 
d="M303 -12q-113 0 -183 89.5t-70 245.5q0 23 3 49h359q-11 165 -124 165q-62 0 -109 -47l-68 101q78 73 189 73q119 0 189.5 -89.5t70.5 -247.5q0 -157 -71 -248t-186 -91zM303 115q93 0 108 149h-216q7 -81 34.5 -115t73.5 -34z" />
    <glyph glyph-name="uni04D9" unicode="&#x4d9;" 
d="M291 -12q-112 0 -174 67.5t-62 172.5q0 30 6 66h339q-20 102 -138 102q-60 0 -128 -34l-48 88q92 58 196 58q116 0 190 -70t74 -190q0 -118 -75 -189t-180 -71zM286 100q94 0 113 96h-213q11 -96 100 -96z" />
    <glyph glyph-name="uni04E2" unicode="&#x4e2;" 
d="M64 0v652h133v-231q0 -50 -19 -237h3l56 144l148 324h151v-652h-133v231q0 41 19 236h-3l-56 -142l-148 -325h-151zM153 721v94h302v-94h-302z" />
    <glyph glyph-name="uni04E3" unicode="&#x4e3;" 
d="M73 0v496h142v-138q0 -30 -12 -176h3q7 14 28.5 51t29.5 53l129 210h134v-496h-142v138q0 44 13 176h-4l-57 -104l-130 -210h-134zM170 592v93h296v-93h-296z" />
    <glyph glyph-name="uni04E6" unicode="&#x4e6;" 
d="M300 -12q-119 0 -190.5 89t-71.5 252q0 160 71.5 247.5t190.5 87.5t190.5 -87.5t71.5 -247.5q0 -163 -71.5 -252t-190.5 -89zM300 115q52 0 81.5 55t29.5 159q0 100 -29.5 154t-81.5 54t-81.5 -54t-29.5 -154q0 -104 29.5 -159t81.5 -55zM189 700q-31 0 -52 21t-21 52
t21 52t52 21q32 0 53 -20.5t21 -52.5q0 -31 -21 -52t-53 -21zM411 700q-32 0 -53 21t-21 52q0 32 21 52.5t53 20.5q31 0 52 -21t21 -52t-21 -52t-52 -21z" />
    <glyph glyph-name="uni04E7" unicode="&#x4e7;" 
d="M300 -12q-104 0 -178.5 70.5t-74.5 189.5t74.5 189.5t178.5 70.5t178.5 -70.5t74.5 -189.5t-74.5 -189.5t-178.5 -70.5zM300 107q50 0 76 37.5t26 103.5t-26 103.5t-76 37.5t-76 -37.5t-26 -103.5t26 -103.5t76 -37.5zM189 571q-35 0 -57.5 23t-22.5 57q0 35 22.5 58
t57.5 23t57.5 -23t22.5 -58q0 -34 -22.5 -57t-57.5 -23zM411 571q-35 0 -57.5 23t-22.5 57q0 35 22.5 58t57.5 23t57.5 -23t22.5 -58q0 -34 -22.5 -57t-57.5 -23z" />
    <glyph glyph-name="uni04E8" unicode="&#x4e8;" 
d="M300 -12q-119 0 -190.5 89.5t-71.5 251.5t71 248.5t191 86.5q119 0 190.5 -87t71.5 -248q0 -162 -71.5 -251.5t-190.5 -89.5zM300 543q-46 0 -75 -38t-38 -111h226q-9 73 -38 111t-75 38zM300 109q48 0 77.5 43t36.5 125h-228q7 -83 36.5 -125.5t77.5 -42.5z" />
    <glyph glyph-name="uni04E9" unicode="&#x4e9;" 
d="M300 -12q-106 0 -179.5 69t-73.5 191t73.5 191t179.5 69t179.5 -69t73.5 -191t-73.5 -191t-179.5 -69zM300 399q-89 0 -111 -96h222q-22 96 -111 96zM300 98q95 0 113 106h-226q18 -106 113 -106z" />
    <glyph glyph-name="uni04EE" unicode="&#x4ee;" 
d="M179 -12q-51 0 -82 13l26 128q24 -8 49 -8q46 0 63 30l9 19l-221 482h156l76 -190l54 -156h4l52 156l69 190h148l-201 -504q-65 -160 -202 -160zM157 721v94h302v-94h-302z" />
    <glyph glyph-name="uni04EF" unicode="&#x4ef;" 
d="M143 -194q-41 0 -76 10l26 112q19 -6 39 -6q77 0 104 65l10 26l-215 483h146l83 -213q21 -55 50 -149h4q4 15 45 149l73 213h139l-196 -501q-38 -99 -90 -144t-142 -45zM160 592v93h296v-93h-296z" />
    <glyph glyph-name="uni04F2" unicode="&#x4f2;" 
d="M179 -12q-51 0 -82 13l26 128q24 -8 49 -8q46 0 63 30l9 19l-221 482h156l76 -190l54 -156h4l52 156l69 190h148l-201 -504q-65 -160 -202 -160zM242 694l-73 34l101 161l94 -52zM429 694l-72 34l100 161l94 -52z" />
    <glyph glyph-name="uni04F3" unicode="&#x4f3;" 
d="M143 -194q-41 0 -76 10l26 112q19 -6 39 -6q77 0 104 65l10 26l-215 483h146l83 -213q21 -55 50 -149h4q4 15 45 149l73 213h139l-196 -501q-38 -99 -90 -144t-142 -45zM255 565l-78 35l88 181l98 -44zM434 565l-78 35l88 181l98 -44z" />
    <glyph glyph-name="a.sups" unicode="&#x1d43;" 
d="M255 367q-49 0 -79.5 29t-30.5 71q0 109 213 120q-8 43 -65 43q-48 0 -100 -29l-37 68q78 44 158 44q69 0 107.5 -37.5t38.5 -112.5v-188h-83l-8 36h-2q-51 -44 -112 -44zM284 445q37 0 74 27v56q-113 -8 -113 -51q0 -32 39 -32z" />
    <glyph glyph-name="b.sups" unicode="&#x1d47;" 
d="M335 367q-48 0 -89 43h-2l-9 -35h-81v468h104v-117l-2 -50q40 37 88 37q62 0 98 -46t36 -122q0 -81 -42 -129.5t-101 -48.5zM310 451q27 0 44 22.5t17 69.5q0 85 -56 85q-30 0 -57 -27v-131q23 -19 52 -19z" />
    <glyph glyph-name="d.sups" unicode="&#x1d48;" 
d="M268 367q-64 0 -102 46t-38 126q0 78 42.5 126t99.5 48q44 0 82 -35l-3 49v116h103v-468h-84l-8 32h-2q-44 -40 -90 -40zM295 451q33 0 54 28v129q-24 20 -55 20q-25 0 -42 -22t-17 -65q0 -90 60 -90z" />
    <glyph glyph-name="e.sups" unicode="&#x1d49;" 
d="M320 368q-80 0 -132 46t-52 126q0 76 50.5 124t120.5 48q76 0 116.5 -44.5t40.5 -113.5q0 -20 -5 -43h-225q16 -65 98 -65q42 0 84 21l34 -62q-56 -37 -130 -37zM312 634q-63 0 -77 -60h142q-8 60 -65 60z" />
    <glyph glyph-name="g.sups" unicode="&#x1d4d;" 
d="M284 237q-68 0 -109.5 20.5t-41.5 62.5q0 39 52 65v3q-34 20 -34 56q0 34 41 62v2q-45 28 -45 84q0 57 41.5 88.5t101.5 31.5q30 0 56 -8h135v-75h-65q13 -17 13 -40q0 -55 -38 -82.5t-101 -27.5q-18 0 -44 6q-13 -10 -13 -22q0 -23 54 -23h60q137 0 137 -84
q0 -53 -54.5 -86t-145.5 -33zM290 541q21 0 34.5 13.5t13.5 37.5t-14 37.5t-34 13.5t-33 -13.5t-13 -37.5t13 -37.5t33 -13.5zM299 301q38 0 62.5 10.5t24.5 26.5q0 23 -57 23h-40q-26 0 -50 4q-21 -13 -21 -28q0 -36 81 -36z" />
    <glyph glyph-name="k.sups" unicode="&#x1d4f;" 
d="M160 375v468h104v-264h2l113 126h114l-124 -136l133 -194h-112l-81 126l-45 -45v-81h-104z" />
    <glyph glyph-name="m.sups" unicode="&#x1d50;" 
d="M48 375v330h84l8 -43h3q49 51 100 51q64 0 92 -56q54 56 105 56q53 0 79.5 -36t26.5 -99v-203h-104v190q0 61 -41 61q-22 0 -52 -31v-220h-104v190q0 32 -9 46.5t-32 14.5q-22 0 -52 -31v-220h-104z" />
    <glyph glyph-name="o.sups" unicode="&#x1d52;" 
d="M300 367q-69 0 -118 47t-49 125q0 79 49 126.5t118 47.5t118 -47.5t49 -126.5q0 -78 -49 -125t-118 -47zM300 450q61 0 61 89q0 90 -61 90t-61 -90q0 -89 61 -89z" />
    <glyph glyph-name="p.sups" unicode="&#x1d56;" 
d="M154 255v450h85l7 -33h2q48 41 97 41q62 0 97.5 -46t35.5 -122q0 -81 -42 -129.5t-101 -48.5q-41 0 -81 34l4 -51v-95h-104zM310 451q27 0 44 22.5t17 69.5q0 85 -56 85q-30 0 -57 -27v-131q23 -19 52 -19z" />
    <glyph glyph-name="t.sups" unicode="&#x1d57;" 
d="M365 367q-146 0 -146 146v111h-69v77l74 4l13 97h87v-97h129v-81h-129v-110q0 -36 16 -51t51 -15q31 0 58 11l18 -74q-52 -18 -102 -18z" />
    <glyph glyph-name="u.sups" unicode="&#x1d58;" 
d="M251 367q-107 0 -107 133v205h104v-192q0 -31 10 -44.5t34 -13.5q33 0 60 33v217h104v-330h-85l-8 46h-2q-49 -54 -110 -54z" />
    <glyph glyph-name="v.sups" unicode="&#x1d5b;" 
d="M237 375l-121 330h104l48 -152l13.5 -49t15.5 -53h2q4 14 13 49t15 53l48 152h99l-117 -330h-120z" />
    <glyph glyph-name="c.sups" unicode="&#x1d9c;" 
d="M347 367q-77 0 -127 46.5t-50 125.5t54.5 126.5t131.5 47.5q62 0 105 -39l-48 -64q-23 19 -51 19q-39 0 -62.5 -24.5t-23.5 -65.5q0 -40 23.5 -64.5t59.5 -24.5q26 0 66 23l41 -64q-51 -42 -119 -42z" />
    <glyph glyph-name="f.sups" unicode="&#x1da0;" 
d="M257 375v249h-74v77l74 4v13q0 60 37.5 96t112.5 36q45 0 101 -18l-20 -75q-33 12 -68 12q-60 0 -60 -51v-13h111v-81h-111v-249h-103z" />
    <glyph glyph-name="z.sups" unicode="&#x1dbb;" 
d="M151 375v55l167 194h-147v81h291v-55l-167 -194h173v-81h-317z" />
    <glyph glyph-name="uni1E06" unicode="&#x1e06;" 
d="M74 0v652h219q239 0 239 -162q0 -47 -28.5 -87t-83.5 -54v-4q142 -26 142 -153q0 -95 -69 -143.5t-181 -48.5h-238zM221 390h65q102 0 102 80q0 36 -24.5 51.5t-76.5 15.5h-66v-147zM221 115h79q118 0 118 88q0 42 -28.5 61.5t-89.5 19.5h-79v-169zM161 -188v93h296v-93
h-296z" />
    <glyph glyph-name="uni1E07" unicode="&#x1e07;" 
d="M338 -12q-72 0 -135 66h-4l-12 -54h-115v701h147v-172l-5 -78h3q59 57 136 57q92 0 146 -68t54 -183q0 -123 -63.5 -196t-151.5 -73zM305 108q43 0 70 36.5t27 109.5q0 134 -91 134q-47 0 -92 -46v-201q39 -33 86 -33zM162 -188v93h296v-93h-296z" />
    <glyph glyph-name="uni1E0C" unicode="&#x1e0c;" 
d="M70 0v652h180q148 0 231 -80t83 -243t-82 -246t-223 -83h-189zM218 119h24q171 0 171 210q0 111 -44.5 157.5t-126.5 46.5h-24v-414zM298 -246q-43 0 -70.5 24.5t-27.5 64.5t27.5 66t70.5 26t70.5 -26t27.5 -66t-27.5 -64.5t-70.5 -24.5z" />
    <glyph glyph-name="uni1E0D" unicode="&#x1e0d;" 
d="M256 -12q-95 0 -152 69.5t-57 190.5q0 117 63.5 188.5t148.5 71.5q74 0 125 -53h4l-7 77v169h147v-701h-120l-11 51h-3q-65 -63 -138 -63zM294 108q51 0 87 46v201q-37 33 -83 33q-43 0 -71.5 -35.5t-28.5 -102.5q0 -142 96 -142zM308 -246q-43 0 -70.5 24.5t-27.5 64.5
t27.5 66t70.5 26t70.5 -26t27.5 -66t-27.5 -64.5t-70.5 -24.5z" />
    <glyph glyph-name="uni1E0E" unicode="&#x1e0e;" 
d="M70 0v652h180q148 0 231 -80t83 -243t-82 -246t-223 -83h-189zM218 119h24q171 0 171 210q0 111 -44.5 157.5t-126.5 46.5h-24v-414zM150 -188v93h296v-93h-296z" />
    <glyph glyph-name="uni1E0F" unicode="&#x1e0f;" 
d="M256 -12q-95 0 -152 69.5t-57 190.5q0 117 63.5 188.5t148.5 71.5q74 0 125 -53h4l-7 77v169h147v-701h-120l-11 51h-3q-65 -63 -138 -63zM294 108q51 0 87 46v201q-37 33 -83 33q-43 0 -71.5 -35.5t-28.5 -102.5q0 -142 96 -142zM160 -188v93h296v-93h-296z" />
    <glyph glyph-name="uni1E10" unicode="&#x1e10;" 
d="M218 119h24q171 0 171 210q0 111 -44.5 157.5t-126.5 46.5h-24v-414zM180 -239l-11 59q58 3 80.5 13t22.5 31q0 32 -77 42l45 94h-170v652h180q148 0 231 -80t83 -243q0 -141 -62.5 -222.5t-172.5 -100.5l-28 -67q39 -9 57.5 -26.5t18.5 -48.5q0 -97 -197 -103z" />
    <glyph glyph-name="uni1E11" unicode="&#x1e11;" 
d="M294 108q51 0 87 46v201q-37 33 -83 33q-43 0 -71.5 -35.5t-28.5 -102.5q0 -142 96 -142zM175 -239l-11 59q58 3 80.5 13t22.5 31q0 32 -77 42l40 83q-84 10 -133.5 79t-49.5 180q0 117 63.5 188.5t148.5 71.5q74 0 125 -53h4l-7 77v169h147v-701h-120l-11 51h-3
q-31 -31 -71 -48l-27 -64q39 -9 57.5 -26.5t18.5 -48.5q0 -97 -197 -103z" />
    <glyph glyph-name="uni1E16" unicode="&#x1e16;" 
d="M92 0v652h432v-124h-284v-131h241v-123h-241v-150h294v-124h-442zM172 721v94h302v-94h-302zM292 834l-49 66l155 107l60 -81z" />
    <glyph glyph-name="uni1E17" unicode="&#x1e17;" 
d="M330 -12q-120 0 -197.5 69.5t-77.5 190.5q0 117 76.5 188.5t181.5 71.5q111 0 172.5 -66.5t61.5 -171.5q0 -24 -7 -66h-338q20 -104 148 -104q61 0 128 35l49 -89q-92 -58 -197 -58zM318 396q-92 0 -114 -93h212q-11 93 -98 93zM164 592v93h296v-93h-296zM284 713l-49 60
l144 105l60 -74z" />
    <glyph glyph-name="uni1E20" unicode="&#x1e20;" 
d="M343 -12q-131 0 -215 87.5t-84 246.5t85 250.5t216 91.5q108 0 191 -83l-81 -91q-47 47 -110 47q-65 0 -107 -57t-42 -153q0 -102 39.5 -157t115.5 -55q42 0 64 20v112h-95v120h227v-300q-36 -33 -90.5 -56t-113.5 -23zM179 721v94h302v-94h-302z" />
    <glyph glyph-name="uni1E21" unicode="&#x1e21;" 
d="M277 -211q-102 0 -163.5 31.5t-61.5 95.5q0 61 77 99v4q-50 30 -50 85q0 24 16 49.5t43 43.5v4q-65 43 -65 127q0 85 61.5 132.5t150.5 47.5q46 0 82 -12h201v-108h-100q22 -30 22 -65q0 -82 -57 -124t-148 -42q-32 0 -68 10q-22 -16 -22 -37q0 -37 84 -37h92
q201 0 201 -125q0 -79 -81 -129t-214 -50zM285 246q32 0 53.5 21.5t21.5 60.5q0 38 -21.5 59.5t-53.5 21.5t-53 -21.5t-21 -59.5q0 -39 21 -60.5t53 -21.5zM298 -118q59 0 96.5 17t37.5 43q0 23 -20.5 30.5t-66.5 7.5h-62q-51 0 -76 7q-35 -22 -35 -49q0 -56 126 -56z
M156 592v93h296v-93h-296z" />
    <glyph glyph-name="uni1E24" unicode="&#x1e24;" 
d="M64 0v652h147v-251h178v251h147v-652h-147v272h-178v-272h-147zM300 -246q-43 0 -70.5 24.5t-27.5 64.5t27.5 66t70.5 26t70.5 -26t27.5 -66t-27.5 -64.5t-70.5 -24.5z" />
    <glyph glyph-name="uni1E25" unicode="&#x1e25;" 
d="M72 0v701h147v-172l-8 -95h3q72 74 165 74q81 0 121 -53t40 -149v-306h-147v287q0 50 -16.5 73t-56.5 23q-28 0 -50.5 -12t-50.5 -40v-331h-147zM308 -246q-43 0 -70.5 24.5t-27.5 64.5t27.5 66t70.5 26t70.5 -26t27.5 -66t-27.5 -64.5t-70.5 -24.5z" />
    <glyph glyph-name="uni1E26" unicode="&#x1e26;" 
d="M64 0v652h147v-251h178v251h147v-652h-147v272h-178v-272h-147zM189 700q-31 0 -52 21t-21 52t21 52t52 21q32 0 53 -20.5t21 -52.5q0 -31 -21 -52t-53 -21zM411 700q-32 0 -53 21t-21 52q0 32 21 52.5t53 20.5q31 0 52 -21t21 -52t-21 -52t-52 -21z" />
    <glyph glyph-name="uni1E27" unicode="&#x1e27;" 
d="M72 0v701h147v-172l-8 -95h3q72 74 165 74q81 0 121 -53t40 -149v-306h-147v287q0 50 -16.5 73t-56.5 23q-28 0 -50.5 -12t-50.5 -40v-331h-147zM34 760q-31 0 -52 21t-21 52t20.5 52t52.5 21t53 -20.5t21 -52.5q0 -31 -21 -52t-53 -21zM256 760q-32 0 -53 21t-21 52
q0 32 21 52.5t53 20.5t52.5 -21t20.5 -52t-21 -52t-52 -21z" />
    <glyph glyph-name="uni1E28" unicode="&#x1e28;" 
d="M64 0v652h147v-251h178v251h147v-652h-147v272h-178v-272h-28l-25 -61q39 -9 57.5 -26.5t18.5 -48.5q0 -97 -197 -103l-11 59q58 3 80.5 13t22.5 31q0 32 -77 42l45 94h-33z" />
    <glyph glyph-name="uni1E29" unicode="&#x1e29;" 
d="M72 0v701h147v-172l-8 -95h3q72 74 165 74q81 0 121 -53t40 -149v-306h-147v287q0 50 -16.5 73t-56.5 23q-28 0 -50.5 -12t-50.5 -40v-331h-30l-25 -61q39 -9 57.5 -26.5t18.5 -48.5q0 -97 -197 -103l-11 59q58 3 80.5 13t22.5 31q0 32 -77 42l45 94h-31z" />
    <glyph glyph-name="uni1E2A" unicode="&#x1e2a;" 
d="M64 0v652h147v-251h178v251h147v-652h-147v272h-178v-272h-147zM300 -233q-82 0 -124.5 43.5t-44.5 113.5l84 14q5 -35 26 -57t59 -22t59 22t26 57l84 -14q-2 -70 -44.5 -113.5t-124.5 -43.5z" />
    <glyph glyph-name="uni1E2B" unicode="&#x1e2b;" 
d="M72 0v701h147v-172l-8 -95h3q72 74 165 74q81 0 121 -53t40 -149v-306h-147v287q0 50 -16.5 73t-56.5 23q-28 0 -50.5 -12t-50.5 -40v-331h-147zM308 -233q-82 0 -124.5 43.5t-44.5 113.5l84 14q5 -35 26 -57t59 -22t59 22t26 57l84 -14q-2 -70 -44.5 -113.5
t-124.5 -43.5z" />
    <glyph glyph-name="uni1E32" unicode="&#x1e32;" 
d="M68 0v652h149v-267h3l193 267h163l-196 -259l214 -393h-163l-139 277l-75 -99v-178h-149zM325 -246q-43 0 -70.5 24.5t-27.5 64.5t27.5 66t70.5 26t70.5 -26t27.5 -66t-27.5 -64.5t-70.5 -24.5z" />
    <glyph glyph-name="uni1E33" unicode="&#x1e33;" 
d="M76 0v701h147v-405h4l182 200h161l-189 -202l204 -294h-159l-130 203l-73 -78v-125h-147zM324 -246q-43 0 -70.5 24.5t-27.5 64.5t27.5 66t70.5 26t70.5 -26t27.5 -66t-27.5 -64.5t-70.5 -24.5z" />
    <glyph glyph-name="uni1E34" unicode="&#x1e34;" 
d="M68 0v652h149v-267h3l193 267h163l-196 -259l214 -393h-163l-139 277l-75 -99v-178h-149zM177 -188v93h296v-93h-296z" />
    <glyph glyph-name="uni1E35" unicode="&#x1e35;" 
d="M76 0v701h147v-405h4l182 200h161l-189 -202l204 -294h-159l-130 203l-73 -78v-125h-147zM176 -188v93h296v-93h-296z" />
    <glyph glyph-name="uni1E36" unicode="&#x1e36;" 
d="M107 0v652h147v-528h290v-124h-437zM335 -246q-43 0 -70.5 24.5t-27.5 64.5t27.5 66t70.5 26t70.5 -26t27.5 -66t-27.5 -64.5t-70.5 -24.5z" />
    <glyph glyph-name="uni1E37" unicode="&#x1e37;" 
d="M395 -12q-91 0 -140 55t-49 151v391h-145v116h292v-513q0 -43 23 -62t58 -19q37 0 77 16l33 -108q-83 -27 -149 -27zM367 -246q-43 0 -70.5 24.5t-27.5 64.5t27.5 66t70.5 26t70.5 -26t27.5 -66t-27.5 -64.5t-70.5 -24.5z" />
    <glyph glyph-name="uni1E38" unicode="&#x1e38;" 
d="M107 0v652h147v-528h290v-124h-437zM42 721v94h302v-94h-302zM335 -246q-43 0 -70.5 24.5t-27.5 64.5t27.5 66t70.5 26t70.5 -26t27.5 -66t-27.5 -64.5t-70.5 -24.5z" />
    <glyph glyph-name="uni1E39" unicode="&#x1e39;" 
d="M395 -12q-91 0 -140 55t-49 151v391h-145v116h292v-513q0 -43 23 -62t58 -19q37 0 77 16l33 -108q-83 -27 -149 -27zM123 781v94h302v-94h-302zM367 -246q-43 0 -70.5 24.5t-27.5 64.5t27.5 66t70.5 26t70.5 -26t27.5 -66t-27.5 -64.5t-70.5 -24.5z" />
    <glyph glyph-name="uni1E3A" unicode="&#x1e3a;" 
d="M107 0v652h147v-528h290v-124h-437zM187 -188v93h296v-93h-296z" />
    <glyph glyph-name="uni1E3B" unicode="&#x1e3b;" 
d="M395 -12q-91 0 -140 55t-49 151v391h-145v116h292v-513q0 -43 23 -62t58 -19q37 0 77 16l33 -108q-83 -27 -149 -27zM219 -188v93h296v-93h-296z" />
    <glyph glyph-name="uni1E3E" unicode="&#x1e3e;" 
d="M58 0v652h154l64 -231l22 -90h4l22 90l64 231h154v-652h-124v202q0 80 19 302h-3l-50 -174l-50 -157h-72l-51 157l-47 174h-3q19 -190 19 -302v-202h-122zM263 680l-65 74l171 140l78 -95z" />
    <glyph glyph-name="uni1E3F" unicode="&#x1e3f;" 
d="M35 0v496h111l10 -61h4q33 73 107 73q68 0 86 -81q32 81 110 81q53 0 82 -42.5t29 -117.5v-348h-140v338q0 45 -27 45q-24 0 -45 -48v-335h-115v338q0 45 -28 45q-25 0 -44 -48v-335h-140zM316 564l-72 72l153 182l100 -98z" />
    <glyph glyph-name="uni1E40" unicode="&#x1e40;" 
d="M58 0v652h154l64 -231l22 -90h4l22 90l64 231h154v-652h-124v202q0 80 19 302h-3l-50 -174l-50 -157h-72l-51 157l-47 174h-3q19 -190 19 -302v-202h-122zM300 701q-40 0 -65 23.5t-25 60.5t25 60t65 23t65 -23t25 -60t-25 -60.5t-65 -23.5z" />
    <glyph glyph-name="uni1E41" unicode="&#x1e41;" 
d="M35 0v496h111l10 -61h4q33 73 107 73q68 0 86 -81q32 81 110 81q53 0 82 -42.5t29 -117.5v-348h-140v338q0 45 -27 45q-24 0 -45 -48v-335h-115v338q0 45 -28 45q-25 0 -44 -48v-335h-140zM322 577q-43 0 -70.5 24.5t-27.5 64.5t27.5 66t70.5 26t70.5 -26t27.5 -66
t-27.5 -64.5t-70.5 -24.5z" />
    <glyph glyph-name="uni1E42" unicode="&#x1e42;" 
d="M58 0v652h154l64 -231l22 -90h4l22 90l64 231h154v-652h-124v202q0 80 19 302h-3l-50 -174l-50 -157h-72l-51 157l-47 174h-3q19 -190 19 -302v-202h-122zM300 -246q-43 0 -70.5 24.5t-27.5 64.5t27.5 66t70.5 26t70.5 -26t27.5 -66t-27.5 -64.5t-70.5 -24.5z" />
    <glyph glyph-name="uni1E43" unicode="&#x1e43;" 
d="M35 0v496h111l10 -61h4q33 73 107 73q68 0 86 -81q32 81 110 81q53 0 82 -42.5t29 -117.5v-348h-140v338q0 45 -27 45q-24 0 -45 -48v-335h-115v338q0 45 -28 45q-25 0 -44 -48v-335h-140zM302 -246q-43 0 -70.5 24.5t-27.5 64.5t27.5 66t70.5 26t70.5 -26t27.5 -66
t-27.5 -64.5t-70.5 -24.5z" />
    <glyph glyph-name="uni1E44" unicode="&#x1e44;" 
d="M66 0v652h151l137 -324l56 -144h4q-1 15 -7.5 69t-10 93.5t-3.5 74.5v231h141v-652h-151l-137 325l-56 142h-4q2 -20 8 -71t9.5 -91t3.5 -74v-231h-141zM310 701q-40 0 -65 23.5t-25 60.5t25 60t65 23t65 -23t25 -60t-25 -60.5t-65 -23.5z" />
    <glyph glyph-name="uni1E45" unicode="&#x1e45;" 
d="M72 0v496h120l11 -66h4q80 78 171 78q82 0 122 -52.5t40 -149.5v-306h-147v287q0 50 -16.5 73t-56.5 23q-28 0 -50.5 -12t-50.5 -40v-331h-147zM315 574q-43 0 -70.5 24.5t-27.5 64.5t27.5 66t70.5 26t70.5 -26t27.5 -66t-27.5 -64.5t-70.5 -24.5z" />
    </font>
</defs>
</svg>
